<svg xmlns="http://www.w3.org/2000/svg" width="16" height="16" viewBox="0 0 16 16"><path fill="currentColor" d="M4.896 12.897a.5.5 0 0 1 .708.707l-.75.75a.5.5 0 0 1-.708-.707zm-1.25-1.25a.5.5 0 0 1 .708.707l-1.5 1.5a.5.5 0 1 1-.708-.707zM12.5 1A2.5 2.5 0 0 1 15 3.5v.429c0 1.458-.58 2.858-1.611 3.89l-.512.51a2.5 2.5 0 0 1-.437 2.939l-1.086 1.085a.5.5 0 0 1-.707 0l-.944-.943a1.5 1.5 0 0 1-1.764-.264l-.362-.362l-.661.993a.502.502 0 0 1-.77.077l-2-2a.5.5 0 0 1 .077-.77l.992-.662l-.361-.361a1.5 1.5 0 0 1-.265-1.765l-.943-.942a.5.5 0 0 1 0-.708l1.086-1.085a2.5 2.5 0 0 1 2.939-.44l.51-.51A5.5 5.5 0 0 1 12.072 1zM2.396 10.397a.5.5 0 0 1 .708.707l-.75.75a.5.5 0 0 1-.708-.707zm8.061.353l.543.543l.732-.732c.398-.398.524-.962.381-1.467zM5.284 9.577l1.138 1.138l.434-.652l-.92-.92zM12.071 2A4.5 4.5 0 0 0 8.89 3.318L5.56 6.646a.5.5 0 0 0 0 .708l3.085 3.086a.5.5 0 0 0 .708 0l3.328-3.329A4.5 4.5 0 0 0 14 3.93V3.5A1.5 1.5 0 0 0 12.5 2zM10 4.25a1.75 1.75 0 1 1 0 3.5a1.75 1.75 0 0 1 0-3.5m0 1a.75.75 0 1 0 0 1.5a.75.75 0 0 0 0-1.5M6.907 3.885a1.5 1.5 0 0 0-1.468.383L4.707 5l.543.543z"/></svg>