<svg xmlns="http://www.w3.org/2000/svg" width="16" height="16" viewBox="0 0 16 16"><path fill="currentColor" d="M1.146 1.146a.5.5 0 0 1 .708 0l.034.035l.018.022l12.965 12.965a.499.499 0 0 1-.725.686L12 12.706l-.24.743a.81.81 0 0 1-.76.55a.81.81 0 0 1-.757-.536l-.253-.774a1.06 1.06 0 0 0-.68-.683l-.763-.247a.81.81 0 0 1-.54-.64a.8.8 0 0 1 .218-.683a.8.8 0 0 1 .31-.198l.752-.245l-1.95-1.949q-.066.125-.112.259L6.876 9.37a1 1 0 0 1-.34.46a.923.923 0 0 1-1.406-.448L4.775 8.3a1.7 1.7 0 0 0-1.08-1.083L2.628 6.87a.925.925 0 0 1-.462-1.405a.92.92 0 0 1 .448-.34l1.084-.35q.131-.05.252-.118L1.146 1.853a.5.5 0 0 1 0-.707m9.957 6.858a.8.8 0 0 1 .636.53l.252.773a1.08 1.08 0 0 0 .68.678l.765.25a.8.8 0 0 1 .553.88a.8.8 0 0 1-.14.347a.8.8 0 0 1-.13.14l-3.336-3.336q.015-.02.033-.037a.8.8 0 0 1 .687-.225M5.979 2.003c.19 0 .377.058.534.166a.92.92 0 0 1 .336.444L7.2 3.697a1.7 1.7 0 0 0 1.08 1.078l1.07.346a.923.923 0 0 1 .037 1.75l-.302.098l-4.071-4.072l.089-.27a.92.92 0 0 1 .875-.624"/></svg>