<svg xmlns="http://www.w3.org/2000/svg" width="16" height="16" viewBox="0 0 16 16"><path fill="currentColor" d="M1.147 1.147a.5.5 0 0 1 .707 0l13 13a.5.5 0 0 1-.707.707l-2.148-2.148l-.24.743a.815.815 0 0 1-.76.55a.81.81 0 0 1-.757-.536l-.253-.774a1.06 1.06 0 0 0-.68-.683l-.763-.247a.81.81 0 0 1-.54-.64a.8.8 0 0 1 .218-.683a.8.8 0 0 1 .31-.198l.752-.245l-1.949-1.949q-.067.125-.113.259L6.876 9.37a1 1 0 0 1-.34.46a.92.92 0 0 1-1.071 0a.92.92 0 0 1-.336-.45L4.776 8.3a1.7 1.7 0 0 0-1.08-1.082L2.628 6.87a.925.925 0 0 1-.462-1.405a.93.93 0 0 1 .448-.34l1.084-.35c.088-.031.171-.073.252-.118L1.147 1.854a.5.5 0 0 1 0-.707m8.886 9.593a2 2 0 0 1-.407.195l-.184.064l.178.059a2.08 2.08 0 0 1 1.321 1.322l.058.18l.06-.18q.073-.222.193-.421zm1.07-2.736a.8.8 0 0 1 .636.53l.252.773a1.08 1.08 0 0 0 .68.678l.765.25a.8.8 0 0 1 .553.88a.8.8 0 0 1-.14.347a.8.8 0 0 1-.128.137l-3.336-3.336q.015-.018.031-.034a.8.8 0 0 1 .687-.225M4.675 5.382c-.203.14-.424.255-.658.336l-.865.281l.856.265a2.74 2.74 0 0 1 1.289.912c.188.243.333.517.43.81l.279.858l.265-.857c.079-.24.192-.468.334-.675zm1.304-3.379c.19 0 .377.058.534.166a.92.92 0 0 1 .336.444L7.2 3.697a1.7 1.7 0 0 0 1.08 1.078l1.07.346a.923.923 0 0 1 .037 1.75l-.298.097l-.798-.798l.557-.18l-.88-.27a3 3 0 0 1-.204-.077l-1.44-1.44a3 3 0 0 1-.075-.197l-.28-.862l-.166.538l-.788-.788l.088-.267a.92.92 0 0 1 .341-.458a.94.94 0 0 1 .534-.166"/></svg>