<svg xmlns="http://www.w3.org/2000/svg" width="16" height="16" viewBox="0 0 16 16"><path fill="currentColor" d="M14.57 6.07c.336-.09.825-.146 1.164.193s.284.83.194 1.166c-.102.378-.312.815-.59 1.272c-.558.922-1.449 2.031-2.524 3.107c-.304.303-.768.776-1.305 1.02a2 2 0 0 1-.517.15a2.16 2.16 0 0 1-.618 1.72l-.132.13c-1.4 1.295-3.716 1.308-5.138-.516a.502.502 0 0 1 .252-.787c.884-.261 1.123-.532 1.25-.737c.088-.144.126-.257.234-.481c.098-.205.231-.44.462-.67a2.16 2.16 0 0 1 1.714-.625c.025-.187.081-.364.154-.524c.244-.537.716-1 1.02-1.304c1.075-1.076 2.184-1.967 3.106-2.526c.457-.277.895-.487 1.273-.589m-4.908 6.275a1.17 1.17 0 0 0-1.653-.001a1.4 1.4 0 0 0-.268.396c-.062.13-.16.371-.283.57c-.212.346-.525.64-1.064.892c1.053.837 2.425.66 3.262-.201l.006-.005a1.17 1.17 0 0 0 0-1.651M4 11H2.5A1.5 1.5 0 0 1 1 9.5v-3A1.5 1.5 0 0 1 2.5 5H4zm7-3.908c-.504.418-1.017.884-1.518 1.385c-.272.271-.877.854-1.212 1.576a3.15 3.15 0 0 0-1.542.75l-.132.126q-.034.035-.066.071H5V5h6zM13.5 5c.234 0 .454.055.651.15c-.458.145-.93.384-1.373.653a13 13 0 0 0-.778.514V5zm-4-4A1.5 1.5 0 0 1 11 2.5V4H5V2.5A1.5 1.5 0 0 1 6.5 1z"/></svg>