<svg xmlns="http://www.w3.org/2000/svg" viewBox="0 0 274 829.964"><defs><filter id="cora-shadow-blur" x="-50%" y="-50%" width="200%" height="200%"><feGaussianBlur stdDeviation="0"></feGaussianBlur></filter><marker id="cora-marker-arrow" markerWidth="8" markerHeight="8" refX="8" refY="4" orient="auto-start-reverse" markerUnits="userSpaceOnUse"><path d="M 0 0 L 8 4 L 0 8 z" fill="#334155"></path></marker><marker id="cora-marker-circle" markerWidth="8" markerHeight="8" refX="4" refY="4" orient="auto-start-reverse" markerUnits="userSpaceOnUse"><circle cx="4" cy="4" r="2.88" fill="none" stroke="#334155" stroke-width="1.5"></circle></marker><marker id="cora-marker-filled-circle" markerWidth="8" markerHeight="8" refX="4" refY="4" orient="auto-start-reverse" markerUnits="userSpaceOnUse"><circle cx="4" cy="4" r="2.88" fill="#334155"></circle></marker><marker id="cora-marker-diamond" markerWidth="8" markerHeight="8" refX="4" refY="4" orient="auto-start-reverse" markerUnits="userSpaceOnUse"><path d="M 4 0 L 8 4 L 4 8 L 0 4 Z" fill="none" stroke="#334155" stroke-width="1.5"></path></marker><marker id="cora-marker-filled-diamond" markerWidth="8" markerHeight="8" refX="4" refY="4" orient="auto-start-reverse" markerUnits="userSpaceOnUse"><path d="M 4 0 L 8 4 L 4 8 L 0 4 Z" fill="#334155"></path></marker><marker id="cora-marker-square" markerWidth="8" markerHeight="8" refX="4" refY="4" orient="auto-start-reverse" markerUnits="userSpaceOnUse"><rect x="1.12" y="1.12" width="5.76" height="5.76" fill="none" stroke="#334155" stroke-width="1.5"></rect></marker><marker id="cora-marker-filled-square" markerWidth="8" markerHeight="8" refX="4" refY="4" orient="auto-start-reverse" markerUnits="userSpaceOnUse"><rect x="1.12" y="1.12" width="5.76" height="5.76" fill="#334155"></rect></marker></defs><rect x="0" y="0" width="274" height="829.964" fill="#f8fafc"></rect><g id="groups"><g><rect x="98" y="225" width="152" height="264" fill="none" stroke="#94a3b8" stroke-width="1" stroke-dasharray="4 4"></rect><text x="106" y="217" font-family="&#x27;Noto Sans&#x27;, sans-serif" font-size="12" font-weight="600" fill="#0f172a">us-east</text></g><g><rect x="24" y="541.964" width="163" height="264" fill="none" stroke="#94a3b8" stroke-width="1" stroke-dasharray="4 4"></rect><text x="32" y="533.964" font-family="&#x27;Noto Sans&#x27;, sans-serif" font-size="12" font-weight="600" fill="#0f172a">us-west</text></g></g><g id="nodes"><g><path d="M 100.5 52.05 C 100.5 50.235 101.985 48.75 103.8 48.75 L 196.2 48.75 C 198.015 48.75 199.5 50.235 199.5 52.05 L 199.5 137.85000000000002 C 199.5 139.66500000000002 198.015 141.15 196.2 141.15 L 103.8 141.15 C 101.985 141.15 100.5 139.66500000000002 100.5 137.85000000000002 Z" fill="#16a7e0" stroke="#1c1d1a" stroke-width="2.145" stroke-linejoin="round"></path><path d="M 100.5 52.05 C 100.5 50.235 101.985 48.75 103.8 48.75 L 196.2 48.75 C 198.015 48.75 199.5 50.235 199.5 52.05 L 199.5 61.95 L 100.5 61.95 Z" fill="#1c1d1a"></path><circle cx="107.1" cy="55.35" r="2.31" fill="#ffffff"></circle><circle cx="114.525" cy="55.35" r="2.31" fill="#ffffff"></circle><circle cx="121.95" cy="55.35" r="2.31" fill="#ffffff"></circle><rect x="129.375" y="52.215" width="66" height="6.2700000000000005" rx="1.6500000000000001" fill="#ffffff"></rect><g fill="#1c1d1a" opacity="0.52"><rect x="107.1" y="69.375" width="24.75" height="4.95"></rect><rect x="174.75" y="69.375" width="18.150000000000002" height="4.95"></rect><rect x="107.1" y="78.61500000000001" width="59.400000000000006" height="2.145"></rect><rect x="107.1" y="83.89500000000001" width="57.75" height="2.145"></rect><rect x="107.1" y="89.175" width="57.75" height="2.145"></rect><rect x="107.1" y="94.455" width="38.775" height="2.145"></rect><rect x="168.48000000000002" y="78.61500000000001" width="24.42" height="24.42"></rect><rect x="107.43" y="105.675" width="18.150000000000002" height="5.445"></rect><rect x="107.43" y="115.08" width="23.1" height="16.995"></rect><rect x="135.15" y="115.575" width="36.300000000000004" height="2.145"></rect><rect x="135.15" y="120.855" width="57.75" height="2.145"></rect><rect x="135.15" y="126.135" width="57.75" height="2.145"></rect><rect x="135.15" y="131.41500000000002" width="34.65" height="2.145"></rect></g><text x="150" y="174.08" text-anchor="middle" font-family="&#x27;Noto Sans&#x27;, sans-serif" font-size="12" font-weight="600" fill="#0f172a"><tspan x="150" dy="0">Global DNS</tspan></text></g><g><rect x="110" y="243.62" width="128" height="68" rx="8" ry="8" fill="#a7f3d0" stroke="#10b981" stroke-width="1"></rect><rect x="110" y="243.62" width="128" height="20" rx="8" ry="8" fill="#10b981" opacity="0.35"></rect><circle cx="122" cy="253.62" r="2" fill="#10b981"></circle><circle cx="130" cy="253.62" r="2" fill="#10b981"></circle><text x="174" y="291.7" text-anchor="middle" font-family="&#x27;Noto Sans&#x27;, sans-serif" font-size="12" font-weight="600" fill="#0f172a"><tspan x="174" dy="0">VPC East</tspan></text></g><g><rect x="110" y="347.62" width="128" height="68" rx="8" ry="8" fill="#a7f3d0" stroke="#10b981" stroke-width="1"></rect><rect x="110" y="347.62" width="128" height="20" rx="8" ry="8" fill="#10b981" opacity="0.35"></rect><circle cx="122" cy="357.62" r="2" fill="#10b981"></circle><circle cx="130" cy="357.62" r="2" fill="#10b981"></circle><text x="174" y="395.7" text-anchor="middle" font-family="&#x27;Noto Sans&#x27;, sans-serif" font-size="12" font-weight="600" fill="#0f172a"><tspan x="174" dy="0">Compute East</tspan></text></g><g><rect x="137.84199999999998" y="451.62" width="72.316" height="32.344" rx="8" ry="8" fill="#ffffff" stroke="#cbd5e1" stroke-width="1"></rect><text x="174" y="471.872" text-anchor="middle" font-family="&#x27;Noto Sans&#x27;, sans-serif" font-size="12" font-weight="600" fill="#0f172a"><tspan x="174" dy="0">DB East</tspan></text></g><g><rect x="36" y="553.964" width="128" height="68" rx="8" ry="8" fill="#a7f3d0" stroke="#10b981" stroke-width="1"></rect><rect x="36" y="553.964" width="128" height="20" rx="8" ry="8" fill="#10b981" opacity="0.35"></rect><circle cx="48" cy="563.964" r="2" fill="#10b981"></circle><circle cx="56" cy="563.964" r="2" fill="#10b981"></circle><text x="100" y="602.0440000000001" text-anchor="middle" font-family="&#x27;Noto Sans&#x27;, sans-serif" font-size="12" font-weight="600" fill="#0f172a"><tspan x="100" dy="0">VPC West</tspan></text></g><g><rect x="36" y="657.964" width="128" height="68" rx="8" ry="8" fill="#a7f3d0" stroke="#10b981" stroke-width="1"></rect><rect x="36" y="657.964" width="128" height="20" rx="8" ry="8" fill="#10b981" opacity="0.35"></rect><circle cx="48" cy="667.964" r="2" fill="#10b981"></circle><circle cx="56" cy="667.964" r="2" fill="#10b981"></circle><text x="100" y="706.0440000000001" text-anchor="middle" font-family="&#x27;Noto Sans&#x27;, sans-serif" font-size="12" font-weight="600" fill="#0f172a"><tspan x="100" dy="0">Compute West</tspan></text></g><g><rect x="74.39466666666667" y="761.964" width="76.816" height="32.344" rx="8" ry="8" fill="#ffffff" stroke="#cbd5e1" stroke-width="1"></rect><text x="112.80266666666667" y="782.2160000000001" text-anchor="middle" font-family="&#x27;Noto Sans&#x27;, sans-serif" font-size="12" font-weight="600" fill="#0f172a"><tspan x="112.80266666666667" dy="0">DB West</tspan></text></g></g><g id="edges"><path d="M 174 186 L 174 208 M 174 209.62 L 174 233.62" fill="none" stroke="#334155" stroke-width="2"></path><path d="M 126 186 L 126 198 Q 126 202 122 202 L 91 202 Q 87 202 87 206 L 87 346.172 M 87 365.79200000000003 L 87 514.9639999999999 Q 87 518.9639999999999 91 518.9639999999999 L 96 518.9639999999999 Q 100 518.9639999999999 100 522.9639999999999 L 100 543.964" fill="none" stroke="#334155" stroke-width="2"></path><path d="M 174 313.62 L 174 337.62" fill="none" stroke="#334155" stroke-width="2"></path><path d="M 174 417.62 L 174 441.62" fill="none" stroke="#334155" stroke-width="2"></path><path d="M 100 623.964 L 100 647.964" fill="none" stroke="#334155" stroke-width="2"></path><path d="M 100 727.964 L 100 751.964" fill="none" stroke="#334155" stroke-width="2"></path><path d="M 174 485.964 L 174 637.3513333333334 M 174 656.9713333333333 L 174 739.964 Q 174 743.964 170 743.964 L 125.60533333333333 743.964 L 125.60533333333333 752.124" fill="none" stroke="#334155" stroke-width="2"></path><path d="M 174 186 L 174 241.62" fill="none" stroke="transparent" stroke-width="0.001" marker-end="url(#cora-marker-arrow)"></path><path d="M 126 186 L 126 194 Q 126 202 118 202 L 95 202 Q 87 202 87 210 L 87 512.4639999999999 Q 87 518.9639999999999 93.5 518.9639999999999 L 93.5 518.9639999999999 Q 100 518.9639999999999 100 525.4639999999999 L 100 551.964" fill="none" stroke="transparent" stroke-width="0.001" marker-end="url(#cora-marker-arrow)"></path><path d="M 174 313.62 L 174 345.62" fill="none" stroke="transparent" stroke-width="0.001" marker-end="url(#cora-marker-arrow)"></path><path d="M 174 417.62 L 174 449.62" fill="none" stroke="transparent" stroke-width="0.001" marker-end="url(#cora-marker-arrow)"></path><path d="M 100 623.964 L 100 655.964" fill="none" stroke="transparent" stroke-width="0.001" marker-end="url(#cora-marker-arrow)"></path><path d="M 100 727.964 L 100 759.964" fill="none" stroke="transparent" stroke-width="0.001" marker-end="url(#cora-marker-arrow)"></path><path d="M 174 485.964 L 174 735.964 Q 174 743.964 166 743.964 L 133.60533333333333 743.964 Q 125.60533333333333 743.964 125.60533333333333 751.964 L 125.60533333333333 759.964" fill="none" stroke="transparent" stroke-width="0.001" marker-end="url(#cora-marker-arrow)"></path></g><g id="edge-bridge-masks"></g><g id="edge-bridges"></g><g id="edge-labels"><g><rect x="158.295" y="205.5" width="31.41" height="16.62" rx="8.31" ry="8.31" fill="#f8fafc"></rect><text x="174" y="217.21" text-anchor="middle" font-family="&#x27;Noto Sans&#x27;, sans-serif" font-size="10" font-weight="400" fill="#475569">route</text></g><g><rect x="71.295" y="347.672" width="31.41" height="16.62" rx="8.31" ry="8.31" fill="#f8fafc"></rect><text x="87" y="359.382" text-anchor="middle" font-family="&#x27;Noto Sans&#x27;, sans-serif" font-size="10" font-weight="400" fill="#475569">route</text></g><g><rect x="150.73" y="638.8513333333334" width="46.54" height="16.62" rx="8.31" ry="8.31" fill="#f8fafc"></rect><text x="174" y="650.5613333333333" text-anchor="middle" font-family="&#x27;Noto Sans&#x27;, sans-serif" font-size="10" font-weight="400" fill="#475569">replicate</text></g></g></svg>