<svg xmlns="http://www.w3.org/2000/svg" viewBox="0 0 613.7702540378443 148"><defs><filter id="cora-shadow-blur" x="-50%" y="-50%" width="200%" height="200%"><feGaussianBlur stdDeviation="0"></feGaussianBlur></filter><marker id="cora-marker-arrow" markerWidth="8" markerHeight="8" refX="0" refY="4" orient="auto" markerUnits="userSpaceOnUse"><path d="M 0 0 L 8 4 L 0 8 z" fill="#334155"></path></marker><marker id="cora-marker-circle" markerWidth="8" markerHeight="8" refX="4" refY="4" orient="auto" markerUnits="userSpaceOnUse"><circle cx="4" cy="4" r="2.88" fill="none" stroke="#334155" stroke-width="1.5"></circle></marker><marker id="cora-marker-filled-circle" markerWidth="8" markerHeight="8" refX="4" refY="4" orient="auto" markerUnits="userSpaceOnUse"><circle cx="4" cy="4" r="2.88" fill="#334155"></circle></marker></defs><rect x="0" y="0" width="613.7702540378443" height="148" fill="#f8fafc"></rect><g id="groups"></g><g id="nodes"><g><rect x="24" y="24" width="144" height="100" rx="8" ry="8" fill="#bae6fd" stroke="#0ea5e9" stroke-width="1"></rect><rect x="38" y="36" width="116" height="18" rx="4" fill="#e2e8f0"></rect><rect x="38" y="44" width="63.800000000000004" height="6" rx="3" fill="#94a3b8"></rect><rect x="38" y="62" width="92.80000000000001" height="5" rx="2.5" fill="#e2e8f0"></rect><rect x="38" y="74" width="71.92" height="5" rx="2.5" fill="#e2e8f0"></rect><text x="96" y="106.656" text-anchor="middle" font-family="&#x27;Noto Sans&#x27;, sans-serif" font-size="12" font-weight="600" fill="#0f172a"><tspan x="96" dy="0">Client</tspan></text></g><g><rect x="254.27012701892218" y="62.66666666666666" width="120" height="56" rx="8" ry="8" fill="#ffffff" stroke="#cbd5e1" stroke-width="1"></rect><text x="314.27012701892215" y="95.32266666666666" text-anchor="middle" font-family="&#x27;Noto Sans&#x27;, sans-serif" font-size="12" font-weight="600" fill="#0f172a"><tspan x="314.27012701892215" dy="0">Edge Proxy</tspan></text></g><g><rect x="461.7702540378444" y="45.33333333333333" width="128" height="68" rx="8" ry="8" fill="#a7f3d0" stroke="#10b981" stroke-width="1"></rect><rect x="461.7702540378444" y="45.33333333333333" width="128" height="20" rx="8" ry="8" fill="#10b981" opacity="0.35"></rect><circle cx="473.7702540378444" cy="55.33333333333333" r="2" fill="#10b981"></circle><circle cx="481.7702540378444" cy="55.33333333333333" r="2" fill="#10b981"></circle><text x="525.7702540378443" y="93.98933333333333" text-anchor="middle" font-family="&#x27;Noto Sans&#x27;, sans-serif" font-size="12" font-weight="600" fill="#0f172a"><tspan x="525.7702540378443" dy="0">Server</tspan></text></g></g><g id="edges"><path d="M 170 90.66666666666666 L 188 90.66666666666666 M 223.94 90.66666666666666 L 247.94 90.66666666666666" fill="none" stroke="#334155" stroke-width="2" marker-end="url(#cora-marker-arrow)"></path><path d="M 376.27012701892215 90.66666666666666 L 394.2701270189222 90.66666666666666 M 431.44012701892217 90.66666666666666 L 455.44012701892217 90.66666666666666" fill="none" stroke="#334155" stroke-width="2" marker-end="url(#cora-marker-arrow)"></path><path d="M 459.7702540378444 68 L 396.27012701892215 68 Q 392.27012701892215 68 392.27012701892215 64 L 392.27012701892215 55.356666666666655 Q 392.27012701892215 51.356666666666655 388.27012701892215 51.356666666666655 L 297.79852386171666 51.356666666666655 M 346.9685238617166 51.356666666666655 L 186 51.356666666666655 L 186 57.33333333333333 L 174.33012701892218 57.33333333333333" fill="none" stroke="#334155" stroke-width="2" marker-end="url(#cora-marker-arrow)"></path></g><g id="edge-bridge-masks"></g><g id="edge-bridges"></g><g id="edge-labels"><g><rect x="188" y="81.35666666666665" width="41.94" height="16.62" rx="8.31" ry="8.31" fill="#f8fafc"></rect><text x="208.97" y="93.54666666666665" text-anchor="middle" font-family="&#x27;Noto Sans&#x27;, sans-serif" font-size="10" font-weight="400" fill="#475569">request</text></g><g><rect x="394.2701270189222" y="81.35666666666665" width="43.17" height="16.62" rx="8.31" ry="8.31" fill="#f8fafc"></rect><text x="415.8551270189222" y="93.54666666666665" text-anchor="middle" font-family="&#x27;Noto Sans&#x27;, sans-serif" font-size="10" font-weight="400" fill="#475569">forward</text></g><g><rect x="297.79852386171666" y="42.04666666666665" width="49.17" height="16.62" rx="8.31" ry="8.31" fill="#f8fafc"></rect><text x="322.38352386171664" y="54.23666666666666" text-anchor="middle" font-family="&#x27;Noto Sans&#x27;, sans-serif" font-size="10" font-weight="400" fill="#475569">response</text></g></g></svg>