<svg xmlns="http://www.w3.org/2000/svg" viewBox="0 -10.166666666666671 959.5899999999999 123.5"><defs><filter id="cora-shadow-blur" x="-50%" y="-50%" width="200%" height="200%"><feGaussianBlur stdDeviation="0"></feGaussianBlur></filter><marker id="cora-marker-arrow-start" markerWidth="8" markerHeight="8" refX="0" refY="4" orient="auto" markerUnits="userSpaceOnUse"><path d="M 8 0 L 0 4 L 8 8 z" fill="#64748b99"></path></marker><marker id="cora-marker-arrow-end" markerWidth="8" markerHeight="8" refX="8" refY="4" orient="auto" markerUnits="userSpaceOnUse"><path d="M 0 0 L 8 4 L 0 8 z" fill="#64748b99"></path></marker><marker id="cora-marker-circle" markerWidth="8" markerHeight="8" refX="4" refY="4" orient="auto" markerUnits="userSpaceOnUse"><circle cx="4" cy="4" r="2.88" fill="none" stroke="#64748b99" stroke-width="1.5"></circle></marker><marker id="cora-marker-filled-circle" markerWidth="8" markerHeight="8" refX="4" refY="4" orient="auto" markerUnits="userSpaceOnUse"><circle cx="4" cy="4" r="2.88" fill="#64748b99"></circle></marker><marker id="cora-marker-diamond" markerWidth="8" markerHeight="8" refX="4" refY="4" orient="auto" markerUnits="userSpaceOnUse"><path d="M 4 0 L 8 4 L 4 8 L 0 4 Z" fill="none" stroke="#64748b99" stroke-width="1.5"></path></marker><marker id="cora-marker-filled-diamond" markerWidth="8" markerHeight="8" refX="4" refY="4" orient="auto" markerUnits="userSpaceOnUse"><path d="M 4 0 L 8 4 L 4 8 L 0 4 Z" fill="#64748b99"></path></marker><marker id="cora-marker-square" markerWidth="8" markerHeight="8" refX="4" refY="4" orient="auto" markerUnits="userSpaceOnUse"><rect x="1.12" y="1.12" width="5.76" height="5.76" fill="none" stroke="#64748b99" stroke-width="1.5"></rect></marker><marker id="cora-marker-filled-square" markerWidth="8" markerHeight="8" refX="4" refY="4" orient="auto" markerUnits="userSpaceOnUse"><rect x="1.12" y="1.12" width="5.76" height="5.76" fill="#64748b99"></rect></marker></defs><rect x="0" y="-10.166666666666671" width="959.5899999999999" height="123.5" fill="#f8fafc"></rect><g id="groups"></g><g id="nodes"><g><rect x="24" y="24" width="120" height="56" rx="8" ry="8" fill="#0ea5e966" stroke="#0ea5e966" stroke-width="1"></rect><text x="84" y="56.2" text-anchor="middle" font-family="&#x27;Source Sans 3&#x27;, sans-serif" font-size="12" font-weight="600" fill="#0f172a"><tspan x="84" dy="0">Browser Client</tspan></text></g><g><rect x="222.15" y="33.33333333333333" width="120" height="56" rx="8" ry="8" fill="#0ea5e966" stroke="#0ea5e966" stroke-width="1"></rect><text x="282.15" y="65.53333333333333" text-anchor="middle" font-family="&#x27;Source Sans 3&#x27;, sans-serif" font-size="12" font-weight="600" fill="#0f172a"><tspan x="282.15" dy="0">Edge Proxy</tspan></text></g><g><rect x="418.78" y="24" width="120" height="56" rx="8" ry="8" fill="#0ea5e966" stroke="#0ea5e966" stroke-width="1"></rect><text x="478.78" y="56.2" text-anchor="middle" font-family="&#x27;Source Sans 3&#x27;, sans-serif" font-size="12" font-weight="600" fill="#0f172a"><tspan x="478.78" dy="0">API Server</tspan></text></g><g><rect x="629.8599999999999" y="24" width="120" height="56" rx="8" ry="8" fill="#0ea5e966" stroke="#0ea5e966" stroke-width="1"></rect><text x="689.8599999999999" y="56.2" text-anchor="middle" font-family="&#x27;Source Sans 3&#x27;, sans-serif" font-size="12" font-weight="600" fill="#0f172a"><tspan x="689.8599999999999" dy="0">Async Worker</tspan></text></g><g><rect x="815.5899999999999" y="24" width="120" height="56" rx="8" ry="8" fill="#0ea5e966" stroke="#0ea5e966" stroke-width="1"></rect><text x="875.5899999999999" y="56.2" text-anchor="middle" font-family="&#x27;Source Sans 3&#x27;, sans-serif" font-size="12" font-weight="600" fill="#0f172a"><tspan x="875.5899999999999" dy="0">Audit Log</tspan></text></g></g><g id="edges"><path d="M 146 61.33333333333333 L 157 61.33333333333333 M 201.14999999999998 61.33333333333333 L 212.15 61.33333333333333" fill="none" stroke="#64748b99" stroke-width="1.5"></path><path d="M 344.15 61.33333333333333 L 355.15 61.33333333333333 M 400.02 61.33333333333333 L 411.02 61.33333333333333" fill="none" stroke="#64748b99" stroke-width="1.5"></path><path d="M 548.04 52 L 559.04 52 M 609.5999999999999 52 L 620.5999999999999 52" fill="none" stroke="#64748b99" stroke-width="1.5"></path><path d="M 751.8599999999999 52 L 762.8599999999999 52 M 793.0899999999999 52 L 804.0899999999999 52" fill="none" stroke="#64748b99" stroke-width="1.5"></path><path d="M 411.02 42.666666666666664 L 364.15 42.666666666666664 L 364.15 21.83333333333333 L 307.455 21.83333333333333 M 255.325 21.83333333333333 L 166 21.83333333333333 L 166 42.666666666666664 L 154 42.666666666666664" fill="none" stroke="#64748b99" stroke-width="1.5"></path><path d="M 146 61.33333333333333 L 220.15 61.33333333333333" fill="none" stroke="transparent" stroke-width="0.001" marker-end="url(#cora-marker-arrow-end)"></path><path d="M 344.15 61.33333333333333 L 413.9 61.33333333333333" fill="none" stroke="transparent" stroke-width="0.001" marker-end="url(#cora-marker-filled-circle)"></path><path d="M 544.41 52 L 624.2299999999999 52" fill="none" stroke="transparent" stroke-width="0.001" marker-start="url(#cora-marker-circle)" marker-end="url(#cora-marker-square)"></path><path d="M 751.8599999999999 52 L 808.8399999999999 52" fill="none" stroke="transparent" stroke-width="0.001" marker-end="url(#cora-marker-diamond)"></path><path d="M 413.9 42.666666666666664 L 364.15 42.666666666666664 L 364.15 21.83333333333333 L 166 21.83333333333333 L 166 42.666666666666664 L 146 42.666666666666664" fill="none" stroke="transparent" stroke-width="0.001" marker-start="url(#cora-marker-filled-square)" marker-end="url(#cora-marker-arrow-end)"></path></g><g id="edge-bridge-masks"></g><g id="edge-bridges"></g><g id="edge-labels"><g><rect x="157" y="51.83333333333333" width="44.15" height="17" rx="8.5" ry="8.5" fill="#f8fafc"></rect><text x="179.075" y="63.83333333333333" text-anchor="middle" font-family="&#x27;Source Sans 3&#x27;, sans-serif" font-size="10" font-weight="400" fill="#64748b99">request</text></g><g><rect x="355.15" y="51.83333333333333" width="44.87" height="17" rx="8.5" ry="8.5" fill="#f8fafc"></rect><text x="377.585" y="63.83333333333333" text-anchor="middle" font-family="&#x27;Source Sans 3&#x27;, sans-serif" font-size="10" font-weight="400" fill="#64748b99">forward</text></g><g><rect x="559.04" y="42.5" width="50.56" height="17" rx="8.5" ry="8.5" fill="#f8fafc"></rect><text x="584.3199999999999" y="54.5" text-anchor="middle" font-family="&#x27;Source Sans 3&#x27;, sans-serif" font-size="10" font-weight="400" fill="#64748b99">enqueue</text></g><g><rect x="762.8599999999999" y="42.5" width="30.23" height="17" rx="8.5" ry="8.5" fill="#f8fafc"></rect><text x="777.9749999999999" y="54.5" text-anchor="middle" font-family="&#x27;Source Sans 3&#x27;, sans-serif" font-size="10" font-weight="400" fill="#64748b99">write</text></g><g><rect x="255.325" y="12.333333333333329" width="52.13" height="17" rx="8.5" ry="8.5" fill="#f8fafc"></rect><text x="281.39" y="24.33333333333333" text-anchor="middle" font-family="&#x27;Source Sans 3&#x27;, sans-serif" font-size="10" font-weight="400" fill="#64748b99">response</text></g></g></svg>