<svg xmlns="http://www.w3.org/2000/svg" viewBox="0 0 282.394 854.7199999999998"><defs><filter id="cora-shadow-blur" x="-50%" y="-50%" width="200%" height="200%"><feGaussianBlur stdDeviation="0"></feGaussianBlur></filter><marker id="cora-marker-arrow-start" markerWidth="8" markerHeight="8" refX="0" refY="4" orient="auto" markerUnits="userSpaceOnUse"><path d="M 8 0 L 0 4 L 8 8 z" fill="#94a3b899"></path></marker><marker id="cora-marker-arrow-end" markerWidth="8" markerHeight="8" refX="8" refY="4" orient="auto" markerUnits="userSpaceOnUse"><path d="M 0 0 L 8 4 L 0 8 z" fill="#94a3b899"></path></marker><marker id="cora-marker-circle" markerWidth="8" markerHeight="8" refX="4" refY="4" orient="auto" markerUnits="userSpaceOnUse"><circle cx="4" cy="4" r="2.88" fill="none" stroke="#94a3b899" stroke-width="1.5"></circle></marker><marker id="cora-marker-filled-circle" markerWidth="8" markerHeight="8" refX="4" refY="4" orient="auto" markerUnits="userSpaceOnUse"><circle cx="4" cy="4" r="2.88" fill="#94a3b899"></circle></marker><marker id="cora-marker-diamond" markerWidth="8" markerHeight="8" refX="4" refY="4" orient="auto" markerUnits="userSpaceOnUse"><path d="M 4 0 L 8 4 L 4 8 L 0 4 Z" fill="none" stroke="#94a3b899" stroke-width="1.5"></path></marker><marker id="cora-marker-filled-diamond" markerWidth="8" markerHeight="8" refX="4" refY="4" orient="auto" markerUnits="userSpaceOnUse"><path d="M 4 0 L 8 4 L 4 8 L 0 4 Z" fill="#94a3b899"></path></marker><marker id="cora-marker-square" markerWidth="8" markerHeight="8" refX="4" refY="4" orient="auto" markerUnits="userSpaceOnUse"><rect x="1.12" y="1.12" width="5.76" height="5.76" fill="none" stroke="#94a3b899" stroke-width="1.5"></rect></marker><marker id="cora-marker-filled-square" markerWidth="8" markerHeight="8" refX="4" refY="4" orient="auto" markerUnits="userSpaceOnUse"><rect x="1.12" y="1.12" width="5.76" height="5.76" fill="#94a3b899"></rect></marker></defs><rect x="0" y="0" width="282.394" height="854.7199999999998" fill="#0f172a"></rect><g id="groups"><g><rect x="96.246" y="103.8" width="162.14800000000002" height="340.46" fill="none" stroke="#94a3b899" stroke-width="1" stroke-dasharray="4 4"></rect><text x="104.246" y="95.8" font-family="&#x27;Source Sans 3&#x27;, sans-serif" font-size="12" font-weight="600" fill="#f1f5f9">us-east</text></g><g><rect x="24" y="490.26" width="167.32" height="340.4599999999998" fill="none" stroke="#94a3b899" stroke-width="1" stroke-dasharray="4 4"></rect><text x="32" y="482.26" font-family="&#x27;Source Sans 3&#x27;, sans-serif" font-size="12" font-weight="600" fill="#f1f5f9">us-west</text></g></g><g id="nodes"><g><rect x="113.71733333333333" y="24" width="95.404" height="32.8" rx="8" ry="8" fill="#38bdf866" stroke="#38bdf866" stroke-width="1"></rect><text x="161.41933333333333" y="44.6" text-anchor="middle" font-family="&#x27;Source Sans 3&#x27;, sans-serif" font-size="12" font-weight="600" fill="#f1f5f9"><tspan x="161.41933333333333" dy="0">Global DNS</tspan></text></g><g><rect x="136.512" y="127.8" width="81.616" height="32.8" rx="8" ry="8" fill="#38bdf866" stroke="#38bdf866" stroke-width="1"></rect><text x="177.32" y="148.39999999999998" text-anchor="middle" font-family="&#x27;Source Sans 3&#x27;, sans-serif" font-size="12" font-weight="600" fill="#f1f5f9"><tspan x="177.32" dy="0">VPC East</tspan></text></g><g><rect x="120.246" y="214.6" width="114.148" height="32.8" rx="8" ry="8" fill="#38bdf866" stroke="#38bdf866" stroke-width="1"></rect><text x="177.32" y="235.2" text-anchor="middle" font-family="&#x27;Source Sans 3&#x27;, sans-serif" font-size="12" font-weight="600" fill="#f1f5f9"><tspan x="177.32" dy="0">Compute East</tspan></text></g><g><rect x="140.874" y="387.46" width="72.892" height="32.8" rx="8" ry="8" fill="#38bdf866" stroke="#38bdf866" stroke-width="1"></rect><text x="177.32" y="408.05999999999995" text-anchor="middle" font-family="&#x27;Source Sans 3&#x27;, sans-serif" font-size="12" font-weight="600" fill="#f1f5f9"><tspan x="177.32" dy="0">DB East</tspan></text></g><g><rect x="128.976" y="300.65999999999997" width="96.688" height="32.8" rx="8" ry="8" fill="#38bdf866" stroke="#38bdf866" stroke-width="1"></rect><text x="177.32" y="321.25999999999993" text-anchor="middle" font-family="&#x27;Source Sans 3&#x27;, sans-serif" font-size="12" font-weight="600" fill="#f1f5f9"><tspan x="177.32" dy="0">Queue East</tspan></text></g><g><rect x="64.26599999999999" y="514.26" width="86.788" height="32.8" rx="8" ry="8" fill="#38bdf866" stroke="#38bdf866" stroke-width="1"></rect><text x="107.66" y="534.86" text-anchor="middle" font-family="&#x27;Source Sans 3&#x27;, sans-serif" font-size="12" font-weight="600" fill="#f1f5f9"><tspan x="107.66" dy="0">VPC West</tspan></text></g><g><rect x="48" y="601.06" width="119.32" height="32.8" rx="8" ry="8" fill="#38bdf866" stroke="#38bdf866" stroke-width="1"></rect><text x="107.66" y="621.66" text-anchor="middle" font-family="&#x27;Source Sans 3&#x27;, sans-serif" font-size="12" font-weight="600" fill="#f1f5f9"><tspan x="107.66" dy="0">Compute West</tspan></text></g><g><rect x="81.63866666666667" y="773.9199999999998" width="78.064" height="32.8" rx="8" ry="8" fill="#38bdf866" stroke="#38bdf866" stroke-width="1"></rect><text x="120.67066666666666" y="794.5199999999999" text-anchor="middle" font-family="&#x27;Source Sans 3&#x27;, sans-serif" font-size="12" font-weight="600" fill="#f1f5f9"><tspan x="120.67066666666666" dy="0">DB West</tspan></text></g><g><rect x="56.73" y="687.1199999999999" width="101.86" height="32.8" rx="8" ry="8" fill="#38bdf866" stroke="#38bdf866" stroke-width="1"></rect><text x="107.66" y="707.7199999999999" text-anchor="middle" font-family="&#x27;Source Sans 3&#x27;, sans-serif" font-size="12" font-weight="600" fill="#f1f5f9"><tspan x="107.66" dy="0">Queue West</tspan></text></g></g><g id="edges"><path d="M 177.32 58.8 L 177.32 82.3 M 177.32 102.3 L 177.32 120.04" fill="none" stroke="#94a3b899" stroke-width="1.5"></path><path d="M 145.51866666666666 58.8 L 145.51866666666666 95.8 L 82.246 95.8 L 82.246 256.60066666666665 M 82.246 276.60066666666665 L 82.246 465.26 L 107.66 465.26 L 107.66 506.5" fill="none" stroke="#94a3b899" stroke-width="1.5"></path><path d="M 177.32 162.6 L 177.32 173.6 M 177.32 193.6 L 177.32 204.6" fill="none" stroke="#94a3b899" stroke-width="1.5"></path><path d="M 177.32 249.39999999999998 L 177.32 260.4 M 177.32 280.4 L 177.32 291.4" fill="none" stroke="#94a3b899" stroke-width="1.5"></path><path d="M 177.32 335.46 L 177.32 346.46 M 177.32 366.46 L 177.32 377.46" fill="none" stroke="#94a3b899" stroke-width="1.5"></path><path d="M 107.66 549.06 L 107.66 560.06 M 107.66 580.06 L 107.66 591.06" fill="none" stroke="#94a3b899" stroke-width="1.5"></path><path d="M 107.66 635.8599999999999 L 107.66 646.8599999999999 M 107.66 666.8599999999999 L 107.66 677.8599999999999" fill="none" stroke="#94a3b899" stroke-width="1.5"></path><path d="M 107.66 721.9199999999998 L 107.66 732.9199999999998 M 107.66 752.9199999999998 L 107.66 763.9199999999998" fill="none" stroke="#94a3b899" stroke-width="1.5"></path><path d="M 177.32 430.26 L 177.32 636.3599999999999 M 177.32 656.3599999999999 L 177.32 741.9199999999997 L 133.68133333333333 741.9199999999997 L 133.68133333333333 763.9199999999998" fill="none" stroke="#94a3b899" stroke-width="1.5"></path><path d="M 177.32 58.8 L 177.32 122.92" fill="none" stroke="transparent" stroke-width="0.001" marker-end="url(#cora-marker-filled-circle)"></path><path d="M 145.51866666666666 58.8 L 145.51866666666666 95.8 L 82.246 95.8 L 82.246 465.26 L 107.66 465.26 L 107.66 509.38" fill="none" stroke="transparent" stroke-width="0.001" marker-end="url(#cora-marker-filled-circle)"></path><path d="M 177.32 162.6 L 177.32 212.6" fill="none" stroke="transparent" stroke-width="0.001" marker-end="url(#cora-marker-arrow-end)"></path><path d="M 177.32 249.39999999999998 L 177.32 295.03" fill="none" stroke="transparent" stroke-width="0.001" marker-end="url(#cora-marker-square)"></path><path d="M 177.32 335.46 L 177.32 385.46" fill="none" stroke="transparent" stroke-width="0.001" marker-end="url(#cora-marker-arrow-end)"></path><path d="M 107.66 549.06 L 107.66 599.06" fill="none" stroke="transparent" stroke-width="0.001" marker-end="url(#cora-marker-arrow-end)"></path><path d="M 107.66 635.8599999999999 L 107.66 681.4899999999999" fill="none" stroke="transparent" stroke-width="0.001" marker-end="url(#cora-marker-square)"></path><path d="M 107.66 721.9199999999998 L 107.66 771.9199999999998" fill="none" stroke="transparent" stroke-width="0.001" marker-end="url(#cora-marker-arrow-end)"></path><path d="M 177.32 426.26 L 177.32 741.9199999999997 L 133.68133333333333 741.9199999999997 L 133.68133333333333 767.9199999999998" fill="none" stroke="transparent" stroke-width="0.001" marker-start="url(#cora-marker-filled-diamond)" marker-end="url(#cora-marker-filled-diamond)"></path></g><g id="edge-bridge-masks"></g><g id="edge-bridges"></g><g id="edge-labels"><g><rect x="161.135" y="83.8" width="32.370000000000005" height="17" rx="8.5" ry="8.5" fill="#0f172a"></rect><text x="177.32" y="95.8" text-anchor="middle" font-family="&#x27;Source Sans 3&#x27;, sans-serif" font-size="10" font-weight="400" fill="#94a3b899">route</text></g><g><rect x="66.06099999999999" y="258.10066666666665" width="32.370000000000005" height="17" rx="8.5" ry="8.5" fill="#0f172a"></rect><text x="82.246" y="270.10066666666665" text-anchor="middle" font-family="&#x27;Source Sans 3&#x27;, sans-serif" font-size="10" font-weight="400" fill="#94a3b899">route</text></g><g><rect x="137.41" y="175.1" width="79.82" height="17" rx="8.5" ry="8.5" fill="#0f172a"></rect><text x="177.32" y="187.1" text-anchor="middle" font-family="&#x27;Source Sans 3&#x27;, sans-serif" font-size="10" font-weight="400" fill="#94a3b899">private ingress</text></g><g><rect x="163.89" y="261.9" width="26.86" height="17" rx="8.5" ry="8.5" fill="#0f172a"></rect><text x="177.32" y="273.9" text-anchor="middle" font-family="&#x27;Source Sans 3&#x27;, sans-serif" font-size="10" font-weight="400" fill="#94a3b899">jobs</text></g><g><rect x="157.70499999999998" y="347.96" width="39.23" height="17" rx="8.5" ry="8.5" fill="#0f172a"></rect><text x="177.32" y="359.96" text-anchor="middle" font-family="&#x27;Source Sans 3&#x27;, sans-serif" font-size="10" font-weight="400" fill="#94a3b899">persist</text></g><g><rect x="67.75" y="561.56" width="79.82" height="17" rx="8.5" ry="8.5" fill="#0f172a"></rect><text x="107.66" y="573.56" text-anchor="middle" font-family="&#x27;Source Sans 3&#x27;, sans-serif" font-size="10" font-weight="400" fill="#94a3b899">private ingress</text></g><g><rect x="94.22999999999999" y="648.3599999999999" width="26.86" height="17" rx="8.5" ry="8.5" fill="#0f172a"></rect><text x="107.66" y="660.3599999999999" text-anchor="middle" font-family="&#x27;Source Sans 3&#x27;, sans-serif" font-size="10" font-weight="400" fill="#94a3b899">jobs</text></g><g><rect x="88.045" y="734.4199999999998" width="39.23" height="17" rx="8.5" ry="8.5" fill="#0f172a"></rect><text x="107.66" y="746.4199999999998" text-anchor="middle" font-family="&#x27;Source Sans 3&#x27;, sans-serif" font-size="10" font-weight="400" fill="#94a3b899">persist</text></g><g><rect x="152.18" y="637.8599999999999" width="50.28" height="17" rx="8.5" ry="8.5" fill="#0f172a"></rect><text x="177.32" y="649.8599999999999" text-anchor="middle" font-family="&#x27;Source Sans 3&#x27;, sans-serif" font-size="10" font-weight="400" fill="#94a3b899">replicate</text></g></g></svg>