<svg xmlns="http://www.w3.org/2000/svg" viewBox="0 0 487.77666666666664 176"><defs><filter id="cora-shadow-blur" x="-50%" y="-50%" width="200%" height="200%"><feGaussianBlur stdDeviation="0"></feGaussianBlur></filter><marker id="cora-marker-arrow" markerWidth="8" markerHeight="8" refX="8" refY="4" orient="auto-start-reverse" markerUnits="userSpaceOnUse"><path d="M 0 0 L 8 4 L 0 8 z" fill="#334155"></path></marker><marker id="cora-marker-circle" markerWidth="8" markerHeight="8" refX="4" refY="4" orient="auto-start-reverse" markerUnits="userSpaceOnUse"><circle cx="4" cy="4" r="2.88" fill="none" stroke="#334155" stroke-width="1.5"></circle></marker><marker id="cora-marker-filled-circle" markerWidth="8" markerHeight="8" refX="4" refY="4" orient="auto-start-reverse" markerUnits="userSpaceOnUse"><circle cx="4" cy="4" r="2.88" fill="#334155"></circle></marker><marker id="cora-marker-diamond" markerWidth="8" markerHeight="8" refX="4" refY="4" orient="auto-start-reverse" markerUnits="userSpaceOnUse"><path d="M 4 0 L 8 4 L 4 8 L 0 4 Z" fill="none" stroke="#334155" stroke-width="1.5"></path></marker><marker id="cora-marker-filled-diamond" markerWidth="8" markerHeight="8" refX="4" refY="4" orient="auto-start-reverse" markerUnits="userSpaceOnUse"><path d="M 4 0 L 8 4 L 4 8 L 0 4 Z" fill="#334155"></path></marker><marker id="cora-marker-square" markerWidth="8" markerHeight="8" refX="4" refY="4" orient="auto-start-reverse" markerUnits="userSpaceOnUse"><rect x="1.12" y="1.12" width="5.76" height="5.76" fill="none" stroke="#334155" stroke-width="1.5"></rect></marker><marker id="cora-marker-filled-square" markerWidth="8" markerHeight="8" refX="4" refY="4" orient="auto-start-reverse" markerUnits="userSpaceOnUse"><rect x="1.12" y="1.12" width="5.76" height="5.76" fill="#334155"></rect></marker></defs><rect x="0" y="0" width="487.77666666666664" height="176" fill="#f8fafc"></rect><g id="groups"></g><g id="nodes"><g><rect x="24" y="24" width="96" height="128" rx="8" ry="8" fill="#ffffff" stroke="#0ea5e9" stroke-width="1"></rect><g transform="translate(36, 47.25) scale(3)"><path d="M4 4a2 2 0 0 1 2-2h8a1 1 0 0 1 .707.293l5 5A1 1 0 0 1 20 8v12a2 2 0 0 1-2 2H6a2 2 0 0 1-2-2zm13.586 4L14 4.414V8zM12 4H6v16h12V10h-5a1 1 0 0 1-1-1zm-4 9a1 1 0 0 1 1-1h6a1 1 0 1 1 0 2H9a1 1 0 0 1-1-1m0 4a1 1 0 0 1 1-1h6a1 1 0 1 1 0 2H9a1 1 0 0 1-1-1" fill="#0ea5e9"></path></g><text x="72" y="148.906" text-anchor="middle" font-family="&#x27;Noto Sans&#x27;, sans-serif" font-size="12" font-weight="600" fill="#0f172a"><tspan x="72" dy="0">Client</tspan></text></g><g><rect x="201.94" y="81.33333333333333" width="120" height="56" rx="8" ry="8" fill="#ffffff" stroke="#cbd5e1" stroke-width="1"></rect><text x="261.94" y="113.98933333333333" text-anchor="middle" font-family="&#x27;Noto Sans&#x27;, sans-serif" font-size="12" font-weight="600" fill="#0f172a"><tspan x="261.94" dy="0">Edge Proxy</tspan></text></g><g><g transform="translate(400.52666666666664, 48.33333333333333) scale(1.9375)"><rect x="6" y="1.5" width="12" height="21" rx="2.25" fill="#ffffff"></rect><path d="M10.5 1.5H8.25A2.25 2.25 0 0 0 6 3.75v16.5a2.25 2.25 0 0 0 2.25 2.25h7.5A2.25 2.25 0 0 0 18 20.25V3.75A2.25 2.25 0 0 0 15.75 1.5H13.5M10.5 1.5H13.5M10.5 1.5V3H13.5V1.5M12 21.75V21.75" fill="none" stroke="#000000" stroke-width="1.5" stroke-linecap="round" stroke-linejoin="round"></path></g><text x="423.77666666666664" y="106.27058333333333" text-anchor="middle" font-family="&#x27;Noto Sans&#x27;, sans-serif" font-size="12" font-weight="600" fill="#0f172a"><tspan x="423.77666666666664" dy="0">Server</tspan></text></g></g><g id="edges"><path d="M 122 109.33333333333333 L 144 109.33333333333333 M 167.94 109.33333333333333 L 191.94 109.33333333333333" fill="none" stroke="#334155" stroke-width="2"></path><path d="M 323.94 109.33333333333333 L 335.94 109.33333333333333 Q 339.94 109.33333333333333 339.94 105.33333333333333 L 339.94 92 Q 339.94 88 343.94 88 L 373.77666666666664 88" fill="none" stroke="#334155" stroke-width="2"></path><path d="M 381.77666666666664 66.66666666666666 L 227.3033333333333 66.66666666666666 M 276.4733333333333 66.66666666666666 L 130 66.66666666666666" fill="none" stroke="#334155" stroke-width="2"></path><path d="M 122 109.33333333333333 L 199.94 109.33333333333333" fill="none" stroke="transparent" stroke-width="0.001" marker-end="url(#cora-marker-arrow)"></path><path d="M 323.94 109.33333333333333 L 331.94 109.33333333333333 Q 339.94 109.33333333333333 339.94 101.33333333333333 L 339.94 96 Q 339.94 88 347.94 88 L 381.77666666666664 88" fill="none" stroke="transparent" stroke-width="0.001" marker-end="url(#cora-marker-arrow)"></path><path d="M 381.77666666666664 66.66666666666666 L 122 66.66666666666666" fill="none" stroke="transparent" stroke-width="0.001" marker-end="url(#cora-marker-arrow)"></path></g><g id="edge-bridge-masks"></g><g id="edge-bridges"></g><g id="edge-labels"><g><rect x="140" y="100.02333333333333" width="41.94" height="16.62" rx="8.31" ry="8.31" fill="#f8fafc"></rect><text x="160.97" y="112.21333333333332" text-anchor="middle" font-family="&#x27;Noto Sans&#x27;, sans-serif" font-size="10" font-weight="400" fill="#475569">request</text></g><g><rect x="320.6066666666667" y="78.69" width="43.17" height="16.62" rx="8.31" ry="8.31" fill="#f8fafc"></rect><text x="342.19166666666666" y="90.88" text-anchor="middle" font-family="&#x27;Noto Sans&#x27;, sans-serif" font-size="10" font-weight="400" fill="#475569">forward</text></g><g><rect x="227.3033333333333" y="57.356666666666655" width="49.17" height="16.62" rx="8.31" ry="8.31" fill="#f8fafc"></rect><text x="251.88833333333332" y="69.54666666666665" text-anchor="middle" font-family="&#x27;Noto Sans&#x27;, sans-serif" font-size="10" font-weight="400" fill="#475569">response</text></g></g></svg>