<svg xmlns="http://www.w3.org/2000/svg" viewBox="0 0 444.304920704511 132"><defs><filter id="cora-shadow-blur" x="-50%" y="-50%" width="200%" height="200%"><feGaussianBlur stdDeviation="1"></feGaussianBlur></filter><marker id="cora-marker-arrow" markerWidth="8" markerHeight="8" refX="7" refY="4" orient="auto" markerUnits="strokeWidth"><path d="M 0 0 L 8 4 L 0 8 z" fill="#37474F"></path></marker><marker id="cora-marker-circle" markerWidth="8" markerHeight="8" refX="4" refY="4" orient="auto" markerUnits="strokeWidth"><circle cx="4" cy="4" r="3" fill="none" stroke="#37474F" stroke-width="1.5"></circle></marker><marker id="cora-marker-filled-circle" markerWidth="8" markerHeight="8" refX="4" refY="4" orient="auto" markerUnits="strokeWidth"><circle cx="4" cy="4" r="3" fill="#37474F"></circle></marker></defs><rect x="0" y="0" width="444.304920704511" height="132" fill="#F4F9FB"></rect><g id="groups"></g><g id="nodes"><g><rect x="24" y="24" width="128" height="84" rx="4" ry="4" fill="#E3F2FD" stroke="#64A5D8" stroke-width="0.75"></rect><rect x="38" y="36" width="100" height="15.12" rx="4" fill="#e2e8f0"></rect><rect x="38" y="44" width="55.00000000000001" height="6" rx="3" fill="#94a3b8"></rect><rect x="38" y="59.12" width="80" height="5" rx="2.5" fill="#e2e8f0"></rect><rect x="38" y="71.12" width="62" height="5" rx="2.5" fill="#e2e8f0"></rect><text x="88" y="97.656" text-anchor="middle" font-family="&#x27;Noto Sans&#x27;, sans-serif" font-size="12" font-weight="600" fill="#1A1A1A">Client</text></g><g><g filter="url(#cora-shadow-blur)"><rect x="202.39412701892218" y="69.05199999999999" width="65.112" height="22.896" fill="#7050B8"></rect></g><rect x="201.89412701892218" y="68.55199999999999" width="65.112" height="22.896" fill="#C9B3FF" stroke="#9470DB" stroke-width="0.75"></rect><text x="234.45012701892216" y="83.104" text-anchor="middle" font-family="&#x27;Noto Sans&#x27;, sans-serif" font-size="8" font-weight="600" fill="#1A1A1A">Edge Proxy</text></g><g><rect x="308.304920704511" y="33.333333333333336" width="112" height="56" rx="4" ry="4" fill="#FFF0B3" stroke="#D4BE70" stroke-width="0.75"></rect><rect x="308.304920704511" y="33.333333333333336" width="112" height="17.92" rx="4" ry="4" fill="#D4BE70" opacity="0.35"></rect><circle cx="320.304920704511" cy="42.29333333333334" r="2" fill="#D4BE70"></circle><circle cx="328.304920704511" cy="42.29333333333334" r="2" fill="#D4BE70"></circle><text x="364.304920704511" y="75.33733333333333" text-anchor="middle" font-family="&#x27;Noto Sans&#x27;, sans-serif" font-size="13" font-weight="600" fill="#1A1A1A">Server</text></g></g><g id="edges"><path d="M 152 80 L 201.89412701892218 80" fill="none" stroke="#37474F" stroke-width="0.75" marker-end="url(#cora-marker-arrow)"></path><path d="M 267.00612701892214 80 L 279.0061270189222 80 L 279.0061270189222 70.66666666666666 L 308.304920704511 70.66666666666666" fill="none" stroke="#37474F" stroke-width="0.75" marker-end="url(#cora-marker-arrow)"></path><path d="M 308.304920704511 52 L 152 52" fill="none" stroke="#37474F" stroke-width="0.75" marker-end="url(#cora-marker-arrow)"></path></g><g id="edge-labels"><text x="174.78199999999998" y="81.328" text-anchor="middle" font-family="&#x27;Noto Sans&#x27;, sans-serif" font-size="6" font-weight="400" fill="#1A1A1A">request</text><text x="280.8237936855888" y="71.99466666666666" text-anchor="middle" font-family="&#x27;Noto Sans&#x27;, sans-serif" font-size="6" font-weight="400" fill="#1A1A1A">forward</text><text x="232.3175238617166" y="53.328" text-anchor="middle" font-family="&#x27;Noto Sans&#x27;, sans-serif" font-size="6" font-weight="400" fill="#1A1A1A">response</text></g></svg>