<svg xmlns="http://www.w3.org/2000/svg" viewBox="0 0 575.7715873711777 148"><defs><filter id="cora-shadow-blur" x="-50%" y="-50%" width="200%" height="200%"><feGaussianBlur stdDeviation="0"></feGaussianBlur></filter><marker id="cora-marker-arrow" markerWidth="8" markerHeight="8" refX="0" refY="4" orient="auto" markerUnits="userSpaceOnUse"><path d="M 0 0 L 8 4 L 0 8 z" fill="#334155"></path></marker><marker id="cora-marker-circle" markerWidth="8" markerHeight="8" refX="4" refY="4" orient="auto" markerUnits="userSpaceOnUse"><circle cx="4" cy="4" r="2.88" fill="none" stroke="#334155" stroke-width="1.5"></circle></marker><marker id="cora-marker-filled-circle" markerWidth="8" markerHeight="8" refX="4" refY="4" orient="auto" markerUnits="userSpaceOnUse"><circle cx="4" cy="4" r="2.88" fill="#334155"></circle></marker></defs><rect x="0" y="0" width="575.7715873711777" height="148" fill="#f8fafc"></rect><g id="groups"></g><g id="nodes"><g><rect x="24" y="24" width="144" height="100" rx="8" ry="8" fill="#bae6fd" stroke="#0ea5e9" stroke-width="1"></rect><rect x="38" y="36" width="116" height="18" rx="4" fill="#e2e8f0"></rect><rect x="38" y="44" width="63.800000000000004" height="6" rx="3" fill="#94a3b8"></rect><rect x="38" y="62" width="92.80000000000001" height="5" rx="2.5" fill="#e2e8f0"></rect><rect x="38" y="74" width="71.92" height="5" rx="2.5" fill="#e2e8f0"></rect><text x="96" y="106.656" text-anchor="middle" font-family="&#x27;Noto Sans&#x27;, sans-serif" font-size="12" font-weight="600" fill="#0f172a"><tspan x="96" dy="0">Client</tspan></text></g><g><rect x="254.27012701892218" y="74.49466666666666" width="92.668" height="32.344" rx="8" ry="8" fill="#ffffff" stroke="#cbd5e1" stroke-width="1"></rect><text x="300.6041270189222" y="95.32266666666666" text-anchor="middle" font-family="&#x27;Noto Sans&#x27;, sans-serif" font-size="12" font-weight="600" fill="#0f172a">Edge Proxy</text></g><g><rect x="423.7715873711777" y="34.666666666666664" width="128" height="68" rx="8" ry="8" fill="#a7f3d0" stroke="#10b981" stroke-width="1"></rect><rect x="423.7715873711777" y="34.666666666666664" width="128" height="20" rx="8" ry="8" fill="#10b981" opacity="0.35"></rect><circle cx="435.7715873711777" cy="44.666666666666664" r="2" fill="#10b981"></circle><circle cx="443.7715873711777" cy="44.666666666666664" r="2" fill="#10b981"></circle><text x="487.7715873711777" y="83.32266666666666" text-anchor="middle" font-family="&#x27;Noto Sans&#x27;, sans-serif" font-size="12" font-weight="600" fill="#0f172a"><tspan x="487.7715873711777" dy="0">Server</tspan></text></g></g><g id="edges"><path d="M 170 90.66666666666666 L 188 90.66666666666666 M 223.94 90.66666666666666 L 247.94 90.66666666666666" fill="none" stroke="#334155" stroke-width="2" marker-end="url(#cora-marker-arrow)"></path><path d="M 348.93812701892216 90.66666666666666 L 360.93812701892216 90.66666666666666 Q 364.93812701892216 90.66666666666666 364.93812701892216 86.66666666666666 L 364.93812701892216 84 Q 364.93812701892216 80 368.93812701892216 80 L 371.60479368558885 80 M 384.1081270189222 80 L 417.4414603522555 80" fill="none" stroke="#334155" stroke-width="2" marker-end="url(#cora-marker-arrow)"></path><path d="M 421.7715873711777 57.33333333333333 L 273.46585719505 57.33333333333333 M 322.63585719504994 57.33333333333333 L 174.33012701892218 57.33333333333333" fill="none" stroke="#334155" stroke-width="2" marker-end="url(#cora-marker-arrow)"></path></g><g id="edge-bridge-masks"></g><g id="edge-bridges"></g><g id="edge-labels"><g><rect x="188" y="81.35666666666665" width="41.94" height="16.62" rx="8.31" ry="8.31" fill="#f8fafc"></rect><text x="208.97" y="93.54666666666665" text-anchor="middle" font-family="&#x27;Noto Sans&#x27;, sans-serif" font-size="10" font-weight="400" fill="#475569">request</text></g><g><rect x="356.27146035225553" y="70.69" width="43.17" height="16.62" rx="8.31" ry="8.31" fill="#f8fafc"></rect><text x="377.8564603522555" y="82.88" text-anchor="middle" font-family="&#x27;Noto Sans&#x27;, sans-serif" font-size="10" font-weight="400" fill="#475569">forward</text></g><g><rect x="273.46585719505" y="48.023333333333326" width="49.17" height="16.62" rx="8.31" ry="8.31" fill="#f8fafc"></rect><text x="298.05085719504996" y="60.21333333333333" text-anchor="middle" font-family="&#x27;Noto Sans&#x27;, sans-serif" font-size="10" font-weight="400" fill="#475569">response</text></g></g></svg>