<svg xmlns="http://www.w3.org/2000/svg" viewBox="0 -9.786666666666674 1016.3199999999999 123.12"><defs><filter id="cora-shadow-blur" x="-50%" y="-50%" width="200%" height="200%"><feGaussianBlur stdDeviation="0"></feGaussianBlur></filter><marker id="cora-marker-arrow-start" markerWidth="8" markerHeight="8" refX="0" refY="4" orient="auto" markerUnits="userSpaceOnUse"><path d="M 8 0 L 0 4 L 8 8 z" fill="#334155"></path></marker><marker id="cora-marker-arrow-end" markerWidth="8" markerHeight="8" refX="8" refY="4" orient="auto" markerUnits="userSpaceOnUse"><path d="M 0 0 L 8 4 L 0 8 z" fill="#334155"></path></marker><marker id="cora-marker-circle" markerWidth="8" markerHeight="8" refX="4" refY="4" orient="auto" markerUnits="userSpaceOnUse"><circle cx="4" cy="4" r="2.88" fill="none" stroke="#334155" stroke-width="1.5"></circle></marker><marker id="cora-marker-filled-circle" markerWidth="8" markerHeight="8" refX="4" refY="4" orient="auto" markerUnits="userSpaceOnUse"><circle cx="4" cy="4" r="2.88" fill="#334155"></circle></marker><marker id="cora-marker-diamond" markerWidth="8" markerHeight="8" refX="4" refY="4" orient="auto" markerUnits="userSpaceOnUse"><path d="M 4 0 L 8 4 L 4 8 L 0 4 Z" fill="none" stroke="#334155" stroke-width="1.5"></path></marker><marker id="cora-marker-filled-diamond" markerWidth="8" markerHeight="8" refX="4" refY="4" orient="auto" markerUnits="userSpaceOnUse"><path d="M 4 0 L 8 4 L 4 8 L 0 4 Z" fill="#334155"></path></marker><marker id="cora-marker-square" markerWidth="8" markerHeight="8" refX="4" refY="4" orient="auto" markerUnits="userSpaceOnUse"><rect x="1.12" y="1.12" width="5.76" height="5.76" fill="none" stroke="#334155" stroke-width="1.5"></rect></marker><marker id="cora-marker-filled-square" markerWidth="8" markerHeight="8" refX="4" refY="4" orient="auto" markerUnits="userSpaceOnUse"><rect x="1.12" y="1.12" width="5.76" height="5.76" fill="#334155"></rect></marker></defs><rect x="0" y="-9.786666666666674" width="1016.3199999999999" height="123.12" fill="#f8fafc"></rect><g id="groups"></g><g id="nodes"><g><rect x="24" y="24" width="120" height="56" rx="8" ry="8" fill="#ffffff" stroke="#cbd5e1" stroke-width="1"></rect><text x="84" y="56.656" text-anchor="middle" font-family="&#x27;Noto Sans&#x27;, sans-serif" font-size="12" font-weight="600" fill="#0f172a"><tspan x="84" dy="0">Browser Client</tspan></text></g><g><rect x="235.94" y="33.33333333333333" width="120" height="56" rx="8" ry="8" fill="#ffffff" stroke="#cbd5e1" stroke-width="1"></rect><text x="295.94" y="65.98933333333333" text-anchor="middle" font-family="&#x27;Noto Sans&#x27;, sans-serif" font-size="12" font-weight="600" fill="#0f172a"><tspan x="295.94" dy="0">Edge Proxy</tspan></text></g><g><rect x="446.87" y="24" width="120" height="56" rx="8" ry="8" fill="#ffffff" stroke="#cbd5e1" stroke-width="1"></rect><text x="506.87" y="56.656" text-anchor="middle" font-family="&#x27;Noto Sans&#x27;, sans-serif" font-size="12" font-weight="600" fill="#0f172a"><tspan x="506.87" dy="0">API Server</tspan></text></g><g><rect x="671" y="24" width="120" height="56" rx="8" ry="8" fill="#ffffff" stroke="#cbd5e1" stroke-width="1"></rect><text x="731" y="56.656" text-anchor="middle" font-family="&#x27;Noto Sans&#x27;, sans-serif" font-size="12" font-weight="600" fill="#0f172a"><tspan x="731" dy="0">Async Worker</tspan></text></g><g><rect x="872.3199999999999" y="24" width="120" height="56" rx="8" ry="8" fill="#ffffff" stroke="#cbd5e1" stroke-width="1"></rect><text x="932.3199999999999" y="56.656" text-anchor="middle" font-family="&#x27;Noto Sans&#x27;, sans-serif" font-size="12" font-weight="600" fill="#0f172a"><tspan x="932.3199999999999" dy="0">Audit Log</tspan></text></g></g><g id="edges"><path d="M 146 61.33333333333333 L 157 61.33333333333333 M 214.94 61.33333333333333 L 225.94 61.33333333333333" fill="none" stroke="#334155" stroke-width="2"></path><path d="M 357.94 61.33333333333333 L 368.94000000000005 61.33333333333333 M 428.11 61.33333333333333 L 439.11 61.33333333333333" fill="none" stroke="#334155" stroke-width="2"></path><path d="M 576.13 52 L 587.13 52 M 650.7399999999999 52 L 661.74 52" fill="none" stroke="#334155" stroke-width="2"></path><path d="M 793 52 L 804 52 M 849.8199999999999 52 L 860.8199999999999 52" fill="none" stroke="#334155" stroke-width="2"></path><path d="M 439.11 42.666666666666664 L 377.94 42.666666666666664 L 377.94 22.023333333333326 L 328.02000000000004 22.023333333333326 M 262.8500000000001 22.023333333333326 L 166 22.023333333333326 L 166 42.666666666666664 L 154 42.666666666666664" fill="none" stroke="#334155" stroke-width="2"></path><path d="M 146 61.33333333333333 L 233.94 61.33333333333333" fill="none" stroke="transparent" stroke-width="0.001" marker-end="url(#cora-marker-arrow-end)"></path><path d="M 357.94 61.33333333333333 L 441.99 61.33333333333333" fill="none" stroke="transparent" stroke-width="0.001" marker-end="url(#cora-marker-filled-circle)"></path><path d="M 572.5 52 L 665.37 52" fill="none" stroke="transparent" stroke-width="0.001" marker-start="url(#cora-marker-circle)" marker-end="url(#cora-marker-square)"></path><path d="M 793 52 L 865.5699999999999 52" fill="none" stroke="transparent" stroke-width="0.001" marker-end="url(#cora-marker-diamond)"></path><path d="M 441.99 42.666666666666664 L 377.94 42.666666666666664 L 377.94 22.023333333333326 L 166 22.023333333333326 L 166 42.666666666666664 L 146 42.666666666666664" fill="none" stroke="transparent" stroke-width="0.001" marker-start="url(#cora-marker-filled-square)" marker-end="url(#cora-marker-arrow-end)"></path></g><g id="edge-bridge-masks"></g><g id="edge-bridges"></g><g id="edge-labels"><g><rect x="165" y="52.023333333333326" width="41.94" height="16.62" rx="8.31" ry="8.31" fill="#f8fafc"></rect><text x="185.97" y="64.21333333333332" text-anchor="middle" font-family="&#x27;Noto Sans&#x27;, sans-serif" font-size="10" font-weight="400" fill="#475569">request</text></g><g><rect x="376.94000000000005" y="52.023333333333326" width="43.17" height="16.62" rx="8.31" ry="8.31" fill="#f8fafc"></rect><text x="398.52500000000003" y="64.21333333333332" text-anchor="middle" font-family="&#x27;Noto Sans&#x27;, sans-serif" font-size="10" font-weight="400" fill="#475569">forward</text></g><g><rect x="595.13" y="42.69" width="47.61" height="16.62" rx="8.31" ry="8.31" fill="#f8fafc"></rect><text x="618.935" y="54.88" text-anchor="middle" font-family="&#x27;Noto Sans&#x27;, sans-serif" font-size="10" font-weight="400" fill="#475569">enqueue</text></g><g><rect x="812" y="42.69" width="29.82" height="16.62" rx="8.31" ry="8.31" fill="#f8fafc"></rect><text x="826.91" y="54.88" text-anchor="middle" font-family="&#x27;Noto Sans&#x27;, sans-serif" font-size="10" font-weight="400" fill="#475569">write</text></g><g><rect x="270.8500000000001" y="12.713333333333326" width="49.17" height="16.62" rx="8.31" ry="8.31" fill="#f8fafc"></rect><text x="295.43500000000006" y="24.903333333333325" text-anchor="middle" font-family="&#x27;Noto Sans&#x27;, sans-serif" font-size="10" font-weight="400" fill="#475569">response</text></g></g></svg>