<svg xmlns="http://www.w3.org/2000/svg" viewBox="0 0 358.4626666666667 407.24"><defs><filter id="cora-shadow-blur" x="-50%" y="-50%" width="200%" height="200%"><feGaussianBlur stdDeviation="0"></feGaussianBlur></filter><marker id="cora-marker-arrow" markerWidth="8" markerHeight="8" refX="8" refY="4" orient="auto-start-reverse" markerUnits="userSpaceOnUse"><path d="M 0 0 L 8 4 L 0 8 z" fill="#334155"></path></marker><marker id="cora-marker-circle" markerWidth="8" markerHeight="8" refX="4" refY="4" orient="auto-start-reverse" markerUnits="userSpaceOnUse"><circle cx="4" cy="4" r="2.88" fill="none" stroke="#334155" stroke-width="1.5"></circle></marker><marker id="cora-marker-filled-circle" markerWidth="8" markerHeight="8" refX="4" refY="4" orient="auto-start-reverse" markerUnits="userSpaceOnUse"><circle cx="4" cy="4" r="2.88" fill="#334155"></circle></marker><marker id="cora-marker-diamond" markerWidth="8" markerHeight="8" refX="4" refY="4" orient="auto-start-reverse" markerUnits="userSpaceOnUse"><path d="M 4 0 L 8 4 L 4 8 L 0 4 Z" fill="none" stroke="#334155" stroke-width="1.5"></path></marker><marker id="cora-marker-filled-diamond" markerWidth="8" markerHeight="8" refX="4" refY="4" orient="auto-start-reverse" markerUnits="userSpaceOnUse"><path d="M 4 0 L 8 4 L 4 8 L 0 4 Z" fill="#334155"></path></marker><marker id="cora-marker-square" markerWidth="8" markerHeight="8" refX="4" refY="4" orient="auto-start-reverse" markerUnits="userSpaceOnUse"><rect x="1.12" y="1.12" width="5.76" height="5.76" fill="none" stroke="#334155" stroke-width="1.5"></rect></marker><marker id="cora-marker-filled-square" markerWidth="8" markerHeight="8" refX="4" refY="4" orient="auto-start-reverse" markerUnits="userSpaceOnUse"><rect x="1.12" y="1.12" width="5.76" height="5.76" fill="#334155"></rect></marker></defs><rect x="0" y="0" width="358.4626666666667" height="407.24" fill="#f8fafc"></rect><g id="groups"></g><g id="nodes"><g><g transform="translate(60, 28.480000000000004) scale(4)"><path d="M5 23V1h14v22zm2-5v3h10v-3zm5 2.5q.425 0 .713-.288T13 19.5t-.288-.712T12 18.5t-.712.288T11 19.5t.288.713t.712.287M7 16h10V6H7zM7 4h10V3H7zm0 14v3zM7 4V3z" fill="#10b981"></path><rect x="7" y="6" width="10" height="10" fill="#a7f3d0"></rect></g><text x="108" y="144.56000000000003" text-anchor="middle" font-family="&#x27;Noto Sans&#x27;, sans-serif" font-size="12" font-weight="600" fill="#0f172a"><tspan x="108" dy="0">Application</tspan></text></g><g><rect x="24" y="211.62" width="120" height="56" rx="8" ry="8" fill="#ffffff" stroke="#cbd5e1" stroke-width="1"></rect><text x="84" y="243.70000000000002" text-anchor="middle" font-family="&#x27;Noto Sans&#x27;, sans-serif" font-size="12" font-weight="600" fill="#0f172a"><tspan x="84" dy="0">Redis</tspan></text></g><g><rect x="168" y="211.62" width="145.096" height="56" rx="8" ry="8" fill="#ffffff" stroke="#cbd5e1" stroke-width="1"></rect><text x="240.548" y="243.70000000000002" text-anchor="middle" font-family="&#x27;Noto Sans&#x27;, sans-serif" font-size="12" font-weight="600" fill="#0f172a"><tspan x="240.548" dy="0">PostgreSQL Primary</tspan></text></g><g><rect x="193.59066666666666" y="327.24" width="140.872" height="56" rx="8" ry="8" fill="#ffffff" stroke="#cbd5e1" stroke-width="1"></rect><text x="264.02666666666664" y="359.32" text-anchor="middle" font-family="&#x27;Noto Sans&#x27;, sans-serif" font-size="12" font-weight="600" fill="#0f172a"><tspan x="264.02666666666664" dy="0">PostgreSQL Replica</tspan></text></g></g><g id="edges"><path d="M 84 154 L 84 176 M 84 177.62 L 84 201.62" fill="none" stroke="#334155" stroke-width="2"></path><path d="M 108 154 L 108 176 Q 108 180 112 180 L 158.779 180 M 193.389 180 L 236.548 180 Q 240.548 180 240.548 184 L 240.548 201.62" fill="none" stroke="#334155" stroke-width="2"></path><path d="M 132 154 L 132 166 Q 132 170 136 170 L 298.90333333333336 170 M 319.096 170 Q 323.096 170 323.096 174 L 323.096 281.62 Q 323.096 285.62 319.096 285.62 L 291.50533333333334 285.62 Q 287.50533333333334 285.62 287.50533333333334 289.62 L 287.50533333333334 317.24" fill="none" stroke="#334155" stroke-width="2"></path><path d="M 240.548 269.62 L 240.548 291.62 M 240.548 293.24 L 240.548 317.24" fill="none" stroke="#334155" stroke-width="2"></path><path d="M 84 154 L 84 209.62" fill="none" stroke="transparent" stroke-width="0.001" marker-end="url(#cora-marker-arrow)"></path><path d="M 108 154 L 108 172 Q 108 180 116 180 L 232.548 180 Q 240.548 180 240.548 188 L 240.548 209.62" fill="none" stroke="transparent" stroke-width="0.001" marker-end="url(#cora-marker-arrow)"></path><path d="M 132 154 L 132 162 Q 132 170 140 170 L 315.096 170 Q 323.096 170 323.096 178 L 323.096 277.62 Q 323.096 285.62 315.096 285.62 L 295.50533333333334 285.62 Q 287.50533333333334 285.62 287.50533333333334 293.62 L 287.50533333333334 325.24" fill="none" stroke="transparent" stroke-width="0.001" marker-end="url(#cora-marker-arrow)"></path><path d="M 240.548 269.62 L 240.548 325.24" fill="none" stroke="transparent" stroke-width="0.001" marker-end="url(#cora-marker-arrow)"></path></g><g id="edge-bridge-masks"></g><g id="edge-bridges"></g><g id="edge-labels"><g><rect x="46.115" y="173.5" width="75.77" height="16.62" rx="8.31" ry="8.31" fill="#f8fafc"></rect><text x="84" y="185.21" text-anchor="middle" font-family="&#x27;Noto Sans&#x27;, sans-serif" font-size="10" font-weight="400" fill="#475569">session lookup</text></g><g><rect x="158.779" y="170.69" width="34.61" height="16.62" rx="8.31" ry="8.31" fill="#f8fafc"></rect><text x="176.084" y="182.4" text-anchor="middle" font-family="&#x27;Noto Sans&#x27;, sans-serif" font-size="10" font-weight="400" fill="#475569">writes</text></g><g><rect x="298.90333333333336" y="160.69" width="32.120000000000005" height="16.62" rx="8.31" ry="8.31" fill="#f8fafc"></rect><text x="314.96333333333337" y="172.4" text-anchor="middle" font-family="&#x27;Noto Sans&#x27;, sans-serif" font-size="10" font-weight="400" fill="#475569">reads</text></g><g><rect x="213.628" y="289.12" width="53.84" height="16.62" rx="8.31" ry="8.31" fill="#f8fafc"></rect><text x="240.548" y="300.83" text-anchor="middle" font-family="&#x27;Noto Sans&#x27;, sans-serif" font-size="10" font-weight="400" fill="#475569">streaming</text></g></g></svg>