<svg xmlns="http://www.w3.org/2000/svg" viewBox="0 0 358.4626666666667 343.24"><defs><filter id="cora-shadow-blur" x="-50%" y="-50%" width="200%" height="200%"><feGaussianBlur stdDeviation="0"></feGaussianBlur></filter><marker id="cora-marker-arrow" markerWidth="8" markerHeight="8" refX="8" refY="4" orient="auto-start-reverse" markerUnits="userSpaceOnUse"><path d="M 0 0 L 8 4 L 0 8 z" fill="#334155"></path></marker><marker id="cora-marker-circle" markerWidth="8" markerHeight="8" refX="4" refY="4" orient="auto-start-reverse" markerUnits="userSpaceOnUse"><circle cx="4" cy="4" r="2.88" fill="none" stroke="#334155" stroke-width="1.5"></circle></marker><marker id="cora-marker-filled-circle" markerWidth="8" markerHeight="8" refX="4" refY="4" orient="auto-start-reverse" markerUnits="userSpaceOnUse"><circle cx="4" cy="4" r="2.88" fill="#334155"></circle></marker><marker id="cora-marker-diamond" markerWidth="8" markerHeight="8" refX="4" refY="4" orient="auto-start-reverse" markerUnits="userSpaceOnUse"><path d="M 4 0 L 8 4 L 4 8 L 0 4 Z" fill="none" stroke="#334155" stroke-width="1.5"></path></marker><marker id="cora-marker-filled-diamond" markerWidth="8" markerHeight="8" refX="4" refY="4" orient="auto-start-reverse" markerUnits="userSpaceOnUse"><path d="M 4 0 L 8 4 L 4 8 L 0 4 Z" fill="#334155"></path></marker><marker id="cora-marker-square" markerWidth="8" markerHeight="8" refX="4" refY="4" orient="auto-start-reverse" markerUnits="userSpaceOnUse"><rect x="1.12" y="1.12" width="5.76" height="5.76" fill="none" stroke="#334155" stroke-width="1.5"></rect></marker><marker id="cora-marker-filled-square" markerWidth="8" markerHeight="8" refX="4" refY="4" orient="auto-start-reverse" markerUnits="userSpaceOnUse"><rect x="1.12" y="1.12" width="5.76" height="5.76" fill="#334155"></rect></marker></defs><rect x="0" y="0" width="358.4626666666667" height="343.24" fill="#f8fafc"></rect><g id="groups"></g><g id="nodes"><g><g transform="translate(80.17101249999999, 21.83365) scale(2.282665625)"><rect x="6" y="1.5" width="12" height="21" rx="2.25" fill="#ffffff"></rect><path d="M10.5 1.5H8.25A2.25 2.25 0 0 0 6 3.75v16.5a2.25 2.25 0 0 0 2.25 2.25h7.5A2.25 2.25 0 0 0 18 20.25V3.75A2.25 2.25 0 0 0 15.75 1.5H13.5M10.5 1.5H13.5M10.5 1.5V3H13.5V1.5M12 21.75V21.75" fill="none" stroke="#000000" stroke-width="1.5" stroke-linecap="round" stroke-linejoin="round"></path></g><text x="107.56299999999999" y="88.121621875" text-anchor="middle" font-family="&#x27;Noto Sans&#x27;, sans-serif" font-size="12" font-weight="600" fill="#0f172a"><tspan x="107.56299999999999" dy="0">Application</tspan></text></g><g><rect x="24" y="147.62" width="120" height="56" rx="8" ry="8" fill="#ffffff" stroke="#cbd5e1" stroke-width="1"></rect><text x="84" y="180.276" text-anchor="middle" font-family="&#x27;Noto Sans&#x27;, sans-serif" font-size="12" font-weight="600" fill="#0f172a"><tspan x="84" dy="0">Redis</tspan></text></g><g><rect x="168" y="147.62" width="145.096" height="56" rx="8" ry="8" fill="#ffffff" stroke="#cbd5e1" stroke-width="1"></rect><text x="240.548" y="180.276" text-anchor="middle" font-family="&#x27;Noto Sans&#x27;, sans-serif" font-size="12" font-weight="600" fill="#0f172a"><tspan x="240.548" dy="0">PostgreSQL Primary</tspan></text></g><g><rect x="193.59066666666666" y="263.24" width="140.872" height="56" rx="8" ry="8" fill="#ffffff" stroke="#cbd5e1" stroke-width="1"></rect><text x="264.02666666666664" y="295.896" text-anchor="middle" font-family="&#x27;Noto Sans&#x27;, sans-serif" font-size="12" font-weight="600" fill="#0f172a"><tspan x="264.02666666666664" dy="0">PostgreSQL Replica</tspan></text></g></g><g id="edges"><path d="M 84 90 L 84 112 M 84 113.62 L 84 137.62" fill="none" stroke="#334155" stroke-width="2"></path><path d="M 107.56299999999999 90 L 107.56299999999999 112 Q 107.56299999999999 116 111.56299999999999 116 L 158.5605 116 M 193.1705 116 L 236.548 116 Q 240.548 116 240.548 120 L 240.548 137.62" fill="none" stroke="#334155" stroke-width="2"></path><path d="M 131.12599999999998 90 L 131.12599999999998 102 Q 131.12599999999998 106 135.12599999999998 106 L 298.46633333333335 106 M 319.096 106 Q 323.096 106 323.096 110 L 323.096 217.62 Q 323.096 221.62 319.096 221.62 L 291.50533333333334 221.62 Q 287.50533333333334 221.62 287.50533333333334 225.62 L 287.50533333333334 253.24" fill="none" stroke="#334155" stroke-width="2"></path><path d="M 240.548 205.62 L 240.548 227.62 M 240.548 229.24 L 240.548 253.24" fill="none" stroke="#334155" stroke-width="2"></path><path d="M 84 90 L 84 145.62" fill="none" stroke="transparent" stroke-width="0.001" marker-end="url(#cora-marker-arrow)"></path><path d="M 107.56299999999999 90 L 107.56299999999999 108 Q 107.56299999999999 116 115.56299999999999 116 L 232.548 116 Q 240.548 116 240.548 124 L 240.548 145.62" fill="none" stroke="transparent" stroke-width="0.001" marker-end="url(#cora-marker-arrow)"></path><path d="M 131.12599999999998 90 L 131.12599999999998 98 Q 131.12599999999998 106 139.12599999999998 106 L 315.096 106 Q 323.096 106 323.096 114 L 323.096 213.62 Q 323.096 221.62 315.096 221.62 L 295.50533333333334 221.62 Q 287.50533333333334 221.62 287.50533333333334 229.62 L 287.50533333333334 261.24" fill="none" stroke="transparent" stroke-width="0.001" marker-end="url(#cora-marker-arrow)"></path><path d="M 240.548 205.62 L 240.548 261.24" fill="none" stroke="transparent" stroke-width="0.001" marker-end="url(#cora-marker-arrow)"></path></g><g id="edge-bridge-masks"></g><g id="edge-bridges"></g><g id="edge-labels"><g><rect x="46.115" y="109.5" width="75.77" height="16.62" rx="8.31" ry="8.31" fill="#f8fafc"></rect><text x="84" y="121.69" text-anchor="middle" font-family="&#x27;Noto Sans&#x27;, sans-serif" font-size="10" font-weight="400" fill="#475569">session lookup</text></g><g><rect x="158.5605" y="106.69" width="34.61" height="16.62" rx="8.31" ry="8.31" fill="#f8fafc"></rect><text x="175.8655" y="118.88" text-anchor="middle" font-family="&#x27;Noto Sans&#x27;, sans-serif" font-size="10" font-weight="400" fill="#475569">writes</text></g><g><rect x="298.46633333333335" y="96.69" width="32.120000000000005" height="16.62" rx="8.31" ry="8.31" fill="#f8fafc"></rect><text x="314.52633333333335" y="108.88" text-anchor="middle" font-family="&#x27;Noto Sans&#x27;, sans-serif" font-size="10" font-weight="400" fill="#475569">reads</text></g><g><rect x="213.628" y="225.12" width="53.84" height="16.62" rx="8.31" ry="8.31" fill="#f8fafc"></rect><text x="240.548" y="237.31" text-anchor="middle" font-family="&#x27;Noto Sans&#x27;, sans-serif" font-size="10" font-weight="400" fill="#475569">streaming</text></g></g></svg>