<svg xmlns="http://www.w3.org/2000/svg" viewBox="0 0 898.968 286.66666666666663"><defs><filter id="cora-shadow-blur" x="-50%" y="-50%" width="200%" height="200%"><feGaussianBlur stdDeviation="0"></feGaussianBlur></filter><marker id="cora-marker-arrow-start" markerWidth="8" markerHeight="8" refX="0" refY="4" orient="auto" markerUnits="userSpaceOnUse"><path d="M 8 0 L 0 4 L 8 8 z" fill="#334155"></path></marker><marker id="cora-marker-arrow-end" markerWidth="8" markerHeight="8" refX="8" refY="4" orient="auto" markerUnits="userSpaceOnUse"><path d="M 0 0 L 8 4 L 0 8 z" fill="#334155"></path></marker><marker id="cora-marker-circle" markerWidth="8" markerHeight="8" refX="4" refY="4" orient="auto" markerUnits="userSpaceOnUse"><circle cx="4" cy="4" r="2.88" fill="none" stroke="#334155" stroke-width="1.5"></circle></marker><marker id="cora-marker-filled-circle" markerWidth="8" markerHeight="8" refX="4" refY="4" orient="auto" markerUnits="userSpaceOnUse"><circle cx="4" cy="4" r="2.88" fill="#334155"></circle></marker><marker id="cora-marker-diamond" markerWidth="8" markerHeight="8" refX="4" refY="4" orient="auto" markerUnits="userSpaceOnUse"><path d="M 4 0 L 8 4 L 4 8 L 0 4 Z" fill="none" stroke="#334155" stroke-width="1.5"></path></marker><marker id="cora-marker-filled-diamond" markerWidth="8" markerHeight="8" refX="4" refY="4" orient="auto" markerUnits="userSpaceOnUse"><path d="M 4 0 L 8 4 L 4 8 L 0 4 Z" fill="#334155"></path></marker><marker id="cora-marker-square" markerWidth="8" markerHeight="8" refX="4" refY="4" orient="auto" markerUnits="userSpaceOnUse"><rect x="1.12" y="1.12" width="5.76" height="5.76" fill="none" stroke="#334155" stroke-width="1.5"></rect></marker><marker id="cora-marker-filled-square" markerWidth="8" markerHeight="8" refX="4" refY="4" orient="auto" markerUnits="userSpaceOnUse"><rect x="1.12" y="1.12" width="5.76" height="5.76" fill="#334155"></rect></marker></defs><rect x="0" y="0" width="898.968" height="286.66666666666663" fill="#f8fafc"></rect><g id="groups"></g><g id="nodes"><g><rect x="24" y="38" width="120" height="56" rx="8" ry="8" fill="#ffffff" stroke="#cbd5e1" stroke-width="1"></rect><text x="84" y="70.656" text-anchor="middle" font-family="&#x27;Noto Sans&#x27;, sans-serif" font-size="12" font-weight="600" fill="#1e293b"><tspan x="84" dy="0">Application</tspan></text></g><g><rect x="253.02999999999997" y="24" width="120" height="56" rx="8" ry="8" fill="#ffffff" stroke="#cbd5e1" stroke-width="1"></rect><text x="313.03" y="56.656" text-anchor="middle" font-family="&#x27;Noto Sans&#x27;, sans-serif" font-size="12" font-weight="600" fill="#1e293b"><tspan x="313.03" dy="0">Redis</tspan></text></g><g><rect x="253.02999999999997" y="120" width="145.096" height="56" rx="8" ry="8" fill="#ffffff" stroke="#cbd5e1" stroke-width="1"></rect><text x="325.578" y="152.656" text-anchor="middle" font-family="&#x27;Noto Sans&#x27;, sans-serif" font-size="12" font-weight="600" fill="#1e293b"><tspan x="325.578" dy="0">PostgreSQL Primary</tspan></text></g><g><rect x="524.4459999999999" y="206.66666666666666" width="140.872" height="56" rx="8" ry="8" fill="#ffffff" stroke="#cbd5e1" stroke-width="1"></rect><text x="594.882" y="239.32266666666666" text-anchor="middle" font-family="&#x27;Noto Sans&#x27;, sans-serif" font-size="12" font-weight="600" fill="#1e293b"><tspan x="594.882" dy="0">PostgreSQL Replica</tspan></text></g><g><rect x="754.968" y="206.66666666666666" width="120" height="56" rx="8" ry="8" fill="#ffffff" stroke="#cbd5e1" stroke-width="1"></rect><text x="814.968" y="239.32266666666666" text-anchor="middle" font-family="&#x27;Noto Sans&#x27;, sans-serif" font-size="12" font-weight="600" fill="#1e293b"><tspan x="814.968" dy="0">Analytics View</tspan></text></g><g><rect x="524.4459999999999" y="110.66666666666666" width="121.504" height="56" rx="8" ry="8" fill="#ffffff" stroke="#cbd5e1" stroke-width="1"></rect><text x="585.1979999999999" y="143.32266666666666" text-anchor="middle" font-family="&#x27;Noto Sans&#x27;, sans-serif" font-size="12" font-weight="600" fill="#1e293b"><tspan x="585.1979999999999" dy="0">Dataset Catalog</tspan></text></g></g><g id="edges"><path d="M 146 52 L 157 52 M 232.76999999999998 52 L 243.76999999999998 52" fill="none" stroke="#334155" stroke-width="2"></path><path d="M 146 66 L 188 66 L 188 107.70499999999998 M 188 127.32499999999999 L 188 148 L 245.26999999999998 148" fill="none" stroke="#334155" stroke-width="2"></path><path d="M 146 80 L 166 80 L 166 225.33333333333331 L 245.49633333333327 225.33333333333331 M 277.6163333333333 225.33333333333331 L 415.126 225.33333333333331 L 425.126 225.33333333333331 L 514.4459999999999 225.33333333333331" fill="none" stroke="#334155" stroke-width="2"></path><path d="M 407.38599999999997 157.33333333333331 L 420.126 157.33333333333331 L 420.126 213.38 M 420.126 233 L 420.126 244 L 515.1859999999999 244" fill="none" stroke="#334155" stroke-width="2"></path><path d="M 667.318 234.66666666666666 L 678.318 234.66666666666666 M 732.4680000000001 234.66666666666666 L 743.468 234.66666666666666" fill="none" stroke="#334155" stroke-width="2"></path><path d="M 408.126 138.66666666666666 L 419.126 138.66666666666666 M 503.4459999999999 138.66666666666666 L 514.4459999999999 138.66666666666666" fill="none" stroke="#334155" stroke-width="2"></path><path d="M 146 52 L 247.39999999999998 52" fill="none" stroke="transparent" stroke-width="0.001" marker-end="url(#cora-marker-circle)"></path><path d="M 146 66 L 188 66 L 188 148 L 248.14999999999998 148" fill="none" stroke="transparent" stroke-width="0.001" marker-end="url(#cora-marker-filled-circle)"></path><path d="M 146 80 L 166 80 L 166 225.33333333333331 L 522.4459999999999 225.33333333333331" fill="none" stroke="transparent" stroke-width="0.001" marker-end="url(#cora-marker-arrow-end)"></path><path d="M 403.756 157.33333333333331 L 420.126 157.33333333333331 L 420.126 244 L 518.8159999999999 244" fill="none" stroke="transparent" stroke-width="0.001" marker-start="url(#cora-marker-square)" marker-end="url(#cora-marker-square)"></path><path d="M 667.318 234.66666666666666 L 748.218 234.66666666666666" fill="none" stroke="transparent" stroke-width="0.001" marker-end="url(#cora-marker-diamond)"></path><path d="M 404.126 138.66666666666666 L 522.4459999999999 138.66666666666666" fill="none" stroke="transparent" stroke-width="0.001" marker-start="url(#cora-marker-filled-diamond)" marker-end="url(#cora-marker-arrow-end)"></path></g><g id="edge-bridge-masks"><path d="M 415.126 225.33333333333331 L 425.126 225.33333333333331" fill="none" stroke="#f8fafc" stroke-width="5"></path></g><g id="edge-bridges"><path d="M 415.126 225.33333333333331 L 425.126 225.33333333333331" fill="none" stroke="#334155" stroke-width="2"></path></g><g id="edge-labels"><g><rect x="157" y="42.69" width="75.77" height="16.62" rx="8.31" ry="8.31" fill="#f8fafc"></rect><text x="194.885" y="54.88" text-anchor="middle" font-family="&#x27;Noto Sans&#x27;, sans-serif" font-size="10" font-weight="400" fill="#475569">session lookup</text></g><g><rect x="170.695" y="109.20499999999998" width="34.61" height="16.62" rx="8.31" ry="8.31" fill="#f8fafc"></rect><text x="188" y="121.39499999999998" text-anchor="middle" font-family="&#x27;Noto Sans&#x27;, sans-serif" font-size="10" font-weight="400" fill="#475569">writes</text></g><g><rect x="245.49633333333327" y="216.0233333333333" width="32.120000000000005" height="16.62" rx="8.31" ry="8.31" fill="#f8fafc"></rect><text x="261.55633333333327" y="228.2133333333333" text-anchor="middle" font-family="&#x27;Noto Sans&#x27;, sans-serif" font-size="10" font-weight="400" fill="#475569">reads</text></g><g><rect x="393.20599999999996" y="214.88" width="53.84" height="16.62" rx="8.31" ry="8.31" fill="#f8fafc"></rect><text x="420.126" y="227.07" text-anchor="middle" font-family="&#x27;Noto Sans&#x27;, sans-serif" font-size="10" font-weight="400" fill="#475569">streaming</text></g><g><rect x="678.318" y="225.35666666666665" width="54.15" height="16.62" rx="8.31" ry="8.31" fill="#f8fafc"></rect><text x="705.393" y="237.54666666666665" text-anchor="middle" font-family="&#x27;Noto Sans&#x27;, sans-serif" font-size="10" font-weight="400" fill="#475569">snapshots</text></g><g><rect x="419.126" y="129.35666666666665" width="84.32" height="16.62" rx="8.31" ry="8.31" fill="#f8fafc"></rect><text x="461.28599999999994" y="141.54666666666665" text-anchor="middle" font-family="&#x27;Noto Sans&#x27;, sans-serif" font-size="10" font-weight="400" fill="#475569">schema changes</text></g></g></svg>