<svg xmlns="http://www.w3.org/2000/svg" viewBox="-22.272 0 137.384 155.27220323027552"><defs><filter id="cora-shadow-blur" x="-50%" y="-50%" width="200%" height="200%"><feGaussianBlur stdDeviation="2"></feGaussianBlur></filter></defs><rect x="-22.272" y="0" width="137.384" height="155.27220323027552" fill="#F4F9FB"></rect><g id="groups"></g><g id="nodes"><g><g filter="url(#cora-shadow-blur)"><rect x="25.471999999999994" y="25" width="66.168" height="22.896" rx="8" ry="8" fill="#2888CC"></rect></g><rect x="24.471999999999994" y="24" width="66.168" height="22.896" rx="8" ry="8" fill="#80CFFF" stroke="#3DAAF0" stroke-width="0.75"></rect><text x="57.556" y="38.552" text-anchor="middle" font-family="&#x27;Noto Sans&#x27;, sans-serif" font-size="8" font-weight="600" fill="#1A1A1A">Application</text></g><g><g filter="url(#cora-shadow-blur)"><rect x="25" y="111.66580323027551" width="67.112" height="18.3168" fill="#289898"></rect><ellipse cx="58.556" cy="111.66580323027551" rx="33.556" ry="2.2896" fill="#289898"></ellipse><ellipse cx="58.556" cy="129.98260323027552" rx="33.556" ry="2.2896" fill="#289898"></ellipse></g><rect x="24" y="110.66580323027551" width="67.112" height="18.3168" fill="#80E0E0" stroke="#40B8B8" stroke-width="0.75"></rect><ellipse cx="57.556" cy="110.66580323027551" rx="33.556" ry="2.2896" fill="#80E0E0" stroke="#40B8B8" stroke-width="0.75"></ellipse><ellipse cx="57.556" cy="128.98260323027552" rx="33.556" ry="2.2896" fill="#80E0E0" stroke="#40B8B8" stroke-width="0.75"></ellipse><text x="57.556" y="122.92820323027551" text-anchor="middle" font-family="&#x27;Noto Sans&#x27;, sans-serif" font-size="8" font-weight="600" fill="#1A1A1A">PostgreSQL</text></g></g><g id="edges"><g><path d="M 57.556 48.896 L 57.556 67.086 M 57.556 81.258 L 57.556 99.448" fill="none" stroke="#37474F" stroke-width="0.75"></path><polygon points="57.556,106.37620323027551 53.556,99.448 61.556,99.448" fill="#37474F"></polygon></g></g><g id="edge-labels"><text x="32.28" y="76.5" text-anchor="end" font-family="&#x27;Noto Sans&#x27;, sans-serif" font-size="6" font-weight="400" fill="#1A1A1A">FK users.id</text></g></svg>