<svg xmlns="http://www.w3.org/2000/svg" viewBox="0 0 328 523.38"><defs><filter id="cora-shadow-blur" x="-50%" y="-50%" width="200%" height="200%"><feGaussianBlur stdDeviation="0"></feGaussianBlur></filter><marker id="cora-marker-arrow-start" markerWidth="8" markerHeight="8" refX="0" refY="4" orient="auto" markerUnits="userSpaceOnUse"><path d="M 8 0 L 0 4 L 8 8 z" fill="#334155"></path></marker><marker id="cora-marker-arrow-end" markerWidth="8" markerHeight="8" refX="8" refY="4" orient="auto" markerUnits="userSpaceOnUse"><path d="M 0 0 L 8 4 L 0 8 z" fill="#334155"></path></marker><marker id="cora-marker-circle" markerWidth="8" markerHeight="8" refX="4" refY="4" orient="auto" markerUnits="userSpaceOnUse"><circle cx="4" cy="4" r="2.88" fill="none" stroke="#334155" stroke-width="1.5"></circle></marker><marker id="cora-marker-filled-circle" markerWidth="8" markerHeight="8" refX="4" refY="4" orient="auto" markerUnits="userSpaceOnUse"><circle cx="4" cy="4" r="2.88" fill="#334155"></circle></marker><marker id="cora-marker-diamond" markerWidth="8" markerHeight="8" refX="4" refY="4" orient="auto" markerUnits="userSpaceOnUse"><path d="M 4 0 L 8 4 L 4 8 L 0 4 Z" fill="none" stroke="#334155" stroke-width="1.5"></path></marker><marker id="cora-marker-filled-diamond" markerWidth="8" markerHeight="8" refX="4" refY="4" orient="auto" markerUnits="userSpaceOnUse"><path d="M 4 0 L 8 4 L 4 8 L 0 4 Z" fill="#334155"></path></marker><marker id="cora-marker-square" markerWidth="8" markerHeight="8" refX="4" refY="4" orient="auto" markerUnits="userSpaceOnUse"><rect x="1.12" y="1.12" width="5.76" height="5.76" fill="none" stroke="#334155" stroke-width="1.5"></rect></marker><marker id="cora-marker-filled-square" markerWidth="8" markerHeight="8" refX="4" refY="4" orient="auto" markerUnits="userSpaceOnUse"><rect x="1.12" y="1.12" width="5.76" height="5.76" fill="#334155"></rect></marker></defs><rect x="0" y="0" width="328" height="523.38" fill="#f8fafc"></rect><g id="groups"></g><g id="nodes"><g><rect x="24" y="24" width="120" height="56" rx="8" ry="8" fill="#ffffff" stroke="#cbd5e1" stroke-width="1"></rect><text x="84" y="56.656" text-anchor="middle" font-family="&#x27;Noto Sans&#x27;, sans-serif" font-size="12" font-weight="600" fill="#1e293b"><tspan x="84" dy="0">Start</tspan></text></g><g><rect x="24" y="128" width="120" height="56" rx="8" ry="8" fill="#ffffff" stroke="#cbd5e1" stroke-width="1"></rect><text x="84" y="160.656" text-anchor="middle" font-family="&#x27;Noto Sans&#x27;, sans-serif" font-size="12" font-weight="600" fill="#1e293b"><tspan x="84" dy="0">Load Config</tspan></text></g><g><rect x="164" y="232" width="120" height="56" rx="8" ry="8" fill="#ffffff" stroke="#cbd5e1" stroke-width="1"></rect><text x="224" y="264.656" text-anchor="middle" font-family="&#x27;Noto Sans&#x27;, sans-serif" font-size="12" font-weight="600" fill="#1e293b"><tspan x="224" dy="0">Valid?</tspan></text></g><g><rect x="184" y="339.38" width="120" height="56" rx="8" ry="8" fill="#ffffff" stroke="#cbd5e1" stroke-width="1"></rect><text x="244" y="372.036" text-anchor="middle" font-family="&#x27;Noto Sans&#x27;, sans-serif" font-size="12" font-weight="600" fill="#1e293b"><tspan x="244" dy="0">Generate Plan</tspan></text></g><g><rect x="24" y="339.38" width="120" height="56" rx="8" ry="8" fill="#ffffff" stroke="#cbd5e1" stroke-width="1"></rect><text x="84" y="372.036" text-anchor="middle" font-family="&#x27;Noto Sans&#x27;, sans-serif" font-size="12" font-weight="600" fill="#1e293b"><tspan x="84" dy="0">Reject</tspan></text></g><g><rect x="184" y="443.38" width="120" height="56" rx="8" ry="8" fill="#ffffff" stroke="#cbd5e1" stroke-width="1"></rect><text x="244" y="476.036" text-anchor="middle" font-family="&#x27;Noto Sans&#x27;, sans-serif" font-size="12" font-weight="600" fill="#1e293b"><tspan x="244" dy="0">Done</tspan></text></g></g><g id="edges"><path d="M 84 87.75999999999999 L 84 118" fill="none" stroke="#334155" stroke-width="2"></path><path d="M 104 186 L 104 206 L 224 206 L 224 222" fill="none" stroke="#334155" stroke-width="2"></path><path d="M 244 290 L 244 301 M 244 320.62 L 244 331.62" fill="none" stroke="#334155" stroke-width="2"></path><path d="M 204 290 L 204 310 L 159.425 310 M 141.195 310 L 104 310 L 104 327.88" fill="none" stroke="#334155" stroke-width="2"></path><path d="M 244 397.38 L 244 435.62" fill="none" stroke="#334155" stroke-width="2"></path><path d="M 64 330.12 L 64 271.5 M 64 251.88 L 64 194" fill="none" stroke="#334155" stroke-width="2"></path><path d="M 84 84.88 L 84 126" fill="none" stroke="transparent" stroke-width="0.001" marker-start="url(#cora-marker-filled-circle)" marker-end="url(#cora-marker-arrow-end)"></path><path d="M 104 186 L 104 206 L 224 206 L 224 230" fill="none" stroke="transparent" stroke-width="0.001" marker-end="url(#cora-marker-arrow-end)"></path><path d="M 244 290 L 244 334.5" fill="none" stroke="transparent" stroke-width="0.001" marker-end="url(#cora-marker-filled-circle)"></path><path d="M 204 290 L 204 310 L 104 310 L 104 332.63" fill="none" stroke="transparent" stroke-width="0.001" marker-end="url(#cora-marker-diamond)"></path><path d="M 244 397.38 L 244 438.5" fill="none" stroke="transparent" stroke-width="0.001" marker-end="url(#cora-marker-filled-square)"></path><path d="M 64 333.75 L 64 186" fill="none" stroke="transparent" stroke-width="0.001" marker-start="url(#cora-marker-circle)" marker-end="url(#cora-marker-arrow-end)"></path></g><g id="edge-bridge-masks"></g><g id="edge-bridges"></g><g id="edge-labels"><g><rect x="233.235" y="302.5" width="21.53" height="16.62" rx="8.31" ry="8.31" fill="#f8fafc"></rect><text x="244" y="314.69" text-anchor="middle" font-family="&#x27;Noto Sans&#x27;, sans-serif" font-size="10" font-weight="400" fill="#475569">yes</text></g><g><rect x="141.195" y="300.69" width="18.23" height="16.62" rx="8.31" ry="8.31" fill="#f8fafc"></rect><text x="150.31" y="312.88" text-anchor="middle" font-family="&#x27;Noto Sans&#x27;, sans-serif" font-size="10" font-weight="400" fill="#475569">no</text></g><g><rect x="49.795" y="253.38" width="28.41" height="16.62" rx="8.31" ry="8.31" fill="#f8fafc"></rect><text x="64" y="265.57" text-anchor="middle" font-family="&#x27;Noto Sans&#x27;, sans-serif" font-size="10" font-weight="400" fill="#475569">retry</text></g></g></svg>