<svg xmlns="http://www.w3.org/2000/svg" viewBox="0 0 344 522"><defs><filter id="cora-shadow-blur" x="-50%" y="-50%" width="200%" height="200%"><feGaussianBlur stdDeviation="0"></feGaussianBlur></filter><marker id="cora-marker-arrow-start" markerWidth="8" markerHeight="8" refX="0" refY="4" orient="auto" markerUnits="userSpaceOnUse"><path d="M 8 0 L 0 4 L 8 8 z" fill="#94a3b899"></path></marker><marker id="cora-marker-arrow-end" markerWidth="8" markerHeight="8" refX="8" refY="4" orient="auto" markerUnits="userSpaceOnUse"><path d="M 0 0 L 8 4 L 0 8 z" fill="#94a3b899"></path></marker><marker id="cora-marker-circle" markerWidth="8" markerHeight="8" refX="4" refY="4" orient="auto" markerUnits="userSpaceOnUse"><circle cx="4" cy="4" r="2.88" fill="none" stroke="#94a3b899" stroke-width="1.5"></circle></marker><marker id="cora-marker-filled-circle" markerWidth="8" markerHeight="8" refX="4" refY="4" orient="auto" markerUnits="userSpaceOnUse"><circle cx="4" cy="4" r="2.88" fill="#94a3b899"></circle></marker><marker id="cora-marker-diamond" markerWidth="8" markerHeight="8" refX="4" refY="4" orient="auto" markerUnits="userSpaceOnUse"><path d="M 4 0 L 8 4 L 4 8 L 0 4 Z" fill="none" stroke="#94a3b899" stroke-width="1.5"></path></marker><marker id="cora-marker-filled-diamond" markerWidth="8" markerHeight="8" refX="4" refY="4" orient="auto" markerUnits="userSpaceOnUse"><path d="M 4 0 L 8 4 L 4 8 L 0 4 Z" fill="#94a3b899"></path></marker><marker id="cora-marker-square" markerWidth="8" markerHeight="8" refX="4" refY="4" orient="auto" markerUnits="userSpaceOnUse"><rect x="1.12" y="1.12" width="5.76" height="5.76" fill="none" stroke="#94a3b899" stroke-width="1.5"></rect></marker><marker id="cora-marker-filled-square" markerWidth="8" markerHeight="8" refX="4" refY="4" orient="auto" markerUnits="userSpaceOnUse"><rect x="1.12" y="1.12" width="5.76" height="5.76" fill="#94a3b899"></rect></marker></defs><rect x="0" y="0" width="344" height="522" fill="#0f172a"></rect><g id="groups"></g><g id="nodes"><g><rect x="24" y="24" width="120" height="56" rx="8" ry="8" fill="#38bdf866" stroke="#38bdf866" stroke-width="1"></rect><text x="84" y="56.2" text-anchor="middle" font-family="&#x27;Source Sans 3&#x27;, sans-serif" font-size="12" font-weight="600" fill="#f1f5f9"><tspan x="84" dy="0">Start</tspan></text></g><g><rect x="24" y="128" width="120" height="56" rx="8" ry="8" fill="#38bdf866" stroke="#38bdf866" stroke-width="1"></rect><text x="84" y="160.2" text-anchor="middle" font-family="&#x27;Source Sans 3&#x27;, sans-serif" font-size="12" font-weight="600" fill="#f1f5f9"><tspan x="84" dy="0">Load Config</tspan></text></g><g><rect x="200" y="128" width="120" height="56" rx="8" ry="8" fill="#38bdf866" stroke="#38bdf866" stroke-width="1"></rect><text x="260" y="160.2" text-anchor="middle" font-family="&#x27;Source Sans 3&#x27;, sans-serif" font-size="12" font-weight="600" fill="#f1f5f9"><tspan x="260" dy="0">Valid?</tspan></text></g><g><rect x="184" y="338" width="125" height="56" rx="8" ry="8" fill="#38bdf866" stroke="#38bdf866" stroke-width="1"></rect><text x="246.5" y="370.2" text-anchor="middle" font-family="&#x27;Source Sans 3&#x27;, sans-serif" font-size="12" font-weight="600" fill="#f1f5f9"><tspan x="246.5" dy="0">Generate Plan</tspan></text></g><g><rect x="24" y="338" width="120" height="56" rx="8" ry="8" fill="#38bdf866" stroke="#38bdf866" stroke-width="1"></rect><text x="84" y="370.2" text-anchor="middle" font-family="&#x27;Source Sans 3&#x27;, sans-serif" font-size="12" font-weight="600" fill="#f1f5f9"><tspan x="84" dy="0">Reject</tspan></text></g><g><rect x="186" y="442" width="120" height="56" rx="8" ry="8" fill="#38bdf866" stroke="#38bdf866" stroke-width="1"></rect><text x="246" y="474.2" text-anchor="middle" font-family="&#x27;Source Sans 3&#x27;, sans-serif" font-size="12" font-weight="600" fill="#f1f5f9"><tspan x="246" dy="0">Done</tspan></text></g></g><g id="edges"><path d="M 84 87.75999999999999 L 84 118" fill="none" stroke="#94a3b899" stroke-width="1.5"></path><path d="M 146 156 L 190 156" fill="none" stroke="#94a3b899" stroke-width="1.5"></path><path d="M 280 186 L 280 213.5 M 280 233.5 L 280 261 L 246.5 261 L 246.5 330.24" fill="none" stroke="#94a3b899" stroke-width="1.5"></path><path d="M 240 186 L 240 261 L 181.4 261 M 162.6 261 L 104 261 L 104 326.5" fill="none" stroke="#94a3b899" stroke-width="1.5"></path><path d="M 246.25 396 L 246.25 434.24" fill="none" stroke="#94a3b899" stroke-width="1.5"></path><path d="M 64 328.74 L 64 304.87 M 64 284.87 L 64 261 L 84 261 L 84 194" fill="none" stroke="#94a3b899" stroke-width="1.5"></path><path d="M 84 84.88 L 84 126" fill="none" stroke="transparent" stroke-width="0.001" marker-start="url(#cora-marker-filled-circle)" marker-end="url(#cora-marker-arrow-end)"></path><path d="M 146 156 L 198 156" fill="none" stroke="transparent" stroke-width="0.001" marker-end="url(#cora-marker-arrow-end)"></path><path d="M 280 186 L 280 261 L 246.5 261 L 246.5 333.12" fill="none" stroke="transparent" stroke-width="0.001" marker-end="url(#cora-marker-filled-circle)"></path><path d="M 240 186 L 240 261 L 104 261 L 104 331.25" fill="none" stroke="transparent" stroke-width="0.001" marker-end="url(#cora-marker-diamond)"></path><path d="M 246.25 396 L 246.25 437.12" fill="none" stroke="transparent" stroke-width="0.001" marker-end="url(#cora-marker-filled-square)"></path><path d="M 64 332.37 L 64 261 L 84 261 L 84 186" fill="none" stroke="transparent" stroke-width="0.001" marker-start="url(#cora-marker-circle)" marker-end="url(#cora-marker-arrow-end)"></path></g><g id="edge-bridge-masks"></g><g id="edge-bridges"></g><g id="edge-labels"><g><rect x="268.475" y="215" width="23.05" height="17" rx="8.5" ry="8.5" fill="#0f172a"></rect><text x="280" y="227" text-anchor="middle" font-family="&#x27;Source Sans 3&#x27;, sans-serif" font-size="10" font-weight="400" fill="#94a3b899">yes</text></g><g><rect x="162.6" y="251.5" width="18.8" height="17" rx="8.5" ry="8.5" fill="#0f172a"></rect><text x="172" y="263.5" text-anchor="middle" font-family="&#x27;Source Sans 3&#x27;, sans-serif" font-size="10" font-weight="400" fill="#94a3b899">no</text></g><g><rect x="49.535" y="286.37" width="28.93" height="17" rx="8.5" ry="8.5" fill="#0f172a"></rect><text x="64" y="298.37" text-anchor="middle" font-family="&#x27;Source Sans 3&#x27;, sans-serif" font-size="10" font-weight="400" fill="#94a3b899">retry</text></g></g></svg>