<svg xmlns="http://www.w3.org/2000/svg" viewBox="0 0 169.784 292.8781270189222"><defs><filter id="cora-shadow-blur" x="-50%" y="-50%" width="200%" height="200%"><feGaussianBlur stdDeviation="1"></feGaussianBlur></filter></defs><rect x="0" y="0" width="169.784" height="292.8781270189222" fill="#F4F9FB"></rect><g id="groups"></g><g id="nodes"><g><g filter="url(#cora-shadow-blur)"><rect x="81.66933333333333" y="24.5" width="41.048" height="22.896" rx="4" ry="4" fill="#2888CC"></rect></g><rect x="81.16933333333333" y="24" width="41.048" height="22.896" rx="4" ry="4" fill="#80CFFF" stroke="#3DAAF0" stroke-width="0.75"></rect><text x="101.69333333333333" y="38.552" text-anchor="middle" font-family="&#x27;Noto Sans&#x27;, sans-serif" font-size="8" font-weight="600" fill="#1A1A1A">Start</text></g><g><g filter="url(#cora-shadow-blur)"><rect x="69.94533333333331" y="71.396" width="64.49600000000001" height="22.896" fill="#7050B8"></rect></g><rect x="69.44533333333331" y="70.896" width="64.49600000000001" height="22.896" fill="#C9B3FF" stroke="#9470DB" stroke-width="0.75"></rect><text x="101.69333333333331" y="85.448" text-anchor="middle" font-family="&#x27;Noto Sans&#x27;, sans-serif" font-size="8" font-weight="600" fill="#1A1A1A">Load Input</text></g><g><g filter="url(#cora-shadow-blur)"><polygon points="112.94266666666665,118.292 135.33866666666665,140.688 112.94266666666665,163.084 90.54666666666665,140.688" fill="#C87020"></polygon></g><polygon points="112.44266666666665,117.792 134.83866666666665,140.188 112.44266666666665,162.584 90.04666666666665,140.188" fill="#FFB366" stroke="#E89040" stroke-width="0.75" stroke-linejoin="round"></polygon><text x="112.44266666666665" y="143.292" text-anchor="middle" font-family="&#x27;Noto Sans&#x27;, sans-serif" font-size="8" font-weight="600" fill="#1A1A1A">Valid?</text></g><g><g filter="url(#cora-shadow-blur)"><rect x="94.532" y="199.58612701892218" width="51.751999999999995" height="22.896" fill="#7050B8"></rect></g><rect x="94.032" y="199.08612701892218" width="51.751999999999995" height="22.896" fill="#C9B3FF" stroke="#9470DB" stroke-width="0.75"></rect><text x="119.90799999999999" y="213.6381270189222" text-anchor="middle" font-family="&#x27;Noto Sans&#x27;, sans-serif" font-size="8" font-weight="600" fill="#1A1A1A">Process</text></g><g><g filter="url(#cora-shadow-blur)"><rect x="24.5" y="199.58612701892218" width="46.032" height="22.896" fill="#7050B8"></rect></g><rect x="24" y="199.08612701892218" width="46.032" height="22.896" fill="#C9B3FF" stroke="#9470DB" stroke-width="0.75"></rect><text x="47.016" y="213.6381270189222" text-anchor="middle" font-family="&#x27;Noto Sans&#x27;, sans-serif" font-size="8" font-weight="600" fill="#1A1A1A">Reject</text></g><g><g filter="url(#cora-shadow-blur)"><rect x="99.11999999999999" y="246.4821270189222" width="42.576" height="22.896" rx="4" ry="4" fill="#2888CC"></rect></g><rect x="98.61999999999999" y="245.9821270189222" width="42.576" height="22.896" rx="4" ry="4" fill="#80CFFF" stroke="#3DAAF0" stroke-width="0.75"></rect><text x="119.90799999999999" y="260.53412701892216" text-anchor="middle" font-family="&#x27;Noto Sans&#x27;, sans-serif" font-size="8" font-weight="600" fill="#1A1A1A">Done</text></g></g><g id="edges"><g><path d="M 101.69333333333333 48.896 L 101.69333333333333 64.5658729810778" fill="none" stroke="#37474F" stroke-width="0.75"></path><polygon points="101.69333333333333,68.896 99.19333333333333,64.5658729810778 104.19333333333333,64.5658729810778" fill="#37474F"></polygon></g><g><path d="M 112.44266666666667 95.792 L 112.44266666666667 111.4618729810778" fill="none" stroke="#37474F" stroke-width="0.75"></path><polygon points="112.44266666666667,115.792 109.94266666666667,111.4618729810778 114.94266666666667,111.4618729810778" fill="#37474F"></polygon></g><g><path d="M 119.90799999999999 164.584 L 119.90799999999999 171.584 M 119.90799999999999 185.75600000000003 L 119.90799999999999 192.756" fill="none" stroke="#37474F" stroke-width="0.75"></path><polygon points="119.90799999999999,197.08612701892218 117.40799999999999,192.756 122.40799999999999,192.756" fill="#37474F"></polygon></g><g><path d="M 104.97733333333332 164.584 L 104.97733333333332 174.584 L 69.07766666666666 174.584 M 82.41566666666665 174.584 L 54.687999999999995 174.584 L 54.687999999999995 192.756" fill="none" stroke="#37474F" stroke-width="0.75"></path><polygon points="54.687999999999995,197.08612701892218 52.187999999999995,192.756 57.187999999999995,192.756" fill="#37474F"></polygon></g><g><path d="M 119.90799999999999 223.9821270189222 L 119.90799999999999 239.65200000000002" fill="none" stroke="#37474F" stroke-width="0.75"></path><polygon points="119.90799999999999,243.9821270189222 117.40799999999999,239.65200000000002 122.40799999999999,239.65200000000002" fill="#37474F"></polygon></g><g><path d="M 39.343999999999994 197.08612701892218 L 39.343999999999994 115.7181270189222 M 39.343999999999994 129.89012701892221 L 39.343999999999994 105.792 L 90.94399999999999 105.792 L 90.94399999999999 100.1221270189222" fill="none" stroke="#37474F" stroke-width="0.75"></path><polygon points="90.94399999999999,95.792 93.44399999999999,100.1221270189222 88.44399999999999,100.1221270189222" fill="#37474F"></polygon></g></g><g id="edge-labels"><text x="119.90799999999999" y="180.99800000000002" text-anchor="middle" font-family="&#x27;Noto Sans&#x27;, sans-serif" font-size="6" font-weight="400" fill="#1A1A1A">yes</text><text x="75.74666666666666" y="175.912" text-anchor="middle" font-family="&#x27;Noto Sans&#x27;, sans-serif" font-size="6" font-weight="400" fill="#1A1A1A">no</text><text x="39.343999999999994" y="125.1321270189222" text-anchor="middle" font-family="&#x27;Noto Sans&#x27;, sans-serif" font-size="6" font-weight="400" fill="#1A1A1A">retry</text></g></svg>