<svg xmlns="http://www.w3.org/2000/svg" viewBox="0 0 274 742.6381270189222"><defs><filter id="cora-shadow-blur" x="-50%" y="-50%" width="200%" height="200%"><feGaussianBlur stdDeviation="0"></feGaussianBlur></filter><marker id="cora-marker-arrow" markerWidth="8" markerHeight="8" refX="0" refY="4" orient="auto" markerUnits="userSpaceOnUse"><path d="M 0 0 L 8 4 L 0 8 z" fill="#334155"></path></marker><marker id="cora-marker-circle" markerWidth="8" markerHeight="8" refX="4" refY="4" orient="auto" markerUnits="userSpaceOnUse"><circle cx="4" cy="4" r="2.88" fill="none" stroke="#334155" stroke-width="1.5"></circle></marker><marker id="cora-marker-filled-circle" markerWidth="8" markerHeight="8" refX="4" refY="4" orient="auto" markerUnits="userSpaceOnUse"><circle cx="4" cy="4" r="2.88" fill="#334155"></circle></marker></defs><rect x="0" y="0" width="274" height="742.6381270189222" fill="#f8fafc"></rect><g id="groups"><g><rect x="98" y="133" width="152" height="264.344" fill="none" stroke="#94a3b8" stroke-width="1" stroke-dasharray="4 4"></rect><text x="106" y="125" font-family="&#x27;Noto Sans&#x27;, sans-serif" font-size="12" font-weight="600" fill="#0f172a">us-east</text></g><g><rect x="24" y="454.2941270189222" width="163" height="264.344" fill="none" stroke="#94a3b8" stroke-width="1" stroke-dasharray="4 4"></rect><text x="32" y="446.2941270189222" font-family="&#x27;Noto Sans&#x27;, sans-serif" font-size="12" font-weight="600" fill="#0f172a">us-west</text></g></g><g id="nodes"><g><rect x="78" y="24" width="144" height="68" rx="8" ry="8" fill="#fef08a" stroke="#eab308" stroke-width="1"></rect><line x1="78" y1="42" x2="222" y2="42" stroke="#eab308" stroke-width="1"></line><circle cx="88" cy="33" r="2" fill="#eab308"></circle><circle cx="96" cy="33" r="2" fill="#eab308"></circle><rect x="106" y="30" width="102" height="6" rx="3" fill="#fef08a" stroke="#eab308" stroke-width="0.75"></rect><text x="150" y="71.656" text-anchor="middle" font-family="&#x27;Noto Sans&#x27;, sans-serif" font-size="12" font-weight="600" fill="#0f172a"><tspan x="150" dy="0">Global DNS</tspan></text></g><g><rect x="110" y="155.95012701892222" width="128" height="68" rx="8" ry="8" fill="#a7f3d0" stroke="#10b981" stroke-width="1"></rect><rect x="110" y="155.95012701892222" width="128" height="20" rx="8" ry="8" fill="#10b981" opacity="0.35"></rect><circle cx="122" cy="165.95012701892222" r="2" fill="#10b981"></circle><circle cx="130" cy="165.95012701892222" r="2" fill="#10b981"></circle><text x="174" y="204.60612701892222" text-anchor="middle" font-family="&#x27;Noto Sans&#x27;, sans-serif" font-size="12" font-weight="600" fill="#0f172a"><tspan x="174" dy="0">VPC East</tspan></text></g><g><rect x="110" y="259.9501270189222" width="128" height="68" rx="8" ry="8" fill="#a7f3d0" stroke="#10b981" stroke-width="1"></rect><rect x="110" y="259.9501270189222" width="128" height="20" rx="8" ry="8" fill="#10b981" opacity="0.35"></rect><circle cx="122" cy="269.9501270189222" r="2" fill="#10b981"></circle><circle cx="130" cy="269.9501270189222" r="2" fill="#10b981"></circle><text x="174" y="308.6061270189222" text-anchor="middle" font-family="&#x27;Noto Sans&#x27;, sans-serif" font-size="12" font-weight="600" fill="#0f172a"><tspan x="174" dy="0">Compute East</tspan></text></g><g><rect x="137.84199999999998" y="363.9501270189222" width="72.316" height="32.344" rx="8" ry="8" fill="#ffffff" stroke="#cbd5e1" stroke-width="1"></rect><text x="174" y="384.77812701892225" text-anchor="middle" font-family="&#x27;Noto Sans&#x27;, sans-serif" font-size="12" font-weight="600" fill="#0f172a"><tspan x="174" dy="0">DB East</tspan></text></g><g><rect x="36" y="466.2941270189222" width="128" height="68" rx="8" ry="8" fill="#a7f3d0" stroke="#10b981" stroke-width="1"></rect><rect x="36" y="466.2941270189222" width="128" height="20" rx="8" ry="8" fill="#10b981" opacity="0.35"></rect><circle cx="48" cy="476.2941270189222" r="2" fill="#10b981"></circle><circle cx="56" cy="476.2941270189222" r="2" fill="#10b981"></circle><text x="100" y="514.9501270189222" text-anchor="middle" font-family="&#x27;Noto Sans&#x27;, sans-serif" font-size="12" font-weight="600" fill="#0f172a"><tspan x="100" dy="0">VPC West</tspan></text></g><g><rect x="36" y="570.2941270189223" width="128" height="68" rx="8" ry="8" fill="#a7f3d0" stroke="#10b981" stroke-width="1"></rect><rect x="36" y="570.2941270189223" width="128" height="20" rx="8" ry="8" fill="#10b981" opacity="0.35"></rect><circle cx="48" cy="580.2941270189223" r="2" fill="#10b981"></circle><circle cx="56" cy="580.2941270189223" r="2" fill="#10b981"></circle><text x="100" y="618.9501270189222" text-anchor="middle" font-family="&#x27;Noto Sans&#x27;, sans-serif" font-size="12" font-weight="600" fill="#0f172a"><tspan x="100" dy="0">Compute West</tspan></text></g><g><rect x="74.39466666666667" y="674.2941270189223" width="76.816" height="32.344" rx="8" ry="8" fill="#ffffff" stroke="#cbd5e1" stroke-width="1"></rect><text x="112.80266666666667" y="695.1221270189222" text-anchor="middle" font-family="&#x27;Noto Sans&#x27;, sans-serif" font-size="12" font-weight="600" fill="#0f172a"><tspan x="112.80266666666667" dy="0">DB West</tspan></text></g></g><g id="edges"><path d="M 174 94 L 174 112.00000000000001 M 174 125.62000000000003 L 174 149.62000000000003" fill="none" stroke="#334155" stroke-width="2" marker-end="url(#cora-marker-arrow)"></path><path d="M 126 94 L 126 106 Q 126 110 122 110 L 91 110 Q 87 110 87 114 L 87 254.17199999999997 M 87 273.792 L 87 427.2941270189222 Q 87 431.2941270189222 91 431.2941270189222 L 96 431.2941270189222 Q 100 431.2941270189222 100 435.2941270189222 L 100 459.964" fill="none" stroke="#334155" stroke-width="2" marker-end="url(#cora-marker-arrow)"></path><path d="M 174 225.95012701892222 L 174 253.62000000000003" fill="none" stroke="#334155" stroke-width="2" marker-end="url(#cora-marker-arrow)"></path><path d="M 174 329.9501270189222 L 174 357.62" fill="none" stroke="#334155" stroke-width="2" marker-end="url(#cora-marker-arrow)"></path><path d="M 100 536.2941270189222 L 100 563.964" fill="none" stroke="#334155" stroke-width="2" marker-end="url(#cora-marker-arrow)"></path><path d="M 100 640.2941270189223 L 100 667.964" fill="none" stroke="#334155" stroke-width="2" marker-end="url(#cora-marker-arrow)"></path><path d="M 174 398.2941270189222 L 174 547.5163968427945 M 174 567.1363968427944 L 174 652.2941270189223 Q 174 656.2941270189223 170 656.2941270189223 L 129.60533333333333 656.2941270189223 Q 125.60533333333333 656.2941270189223 125.60533333333333 660.2941270189223 L 125.60533333333333 667.964" fill="none" stroke="#334155" stroke-width="2" marker-end="url(#cora-marker-arrow)"></path></g><g id="edge-bridge-masks"></g><g id="edge-bridges"></g><g id="edge-labels"><g><rect x="158.295" y="113.50000000000001" width="31.41" height="16.62" rx="8.31" ry="8.31" fill="#f8fafc"></rect><text x="174" y="125.69000000000001" text-anchor="middle" font-family="&#x27;Noto Sans&#x27;, sans-serif" font-size="10" font-weight="400" fill="#475569">route</text></g><g><rect x="71.295" y="255.67199999999997" width="31.41" height="16.62" rx="8.31" ry="8.31" fill="#f8fafc"></rect><text x="87" y="267.86199999999997" text-anchor="middle" font-family="&#x27;Noto Sans&#x27;, sans-serif" font-size="10" font-weight="400" fill="#475569">route</text></g><g><rect x="150.73" y="549.0163968427945" width="46.54" height="16.62" rx="8.31" ry="8.31" fill="#f8fafc"></rect><text x="174" y="561.2063968427944" text-anchor="middle" font-family="&#x27;Noto Sans&#x27;, sans-serif" font-size="10" font-weight="400" fill="#475569">replicate</text></g></g></svg>