<svg xmlns="http://www.w3.org/2000/svg" viewBox="0 0 250 652.792"><defs><filter id="cora-shadow-blur" x="-50%" y="-50%" width="200%" height="200%"><feGaussianBlur stdDeviation="1"></feGaussianBlur></filter><marker id="cora-marker-arrow" markerWidth="8" markerHeight="8" refX="7" refY="4" orient="auto" markerUnits="strokeWidth"><path d="M 0 0 L 8 4 L 0 8 z" fill="#37474F"></path></marker><marker id="cora-marker-circle" markerWidth="8" markerHeight="8" refX="4" refY="4" orient="auto" markerUnits="strokeWidth"><circle cx="4" cy="4" r="3" fill="none" stroke="#37474F" stroke-width="1.5"></circle></marker><marker id="cora-marker-filled-circle" markerWidth="8" markerHeight="8" refX="4" refY="4" orient="auto" markerUnits="strokeWidth"><circle cx="4" cy="4" r="3" fill="#37474F"></circle></marker></defs><rect x="0" y="0" width="250" height="652.792" fill="#F4F9FB"></rect><g id="groups"><g><rect x="90" y="121" width="136" height="230.89600000000002" fill="none" stroke="#94A3B8" stroke-width="0.75" stroke-dasharray="4 4"></rect><text x="98" y="113" font-family="&#x27;Noto Sans&#x27;, sans-serif" font-size="8" font-weight="600" fill="#1A1A1A">us-east</text></g><g><rect x="24" y="397.896" width="147" height="230.89600000000002" fill="none" stroke="#94A3B8" stroke-width="0.75" stroke-dasharray="4 4"></rect><text x="32" y="389.896" font-family="&#x27;Noto Sans&#x27;, sans-serif" font-size="8" font-weight="600" fill="#1A1A1A">us-west</text></g></g><g id="nodes"><g><rect x="72.66666666666667" y="24" width="128" height="56" rx="4" ry="4" fill="#FFF0B3" stroke="#D4BE70" stroke-width="0.75"></rect><line x1="72.66666666666667" y1="39.68" x2="200.66666666666669" y2="39.68" stroke="#D4BE70" stroke-width="1"></line><circle cx="82.66666666666667" cy="31.84" r="2" fill="#D4BE70"></circle><circle cx="90.66666666666667" cy="31.84" r="2" fill="#D4BE70"></circle><rect x="100.66666666666667" y="28.84" width="86" height="6" rx="3" fill="#FFF0B3" stroke="#D4BE70" stroke-width="0.75"></rect><text x="136.66666666666669" y="64.884" text-anchor="middle" font-family="&#x27;Noto Sans&#x27;, sans-serif" font-size="13" font-weight="600" fill="#1A1A1A">Global DNS</text></g><g><rect x="102" y="138.50212701892218" width="112" height="56" rx="4" ry="4" fill="#FFF0B3" stroke="#D4BE70" stroke-width="0.75"></rect><rect x="102" y="138.50212701892218" width="112" height="17.92" rx="4" ry="4" fill="#D4BE70" opacity="0.35"></rect><circle cx="114" cy="147.4621270189222" r="2" fill="#D4BE70"></circle><circle cx="122" cy="147.4621270189222" r="2" fill="#D4BE70"></circle><text x="158" y="180.5061270189222" text-anchor="middle" font-family="&#x27;Noto Sans&#x27;, sans-serif" font-size="13" font-weight="600" fill="#1A1A1A">VPC East</text></g><g><rect x="102" y="230.50212701892218" width="112" height="56" rx="4" ry="4" fill="#FFF0B3" stroke="#D4BE70" stroke-width="0.75"></rect><rect x="102" y="230.50212701892218" width="112" height="17.92" rx="4" ry="4" fill="#D4BE70" opacity="0.35"></rect><circle cx="114" cy="239.4621270189222" r="2" fill="#D4BE70"></circle><circle cx="122" cy="239.4621270189222" r="2" fill="#D4BE70"></circle><text x="158" y="272.5061270189222" text-anchor="middle" font-family="&#x27;Noto Sans&#x27;, sans-serif" font-size="13" font-weight="600" fill="#1A1A1A">Compute East</text></g><g><g filter="url(#cora-shadow-blur)"><rect x="132.728" y="323.0021270189222" width="51.544" height="22.896" fill="#7050B8"></rect></g><rect x="132.228" y="322.5021270189222" width="51.544" height="22.896" fill="#C9B3FF" stroke="#9470DB" stroke-width="0.75"></rect><text x="158" y="337.05412701892214" text-anchor="middle" font-family="&#x27;Noto Sans&#x27;, sans-serif" font-size="8" font-weight="600" fill="#1A1A1A">DB East</text></g><g><rect x="36" y="415.3981270189222" width="112" height="56" rx="4" ry="4" fill="#FFF0B3" stroke="#D4BE70" stroke-width="0.75"></rect><rect x="36" y="415.3981270189222" width="112" height="17.92" rx="4" ry="4" fill="#D4BE70" opacity="0.35"></rect><circle cx="48" cy="424.3581270189222" r="2" fill="#D4BE70"></circle><circle cx="56" cy="424.3581270189222" r="2" fill="#D4BE70"></circle><text x="92" y="457.4021270189222" text-anchor="middle" font-family="&#x27;Noto Sans&#x27;, sans-serif" font-size="13" font-weight="600" fill="#1A1A1A">VPC West</text></g><g><rect x="36" y="507.3981270189222" width="112" height="56" rx="4" ry="4" fill="#FFF0B3" stroke="#D4BE70" stroke-width="0.75"></rect><rect x="36" y="507.3981270189222" width="112" height="17.92" rx="4" ry="4" fill="#D4BE70" opacity="0.35"></rect><circle cx="48" cy="516.3581270189222" r="2" fill="#D4BE70"></circle><circle cx="56" cy="516.3581270189222" r="2" fill="#D4BE70"></circle><text x="92" y="549.4021270189221" text-anchor="middle" font-family="&#x27;Noto Sans&#x27;, sans-serif" font-size="13" font-weight="600" fill="#1A1A1A">Compute West</text></g><g><g filter="url(#cora-shadow-blur)"><rect x="74.31866666666667" y="599.8981270189222" width="54.544" height="22.896" fill="#7050B8"></rect></g><rect x="73.81866666666667" y="599.3981270189222" width="54.544" height="22.896" fill="#C9B3FF" stroke="#9470DB" stroke-width="0.75"></rect><text x="101.09066666666666" y="613.9501270189222" text-anchor="middle" font-family="&#x27;Noto Sans&#x27;, sans-serif" font-size="8" font-weight="600" fill="#1A1A1A">DB West</text></g></g><g id="edges"><path d="M 158 82 L 158 100 M 158 108.172 L 158 132.172" fill="none" stroke="#37474F" stroke-width="0.75" marker-end="url(#cora-marker-arrow)"></path><path d="M 115.33333333333334 82 L 115.33333333333334 94 Q 115.33333333333334 98 111.33333333333334 98 L 83 98 Q 79 98 79 102 L 79 226.78133333333332 M 79 240.95333333333335 L 79 376.3981270189222 Q 79 380.3981270189222 83 380.3981270189222 L 88 380.3981270189222 Q 92 380.3981270189222 92 384.3981270189222 L 92 409.068" fill="none" stroke="#37474F" stroke-width="0.75" marker-end="url(#cora-marker-arrow)"></path><path d="M 158 196.50212701892218 L 158 224.172" fill="none" stroke="#37474F" stroke-width="0.75" marker-end="url(#cora-marker-arrow)"></path><path d="M 158 288.5021270189222 L 158 316.17199999999997" fill="none" stroke="#37474F" stroke-width="0.75" marker-end="url(#cora-marker-arrow)"></path><path d="M 92 473.3981270189222 L 92 501.068" fill="none" stroke="#37474F" stroke-width="0.75" marker-end="url(#cora-marker-arrow)"></path><path d="M 92 565.3981270189222 L 92 593.068" fill="none" stroke="#37474F" stroke-width="0.75" marker-end="url(#cora-marker-arrow)"></path><path d="M 158 347.3981270189222 L 158 487.0563968427944 M 158 501.22839684279444 L 158 577.3981270189222 Q 158 581.3981270189222 154 581.3981270189222 L 114.18133333333333 581.3981270189222 Q 110.18133333333333 581.3981270189222 110.18133333333333 585.3981270189222 L 110.18133333333333 593.068" fill="none" stroke="#37474F" stroke-width="0.75" marker-end="url(#cora-marker-arrow)"></path></g><g id="edge-bridge-masks"></g><g id="edge-bridges"></g><g id="edge-labels"><g><rect x="147.377" y="101.5" width="21.246000000000002" height="11.172" rx="5.586" ry="5.586" fill="#F4F9FB"></rect><text x="158" y="109.414" text-anchor="middle" font-family="&#x27;Noto Sans&#x27;, sans-serif" font-size="6" font-weight="400" fill="#1A1A1A">route</text></g><g><rect x="68.377" y="228.28133333333332" width="21.246000000000002" height="11.172" rx="5.586" ry="5.586" fill="#F4F9FB"></rect><text x="79" y="236.19533333333334" text-anchor="middle" font-family="&#x27;Noto Sans&#x27;, sans-serif" font-size="6" font-weight="400" fill="#1A1A1A">route</text></g><g><rect x="142.838" y="488.5563968427944" width="30.324" height="11.172" rx="5.586" ry="5.586" fill="#F4F9FB"></rect><text x="158" y="496.4703968427944" text-anchor="middle" font-family="&#x27;Noto Sans&#x27;, sans-serif" font-size="6" font-weight="400" fill="#1A1A1A">replicate</text></g></g></svg>