<svg xmlns="http://www.w3.org/2000/svg" viewBox="0 0 129.76 137.792"><defs><filter id="cora-shadow-blur" x="-50%" y="-50%" width="200%" height="200%"><feGaussianBlur stdDeviation="2"></feGaussianBlur></filter></defs><rect x="0" y="0" width="129.76" height="137.792" fill="#F4F9FB"></rect><g id="groups"><g><rect x="24" y="24" width="81.75999999999999" height="89.792" fill="none" stroke="#94A3B8" stroke-width="0.75" stroke-dasharray="4 4"></rect><text x="32" y="16" font-family="&#x27;Noto Sans&#x27;, sans-serif" font-size="8" font-weight="600" fill="#1A1A1A">Region</text></g></g><g id="nodes"><g><g filter="url(#cora-shadow-blur)"><path d="M 44.611999999999995 39.882400000000004
    C 37.197599999999994 39.882400000000004, 37.197599999999994 33.0136, 44.611999999999995 33.0136
    C 44.611999999999995 28.4344, 52.026399999999995 27.2896, 55.733599999999996 30.724
    C 61.294399999999996 27.2896, 68.7088 30.724, 66.8552 35.303200000000004
    C 71.67456 36.448, 70.5624 42.172, 63.147999999999996 42.172
    Z" fill="#B0A040"></path></g><path d="M 43.611999999999995 38.882400000000004
    C 36.197599999999994 38.882400000000004, 36.197599999999994 32.0136, 43.611999999999995 32.0136
    C 43.611999999999995 27.4344, 51.026399999999995 26.2896, 54.733599999999996 29.724
    C 60.294399999999996 26.2896, 67.7088 29.724, 65.8552 34.303200000000004
    C 70.67456 35.448, 69.5624 41.172, 62.147999999999996 41.172
    Z" fill="#FFF0B3" stroke="#D4BE70" stroke-width="0.75"></path><text x="52.879999999999995" y="38.552" text-anchor="middle" font-family="&#x27;Noto Sans&#x27;, sans-serif" font-size="8" font-weight="600" fill="#1A1A1A">VPC</text></g><g><g filter="url(#cora-shadow-blur)"><rect x="25" y="67.896" width="57.76" height="22.896" rx="8" ry="8" fill="#2888CC"></rect></g><rect x="24" y="66.896" width="57.76" height="22.896" rx="8" ry="8" fill="#80CFFF" stroke="#3DAAF0" stroke-width="0.75"></rect><text x="52.879999999999995" y="81.448" text-anchor="middle" font-family="&#x27;Noto Sans&#x27;, sans-serif" font-size="8" font-weight="600" fill="#1A1A1A">Compute</text></g></g><g id="edges"><g><path d="M 52.879999999999995 48.896 L 52.879999999999995 57.967796769724494" fill="none" stroke="#37474F" stroke-width="0.75"></path><polygon points="52.879999999999995,64.896 48.879999999999995,57.967796769724494 56.879999999999995,57.967796769724494" fill="#37474F"></polygon></g></g><g id="edge-labels"></g></svg>