<svg xmlns="http://www.w3.org/2000/svg" viewBox="0 0 250.132 1069.964"><defs><filter id="cora-shadow-blur" x="-50%" y="-50%" width="200%" height="200%"><feGaussianBlur stdDeviation="0"></feGaussianBlur></filter><marker id="cora-marker-arrow" markerWidth="8" markerHeight="8" refX="8" refY="4" orient="auto-start-reverse" markerUnits="userSpaceOnUse"><path d="M 0 0 L 8 4 L 0 8 z" fill="#334155"></path></marker><marker id="cora-marker-circle" markerWidth="8" markerHeight="8" refX="4" refY="4" orient="auto-start-reverse" markerUnits="userSpaceOnUse"><circle cx="4" cy="4" r="2.88" fill="none" stroke="#334155" stroke-width="1.5"></circle></marker><marker id="cora-marker-filled-circle" markerWidth="8" markerHeight="8" refX="4" refY="4" orient="auto-start-reverse" markerUnits="userSpaceOnUse"><circle cx="4" cy="4" r="2.88" fill="#334155"></circle></marker><marker id="cora-marker-diamond" markerWidth="8" markerHeight="8" refX="4" refY="4" orient="auto-start-reverse" markerUnits="userSpaceOnUse"><path d="M 4 0 L 8 4 L 4 8 L 0 4 Z" fill="none" stroke="#334155" stroke-width="1.5"></path></marker><marker id="cora-marker-filled-diamond" markerWidth="8" markerHeight="8" refX="4" refY="4" orient="auto-start-reverse" markerUnits="userSpaceOnUse"><path d="M 4 0 L 8 4 L 4 8 L 0 4 Z" fill="#334155"></path></marker><marker id="cora-marker-square" markerWidth="8" markerHeight="8" refX="4" refY="4" orient="auto-start-reverse" markerUnits="userSpaceOnUse"><rect x="1.12" y="1.12" width="5.76" height="5.76" fill="none" stroke="#334155" stroke-width="1.5"></rect></marker><marker id="cora-marker-filled-square" markerWidth="8" markerHeight="8" refX="4" refY="4" orient="auto-start-reverse" markerUnits="userSpaceOnUse"><rect x="1.12" y="1.12" width="5.76" height="5.76" fill="#334155"></rect></marker></defs><rect x="0" y="0" width="250.132" height="1069.964" fill="#f8fafc"></rect><g id="groups"><g><rect x="93.132" y="225" width="133" height="384" fill="none" stroke="#94a3b8" stroke-width="1" stroke-dasharray="4 4"></rect><text x="101.132" y="217" font-family="&#x27;Noto Sans&#x27;, sans-serif" font-size="12" font-weight="600" fill="#0f172a">us-east</text></g><g><rect x="24" y="661.964" width="149" height="384" fill="none" stroke="#94a3b8" stroke-width="1" stroke-dasharray="4 4"></rect><text x="32" y="653.964" font-family="&#x27;Noto Sans&#x27;, sans-serif" font-size="12" font-weight="600" fill="#0f172a">us-west</text></g></g><g id="nodes"><g><path d="M 86.26400000000001 52.05 C 86.26400000000001 50.235 87.74900000000001 48.75 89.56400000000001 48.75 L 181.964 48.75 C 183.779 48.75 185.264 50.235 185.264 52.05 L 185.264 137.85000000000002 C 185.264 139.66500000000002 183.779 141.15 181.964 141.15 L 89.56400000000001 141.15 C 87.74900000000001 141.15 86.26400000000001 139.66500000000002 86.26400000000001 137.85000000000002 Z" fill="#16a7e0" stroke="#1c1d1a" stroke-width="2.145" stroke-linejoin="round"></path><path d="M 86.26400000000001 52.05 C 86.26400000000001 50.235 87.74900000000001 48.75 89.56400000000001 48.75 L 181.964 48.75 C 183.779 48.75 185.264 50.235 185.264 52.05 L 185.264 61.95 L 86.26400000000001 61.95 Z" fill="#1c1d1a"></path><circle cx="92.864" cy="55.35" r="2.31" fill="#ffffff"></circle><circle cx="100.28900000000002" cy="55.35" r="2.31" fill="#ffffff"></circle><circle cx="107.71400000000001" cy="55.35" r="2.31" fill="#ffffff"></circle><rect x="115.13900000000001" y="52.215" width="66" height="6.2700000000000005" rx="1.6500000000000001" fill="#ffffff"></rect><g fill="#1c1d1a" opacity="0.52"><rect x="92.864" y="69.375" width="24.75" height="4.95"></rect><rect x="160.514" y="69.375" width="18.150000000000002" height="4.95"></rect><rect x="92.864" y="78.61500000000001" width="59.400000000000006" height="2.145"></rect><rect x="92.864" y="83.89500000000001" width="57.75" height="2.145"></rect><rect x="92.864" y="89.175" width="57.75" height="2.145"></rect><rect x="92.864" y="94.455" width="38.775" height="2.145"></rect><rect x="154.24400000000003" y="78.61500000000001" width="24.42" height="24.42"></rect><rect x="93.19400000000002" y="105.675" width="18.150000000000002" height="5.445"></rect><rect x="93.19400000000002" y="115.08" width="23.1" height="16.995"></rect><rect x="120.91400000000002" y="115.575" width="36.300000000000004" height="2.145"></rect><rect x="120.91400000000002" y="120.855" width="57.75" height="2.145"></rect><rect x="120.91400000000002" y="126.135" width="57.75" height="2.145"></rect><rect x="120.91400000000002" y="131.41500000000002" width="34.65" height="2.145"></rect></g><text x="135.764" y="174.08" text-anchor="middle" font-family="&#x27;Noto Sans&#x27;, sans-serif" font-size="12" font-weight="600" fill="#0f172a"><tspan x="135.764" dy="0">Global DNS</tspan></text></g><g><g transform="translate(111.76400000000001, 248.10000000000002) scale(4)"><path d="M5 23V1h14v22zm2-5v3h10v-3zm5 2.5q.425 0 .713-.288T13 19.5t-.288-.712T12 18.5t-.712.288T11 19.5t.288.713t.712.287M7 16h10V6H7zM7 4h10V3H7zm0 14v3zM7 4V3z" fill="#10b981"></path><rect x="7" y="6" width="10" height="10" fill="#a7f3d0"></rect></g><text x="159.764" y="364.17999999999995" text-anchor="middle" font-family="&#x27;Noto Sans&#x27;, sans-serif" font-size="12" font-weight="600" fill="#0f172a"><tspan x="159.764" dy="0">VPC East</tspan></text></g><g><g transform="translate(107.28399999999999, 407.62) scale(4.373333333333334)"><path d="M5 23V1h14v22zm2-5v3h10v-3zm5 2.5q.425 0 .713-.288T13 19.5t-.288-.712T12 18.5t-.712.288T11 19.5t.288.713t.712.287M7 16h10V6H7zM7 4h10V3H7zm0 14v3zM7 4V3z" fill="#10b981"></path><rect x="7" y="6" width="10" height="10" fill="#a7f3d0"></rect></g><text x="159.764" y="528.1800000000001" text-anchor="middle" font-family="&#x27;Noto Sans&#x27;, sans-serif" font-size="12" font-weight="600" fill="#0f172a"><tspan x="159.764" dy="0">Compute East</tspan></text></g><g><rect x="123.606" y="571.62" width="72.316" height="32.344" rx="8" ry="8" fill="#ffffff" stroke="#cbd5e1" stroke-width="1"></rect><text x="159.764" y="591.8720000000001" text-anchor="middle" font-family="&#x27;Noto Sans&#x27;, sans-serif" font-size="12" font-weight="600" fill="#0f172a"><tspan x="159.764" dy="0">DB East</tspan></text></g><g><g transform="translate(44.882, 678.4440000000001) scale(4)"><path d="M5 23V1h14v22zm2-5v3h10v-3zm5 2.5q.425 0 .713-.288T13 19.5t-.288-.712T12 18.5t-.712.288T11 19.5t.288.713t.712.287M7 16h10V6H7zM7 4h10V3H7zm0 14v3zM7 4V3z" fill="#10b981"></path><rect x="7" y="6" width="10" height="10" fill="#a7f3d0"></rect></g><text x="92.882" y="794.5240000000001" text-anchor="middle" font-family="&#x27;Noto Sans&#x27;, sans-serif" font-size="12" font-weight="600" fill="#0f172a"><tspan x="92.882" dy="0">VPC West</tspan></text></g><g><g transform="translate(40.401999999999994, 837.964) scale(4.373333333333334)"><path d="M5 23V1h14v22zm2-5v3h10v-3zm5 2.5q.425 0 .713-.288T13 19.5t-.288-.712T12 18.5t-.712.288T11 19.5t.288.713t.712.287M7 16h10V6H7zM7 4h10V3H7zm0 14v3zM7 4V3z" fill="#10b981"></path><rect x="7" y="6" width="10" height="10" fill="#a7f3d0"></rect></g><text x="92.882" y="958.5240000000001" text-anchor="middle" font-family="&#x27;Noto Sans&#x27;, sans-serif" font-size="12" font-weight="600" fill="#0f172a"><tspan x="92.882" dy="0">Compute West</tspan></text></g><g><rect x="67.27666666666667" y="1001.964" width="76.816" height="32.344" rx="8" ry="8" fill="#ffffff" stroke="#cbd5e1" stroke-width="1"></rect><text x="105.68466666666667" y="1022.2160000000001" text-anchor="middle" font-family="&#x27;Noto Sans&#x27;, sans-serif" font-size="12" font-weight="600" fill="#0f172a"><tspan x="105.68466666666667" dy="0">DB West</tspan></text></g></g><g id="edges"><path d="M 159.764 186 L 159.764 208 M 159.764 209.62 L 159.764 233.62" fill="none" stroke="#334155" stroke-width="2"></path><path d="M 111.76400000000001 186 L 111.76400000000001 198 Q 111.76400000000001 202 107.76400000000001 202 L 86.132 202 Q 82.132 202 82.132 206 L 82.132 409.731 M 82.132 429.351 L 82.132 634.964 Q 82.132 638.964 86.132 638.964 L 88.882 638.964 Q 92.882 638.964 92.882 642.964 L 92.882 663.964" fill="none" stroke="#334155" stroke-width="2"></path><path d="M 159.764 373.62 L 159.764 397.62" fill="none" stroke="#334155" stroke-width="2"></path><path d="M 159.764 537.62 L 159.764 561.62" fill="none" stroke="#334155" stroke-width="2"></path><path d="M 92.882 803.964 L 92.882 827.964" fill="none" stroke="#334155" stroke-width="2"></path><path d="M 92.882 967.964 L 92.882 991.964" fill="none" stroke="#334155" stroke-width="2"></path><path d="M 159.764 605.964 L 159.764 813.7923333333334 M 159.764 833.4123333333333 L 159.764 979.964 Q 159.764 983.964 155.764 983.964 L 118.48733333333334 983.964 L 118.48733333333334 992.124" fill="none" stroke="#334155" stroke-width="2"></path><path d="M 159.764 186 L 159.764 241.62" fill="none" stroke="transparent" stroke-width="0.001" marker-end="url(#cora-marker-arrow)"></path><path d="M 111.76400000000001 186 L 111.76400000000001 194 Q 111.76400000000001 202 103.76400000000001 202 L 90.132 202 Q 82.132 202 82.132 210 L 82.132 633.589 Q 82.132 638.964 87.507 638.964 L 87.507 638.964 Q 92.882 638.964 92.882 644.339 L 92.882 671.964" fill="none" stroke="transparent" stroke-width="0.001" marker-end="url(#cora-marker-arrow)"></path><path d="M 159.764 373.62 L 159.764 405.62" fill="none" stroke="transparent" stroke-width="0.001" marker-end="url(#cora-marker-arrow)"></path><path d="M 159.764 537.62 L 159.764 569.62" fill="none" stroke="transparent" stroke-width="0.001" marker-end="url(#cora-marker-arrow)"></path><path d="M 92.882 803.964 L 92.882 835.964" fill="none" stroke="transparent" stroke-width="0.001" marker-end="url(#cora-marker-arrow)"></path><path d="M 92.882 967.964 L 92.882 999.964" fill="none" stroke="transparent" stroke-width="0.001" marker-end="url(#cora-marker-arrow)"></path><path d="M 159.764 605.964 L 159.764 975.964 Q 159.764 983.964 151.764 983.964 L 126.48733333333334 983.964 Q 118.48733333333334 983.964 118.48733333333334 991.964 L 118.48733333333334 999.964" fill="none" stroke="transparent" stroke-width="0.001" marker-end="url(#cora-marker-arrow)"></path></g><g id="edge-bridge-masks"></g><g id="edge-bridges"></g><g id="edge-labels"><g><rect x="144.059" y="205.5" width="31.41" height="16.62" rx="8.31" ry="8.31" fill="#f8fafc"></rect><text x="159.764" y="217.21" text-anchor="middle" font-family="&#x27;Noto Sans&#x27;, sans-serif" font-size="10" font-weight="400" fill="#475569">route</text></g><g><rect x="66.427" y="411.231" width="31.41" height="16.62" rx="8.31" ry="8.31" fill="#f8fafc"></rect><text x="82.132" y="422.941" text-anchor="middle" font-family="&#x27;Noto Sans&#x27;, sans-serif" font-size="10" font-weight="400" fill="#475569">route</text></g><g><rect x="136.494" y="815.2923333333334" width="46.54" height="16.62" rx="8.31" ry="8.31" fill="#f8fafc"></rect><text x="159.764" y="827.0023333333334" text-anchor="middle" font-family="&#x27;Noto Sans&#x27;, sans-serif" font-size="10" font-weight="400" fill="#475569">replicate</text></g></g></svg>