<svg xmlns="http://www.w3.org/2000/svg" viewBox="0 0 250 564.792"><defs><filter id="cora-shadow-blur" x="-50%" y="-50%" width="200%" height="200%"><feGaussianBlur stdDeviation="1"></feGaussianBlur></filter><marker id="cora-marker-arrow" markerWidth="8" markerHeight="8" refX="7" refY="4" orient="auto" markerUnits="strokeWidth"><path d="M 0 0 L 8 4 L 0 8 z" fill="#37474F"></path></marker><marker id="cora-marker-circle" markerWidth="8" markerHeight="8" refX="4" refY="4" orient="auto" markerUnits="strokeWidth"><circle cx="4" cy="4" r="3" fill="none" stroke="#37474F" stroke-width="1.5"></circle></marker><marker id="cora-marker-filled-circle" markerWidth="8" markerHeight="8" refX="4" refY="4" orient="auto" markerUnits="strokeWidth"><circle cx="4" cy="4" r="3" fill="#37474F"></circle></marker></defs><rect x="0" y="0" width="250" height="564.792" fill="#F4F9FB"></rect><g id="groups"><g><rect x="90" y="109" width="136" height="198.89600000000002" fill="none" stroke="#94A3B8" stroke-width="0.75" stroke-dasharray="4 4"></rect><text x="98" y="101" font-family="&#x27;Noto Sans&#x27;, sans-serif" font-size="8" font-weight="600" fill="#1A1A1A">us-east</text></g><g><rect x="24" y="341.896" width="147" height="198.89600000000002" fill="none" stroke="#94A3B8" stroke-width="0.75" stroke-dasharray="4 4"></rect><text x="32" y="333.896" font-family="&#x27;Noto Sans&#x27;, sans-serif" font-size="8" font-weight="600" fill="#1A1A1A">us-west</text></g></g><g id="nodes"><g><rect x="72.66666666666667" y="24" width="128" height="56" rx="4" ry="4" fill="#FFF0B3" stroke="#D4BE70" stroke-width="0.75"></rect><line x1="72.66666666666667" y1="39.68" x2="200.66666666666669" y2="39.68" stroke="#D4BE70" stroke-width="1"></line><circle cx="82.66666666666667" cy="31.84" r="2" fill="#D4BE70"></circle><circle cx="90.66666666666667" cy="31.84" r="2" fill="#D4BE70"></circle><rect x="100.66666666666667" y="28.84" width="86" height="6" rx="3" fill="#FFF0B3" stroke="#D4BE70" stroke-width="0.75"></rect><text x="136.66666666666669" y="64.884" text-anchor="middle" font-family="&#x27;Noto Sans&#x27;, sans-serif" font-size="13" font-weight="600" fill="#1A1A1A">Global DNS</text></g><g><rect x="102" y="121" width="112" height="56" rx="4" ry="4" fill="#FFF0B3" stroke="#D4BE70" stroke-width="0.75"></rect><rect x="102" y="121" width="112" height="17.92" rx="4" ry="4" fill="#D4BE70" opacity="0.35"></rect><circle cx="114" cy="129.96" r="2" fill="#D4BE70"></circle><circle cx="122" cy="129.96" r="2" fill="#D4BE70"></circle><text x="158" y="163.00400000000002" text-anchor="middle" font-family="&#x27;Noto Sans&#x27;, sans-serif" font-size="13" font-weight="600" fill="#1A1A1A">VPC East</text></g><g><rect x="102" y="197" width="112" height="56" rx="4" ry="4" fill="#FFF0B3" stroke="#D4BE70" stroke-width="0.75"></rect><rect x="102" y="197" width="112" height="17.92" rx="4" ry="4" fill="#D4BE70" opacity="0.35"></rect><circle cx="114" cy="205.96" r="2" fill="#D4BE70"></circle><circle cx="122" cy="205.96" r="2" fill="#D4BE70"></circle><text x="158" y="239.00400000000002" text-anchor="middle" font-family="&#x27;Noto Sans&#x27;, sans-serif" font-size="13" font-weight="600" fill="#1A1A1A">Compute East</text></g><g><g filter="url(#cora-shadow-blur)"><rect x="132.728" y="273.5" width="51.544" height="22.896" fill="#7050B8"></rect></g><rect x="132.228" y="273" width="51.544" height="22.896" fill="#C9B3FF" stroke="#9470DB" stroke-width="0.75"></rect><text x="158" y="287.55199999999996" text-anchor="middle" font-family="&#x27;Noto Sans&#x27;, sans-serif" font-size="8" font-weight="600" fill="#1A1A1A">DB East</text></g><g><rect x="36" y="353.896" width="112" height="56" rx="4" ry="4" fill="#FFF0B3" stroke="#D4BE70" stroke-width="0.75"></rect><rect x="36" y="353.896" width="112" height="17.92" rx="4" ry="4" fill="#D4BE70" opacity="0.35"></rect><circle cx="48" cy="362.856" r="2" fill="#D4BE70"></circle><circle cx="56" cy="362.856" r="2" fill="#D4BE70"></circle><text x="92" y="395.90000000000003" text-anchor="middle" font-family="&#x27;Noto Sans&#x27;, sans-serif" font-size="13" font-weight="600" fill="#1A1A1A">VPC West</text></g><g><rect x="36" y="429.896" width="112" height="56" rx="4" ry="4" fill="#FFF0B3" stroke="#D4BE70" stroke-width="0.75"></rect><rect x="36" y="429.896" width="112" height="17.92" rx="4" ry="4" fill="#D4BE70" opacity="0.35"></rect><circle cx="48" cy="438.856" r="2" fill="#D4BE70"></circle><circle cx="56" cy="438.856" r="2" fill="#D4BE70"></circle><text x="92" y="471.90000000000003" text-anchor="middle" font-family="&#x27;Noto Sans&#x27;, sans-serif" font-size="13" font-weight="600" fill="#1A1A1A">Compute West</text></g><g><g filter="url(#cora-shadow-blur)"><rect x="74.31866666666667" y="506.396" width="54.544" height="22.896" fill="#7050B8"></rect></g><rect x="73.81866666666667" y="505.896" width="54.544" height="22.896" fill="#C9B3FF" stroke="#9470DB" stroke-width="0.75"></rect><text x="101.09066666666666" y="520.4480000000001" text-anchor="middle" font-family="&#x27;Noto Sans&#x27;, sans-serif" font-size="8" font-weight="600" fill="#1A1A1A">DB West</text></g></g><g id="edges"><path d="M 158 82 L 158 114.6698729810778" fill="none" stroke="#37474F" stroke-width="0.75" marker-end="url(#cora-marker-arrow)"></path><path d="M 115.33333333333334 82 L 115.33333333333334 87.1 Q 115.33333333333334 92 110.33333333333334 92 L 85 92 Q 79 92 79 98 L 79 196.0302698238722 M 79 210.20226982387223 L 79 318.896 Q 79 324.896 85 324.896 L 92 324.896 L 92 347.5658729810778" fill="none" stroke="#37474F" stroke-width="0.75" marker-end="url(#cora-marker-arrow)"></path><path d="M 158 179 L 158 190.66987298107782" fill="none" stroke="#37474F" stroke-width="0.75" marker-end="url(#cora-marker-arrow)"></path><path d="M 158 255 L 158 266.6698729810778" fill="none" stroke="#37474F" stroke-width="0.75" marker-end="url(#cora-marker-arrow)"></path><path d="M 92 411.896 L 92 423.5658729810778" fill="none" stroke="#37474F" stroke-width="0.75" marker-end="url(#cora-marker-arrow)"></path><path d="M 92 487.896 L 92 499.5658729810778" fill="none" stroke="#37474F" stroke-width="0.75" marker-end="url(#cora-marker-arrow)"></path><path d="M 158 297.896 L 158 415.7593333333333 M 158 429.9313333333333 L 158 489.896 Q 158 495.896 152 495.896 L 110.18133333333333 495.896 L 110.18133333333333 499.976" fill="none" stroke="#37474F" stroke-width="0.75" marker-end="url(#cora-marker-arrow)"></path></g><g id="edge-labels"><g><rect x="147.377" y="92.7489364905389" width="21.246000000000002" height="11.172" rx="5.586" ry="5.586" fill="#F4F9FB"></rect><text x="158" y="100.6629364905389" text-anchor="middle" font-family="&#x27;Noto Sans&#x27;, sans-serif" font-size="6" font-weight="400" fill="#1A1A1A">route</text></g><g><rect x="68.377" y="197.5302698238722" width="21.246000000000002" height="11.172" rx="5.586" ry="5.586" fill="#F4F9FB"></rect><text x="79" y="205.44426982387222" text-anchor="middle" font-family="&#x27;Noto Sans&#x27;, sans-serif" font-size="6" font-weight="400" fill="#1A1A1A">route</text></g><g><rect x="142.838" y="417.2593333333333" width="30.324" height="11.172" rx="5.586" ry="5.586" fill="#F4F9FB"></rect><text x="158" y="425.1733333333333" text-anchor="middle" font-family="&#x27;Noto Sans&#x27;, sans-serif" font-size="6" font-weight="400" fill="#1A1A1A">replicate</text></g></g></svg>