<svg xmlns="http://www.w3.org/2000/svg" viewBox="0 0 199.264 399.272"><defs><filter id="cora-shadow-blur" x="-50%" y="-50%" width="200%" height="200%"><feGaussianBlur stdDeviation="1"></feGaussianBlur></filter><marker id="cora-marker-arrow" markerWidth="8" markerHeight="8" refX="7" refY="4" orient="auto" markerUnits="strokeWidth"><path d="M 0 0 L 8 4 L 0 8 z" fill="#37474F"></path></marker><marker id="cora-marker-circle" markerWidth="8" markerHeight="8" refX="4" refY="4" orient="auto" markerUnits="strokeWidth"><circle cx="4" cy="4" r="3" fill="none" stroke="#37474F" stroke-width="1.5"></circle></marker><marker id="cora-marker-filled-circle" markerWidth="8" markerHeight="8" refX="4" refY="4" orient="auto" markerUnits="strokeWidth"><circle cx="4" cy="4" r="3" fill="#37474F"></circle></marker></defs><rect x="0" y="0" width="199.264" height="399.272" fill="#F4F9FB"></rect><g id="groups"><g><rect x="75.088" y="75.896" width="100.176" height="132.688" fill="none" stroke="#94A3B8" stroke-width="0.75" stroke-dasharray="4 4"></rect><text x="83.088" y="67.896" font-family="&#x27;Noto Sans&#x27;, sans-serif" font-size="8" font-weight="600" fill="#1A1A1A">us-east</text></g><g><rect x="24" y="242.584" width="114.176" height="132.688" fill="none" stroke="#94A3B8" stroke-width="0.75" stroke-dasharray="4 4"></rect><text x="32" y="234.584" font-family="&#x27;Noto Sans&#x27;, sans-serif" font-size="8" font-weight="600" fill="#1A1A1A">us-west</text></g></g><g id="nodes"><g><rect x="81.416" y="24" width="65.64" height="22.896" rx="4" ry="4" fill="#FFF0B3" stroke="#D4BE70" stroke-width="0.75"></rect><line x1="81.416" y1="30.41088" x2="147.05599999999998" y2="30.41088" stroke="#D4BE70" stroke-width="1"></line><circle cx="91.416" cy="27.20544" r="2" fill="#D4BE70"></circle><circle cx="99.416" cy="27.20544" r="2" fill="#D4BE70"></circle><rect x="109.416" y="24.20544" width="23.64" height="6" rx="3" fill="#FFF0B3" stroke="#D4BE70" stroke-width="0.75"></rect><text x="114.23599999999999" y="43.69744" text-anchor="middle" font-family="&#x27;Noto Sans&#x27;, sans-serif" font-size="13" font-weight="600" fill="#1A1A1A">Global DNS</text></g><g><rect x="97.432" y="87.896" width="55.488" height="22.896" rx="4" ry="4" fill="#FFF0B3" stroke="#D4BE70" stroke-width="0.75"></rect><rect x="97.432" y="87.896" width="55.488" height="7.326720000000001" rx="4" ry="4" fill="#D4BE70" opacity="0.35"></rect><circle cx="109.432" cy="91.55936" r="2" fill="#D4BE70"></circle><circle cx="117.432" cy="91.55936" r="2" fill="#D4BE70"></circle><rect x="109.432" y="105.22272" width="15.536640000000002" height="-4.430720000000001" rx="3" fill="#D4BE70" opacity="0.18"></rect><text x="132.94432" y="108.05135999999999" text-anchor="middle" font-family="&#x27;Noto Sans&#x27;, sans-serif" font-size="13" font-weight="600" fill="#1A1A1A">VPC East</text></g><g><rect x="87.088" y="130.792" width="76.176" height="22.896" rx="4" ry="4" fill="#FFF0B3" stroke="#D4BE70" stroke-width="0.75"></rect><rect x="87.088" y="130.792" width="76.176" height="7.326720000000001" rx="4" ry="4" fill="#D4BE70" opacity="0.35"></rect><circle cx="99.088" cy="134.45536" r="2" fill="#D4BE70"></circle><circle cx="107.088" cy="134.45536" r="2" fill="#D4BE70"></circle><rect x="99.088" y="148.11872" width="21.329280000000004" height="-4.430720000000001" rx="3" fill="#D4BE70" opacity="0.18"></rect><text x="135.84064" y="150.94736" text-anchor="middle" font-family="&#x27;Noto Sans&#x27;, sans-serif" font-size="13" font-weight="600" fill="#1A1A1A">Compute East</text></g><g><g filter="url(#cora-shadow-blur)"><rect x="99.904" y="174.188" width="51.544" height="22.896" fill="#7050B8"></rect></g><rect x="99.404" y="173.688" width="51.544" height="22.896" fill="#C9B3FF" stroke="#9470DB" stroke-width="0.75"></rect><text x="125.17599999999999" y="188.24" text-anchor="middle" font-family="&#x27;Noto Sans&#x27;, sans-serif" font-size="8" font-weight="600" fill="#1A1A1A">DB East</text></g><g><rect x="46.344" y="254.584" width="58.488" height="22.896" rx="4" ry="4" fill="#FFF0B3" stroke="#D4BE70" stroke-width="0.75"></rect><rect x="46.344" y="254.584" width="58.488" height="7.326720000000001" rx="4" ry="4" fill="#D4BE70" opacity="0.35"></rect><circle cx="58.344" cy="258.24736" r="2" fill="#D4BE70"></circle><circle cx="66.344" cy="258.24736" r="2" fill="#D4BE70"></circle><rect x="58.344" y="271.91072" width="16.376640000000002" height="-4.430720000000001" rx="3" fill="#D4BE70" opacity="0.18"></rect><text x="83.77632" y="274.73936000000003" text-anchor="middle" font-family="&#x27;Noto Sans&#x27;, sans-serif" font-size="13" font-weight="600" fill="#1A1A1A">VPC West</text></g><g><rect x="36" y="297.48" width="79.176" height="22.896" rx="4" ry="4" fill="#FFF0B3" stroke="#D4BE70" stroke-width="0.75"></rect><rect x="36" y="297.48" width="79.176" height="7.326720000000001" rx="4" ry="4" fill="#D4BE70" opacity="0.35"></rect><circle cx="48" cy="301.14336000000003" r="2" fill="#D4BE70"></circle><circle cx="56" cy="301.14336000000003" r="2" fill="#D4BE70"></circle><rect x="48" y="314.80672000000004" width="22.169280000000004" height="-4.430720000000001" rx="3" fill="#D4BE70" opacity="0.18"></rect><text x="86.67264" y="317.63536000000005" text-anchor="middle" font-family="&#x27;Noto Sans&#x27;, sans-serif" font-size="13" font-weight="600" fill="#1A1A1A">Compute West</text></g><g><g filter="url(#cora-shadow-blur)"><rect x="57.906666666666666" y="340.876" width="54.544" height="22.896" fill="#7050B8"></rect></g><rect x="57.406666666666666" y="340.376" width="54.544" height="22.896" fill="#C9B3FF" stroke="#9470DB" stroke-width="0.75"></rect><text x="84.67866666666666" y="354.92799999999994" text-anchor="middle" font-family="&#x27;Noto Sans&#x27;, sans-serif" font-size="8" font-weight="600" fill="#1A1A1A">DB West</text></g></g><g id="edges"><path d="M 125.176 46.896 L 125.176 87.896" fill="none" stroke="#37474F" stroke-width="0.75" marker-end="url(#cora-marker-arrow)"></path><path d="M 103.29599999999999 46.896 L 103.29599999999999 58.896 L 64.088 58.896 L 64.088 225.584 L 75.588 225.584 L 75.588 254.584" fill="none" stroke="#37474F" stroke-width="0.75" marker-end="url(#cora-marker-arrow)"></path><path d="M 125.176 110.792 L 125.176 130.792" fill="none" stroke="#37474F" stroke-width="0.75" marker-end="url(#cora-marker-arrow)"></path><path d="M 125.176 153.688 L 125.176 173.688" fill="none" stroke="#37474F" stroke-width="0.75" marker-end="url(#cora-marker-arrow)"></path><path d="M 75.588 277.48 L 75.588 297.48" fill="none" stroke="#37474F" stroke-width="0.75" marker-end="url(#cora-marker-arrow)"></path><path d="M 75.588 320.376 L 75.588 340.376" fill="none" stroke="#37474F" stroke-width="0.75" marker-end="url(#cora-marker-arrow)"></path><path d="M 125.17599999999999 196.584 L 125.17599999999999 330.376 L 93.76933333333332 330.376 L 93.76933333333332 340.376" fill="none" stroke="#37474F" stroke-width="0.75" marker-end="url(#cora-marker-arrow)"></path></g><g id="edge-labels"><text x="125.176" y="67.55893649053891" text-anchor="middle" font-family="&#x27;Noto Sans&#x27;, sans-serif" font-size="6" font-weight="400" fill="#1A1A1A">route</text><text x="64.088" y="137.04893649053892" text-anchor="middle" font-family="&#x27;Noto Sans&#x27;, sans-serif" font-size="6" font-weight="400" fill="#1A1A1A">route</text><text x="125.17599999999999" y="284.5513333333333" text-anchor="middle" font-family="&#x27;Noto Sans&#x27;, sans-serif" font-size="6" font-weight="400" fill="#1A1A1A">replicate</text></g></svg>