<svg xmlns="http://www.w3.org/2000/svg" viewBox="0 0 199.264 399.272"><defs><filter id="cora-shadow-blur" x="-50%" y="-50%" width="200%" height="200%"><feGaussianBlur stdDeviation="1"></feGaussianBlur></filter><marker id="cora-marker-arrow" markerWidth="8" markerHeight="8" refX="7" refY="4" orient="auto" markerUnits="strokeWidth"><path d="M 0 0 L 8 4 L 0 8 z" fill="#37474F"></path></marker><marker id="cora-marker-circle" markerWidth="8" markerHeight="8" refX="4" refY="4" orient="auto" markerUnits="strokeWidth"><circle cx="4" cy="4" r="3" fill="none" stroke="#37474F" stroke-width="1.5"></circle></marker><marker id="cora-marker-filled-circle" markerWidth="8" markerHeight="8" refX="4" refY="4" orient="auto" markerUnits="strokeWidth"><circle cx="4" cy="4" r="3" fill="#37474F"></circle></marker></defs><rect x="0" y="0" width="199.264" height="399.272" fill="#F4F9FB"></rect><g id="groups"><g><rect x="75.088" y="75.896" width="100.176" height="132.688" fill="none" stroke="#94A3B8" stroke-width="0.75" stroke-dasharray="4 4"></rect><text x="83.088" y="67.896" font-family="&#x27;Noto Sans&#x27;, sans-serif" font-size="8" font-weight="600" fill="#1A1A1A">us-east</text></g><g><rect x="24" y="242.584" width="114.176" height="132.688" fill="none" stroke="#94A3B8" stroke-width="0.75" stroke-dasharray="4 4"></rect><text x="32" y="234.584" font-family="&#x27;Noto Sans&#x27;, sans-serif" font-size="8" font-weight="600" fill="#1A1A1A">us-west</text></g></g><g id="nodes"><g><g filter="url(#cora-shadow-blur)"><path d="M 98.326 39.382400000000004
    C 85.198 39.382400000000004, 85.198 32.5136, 98.326 32.5136
    C 98.326 27.9344, 111.454 26.7896, 118.018 30.224
    C 127.864 26.7896, 140.992 30.224, 137.70999999999998 34.803200000000004
    C 146.2432 35.948, 144.274 41.672, 131.14600000000002 41.672
    Z" fill="#B0A040"></path></g><path d="M 97.826 38.882400000000004
    C 84.698 38.882400000000004, 84.698 32.0136, 97.826 32.0136
    C 97.826 27.4344, 110.954 26.2896, 117.518 29.724
    C 127.364 26.2896, 140.492 29.724, 137.20999999999998 34.303200000000004
    C 145.7432 35.448, 143.774 41.172, 130.64600000000002 41.172
    Z" fill="#FFF0B3" stroke="#D4BE70" stroke-width="0.75"></path><text x="114.23599999999999" y="38.552" text-anchor="middle" font-family="&#x27;Noto Sans&#x27;, sans-serif" font-size="8" font-weight="600" fill="#1A1A1A">Global DNS</text></g><g><g filter="url(#cora-shadow-blur)"><path d="M 111.804 103.2784
    C 100.7064 103.2784, 100.7064 96.4096, 111.804 96.4096
    C 111.804 91.8304, 122.9016 90.6856, 128.4504 94.12
    C 136.7736 90.6856, 147.8712 94.12, 145.0968 98.6992
    C 152.31024 99.844, 150.6456 105.568, 139.548 105.568
    Z" fill="#B0A040"></path></g><path d="M 111.304 102.7784
    C 100.2064 102.7784, 100.2064 95.9096, 111.304 95.9096
    C 111.304 91.3304, 122.4016 90.1856, 127.9504 93.62
    C 136.2736 90.1856, 147.3712 93.62, 144.5968 98.1992
    C 151.81024 99.344, 150.1456 105.068, 139.048 105.068
    Z" fill="#FFF0B3" stroke="#D4BE70" stroke-width="0.75"></path><text x="125.176" y="102.448" text-anchor="middle" font-family="&#x27;Noto Sans&#x27;, sans-serif" font-size="8" font-weight="600" fill="#1A1A1A">VPC East</text></g><g><g filter="url(#cora-shadow-blur)"><rect x="87.588" y="131.292" width="76.176" height="22.896" rx="4" ry="4" fill="#2888CC"></rect></g><rect x="87.088" y="130.792" width="76.176" height="22.896" rx="4" ry="4" fill="#80CFFF" stroke="#3DAAF0" stroke-width="0.75"></rect><text x="125.17599999999999" y="145.34400000000002" text-anchor="middle" font-family="&#x27;Noto Sans&#x27;, sans-serif" font-size="8" font-weight="600" fill="#1A1A1A">Compute East</text></g><g><g filter="url(#cora-shadow-blur)"><rect x="99.904" y="176.4776" width="51.544" height="18.3168" fill="#289898"></rect><ellipse cx="125.67599999999999" cy="176.4776" rx="25.772" ry="2.2896" fill="#289898"></ellipse><ellipse cx="125.67599999999999" cy="194.7944" rx="25.772" ry="2.2896" fill="#289898"></ellipse></g><rect x="99.404" y="175.9776" width="51.544" height="18.3168" fill="#80E0E0" stroke="#40B8B8" stroke-width="0.75"></rect><ellipse cx="125.17599999999999" cy="175.9776" rx="25.772" ry="2.2896" fill="#80E0E0" stroke="#40B8B8" stroke-width="0.75"></ellipse><ellipse cx="125.17599999999999" cy="194.2944" rx="25.772" ry="2.2896" fill="#80E0E0" stroke="#40B8B8" stroke-width="0.75"></ellipse><text x="125.17599999999999" y="188.24" text-anchor="middle" font-family="&#x27;Noto Sans&#x27;, sans-serif" font-size="8" font-weight="600" fill="#1A1A1A">DB East</text></g><g><g filter="url(#cora-shadow-blur)"><path d="M 61.466 269.9664
    C 49.7684 269.9664, 49.7684 263.0976, 61.466 263.0976
    C 61.466 258.5184, 73.1636 257.3736, 79.01240000000001 260.808
    C 87.78559999999999 257.3736, 99.48320000000001 260.808, 96.55879999999999 265.3872
    C 104.16224 266.532, 102.4076 272.25600000000003, 90.71000000000001 272.25600000000003
    Z" fill="#B0A040"></path></g><path d="M 60.966 269.4664
    C 49.2684 269.4664, 49.2684 262.5976, 60.966 262.5976
    C 60.966 258.0184, 72.6636 256.8736, 78.51240000000001 260.308
    C 87.28559999999999 256.8736, 98.98320000000001 260.308, 96.05879999999999 264.8872
    C 103.66224 266.032, 101.9076 271.75600000000003, 90.21000000000001 271.75600000000003
    Z" fill="#FFF0B3" stroke="#D4BE70" stroke-width="0.75"></path><text x="75.588" y="269.13599999999997" text-anchor="middle" font-family="&#x27;Noto Sans&#x27;, sans-serif" font-size="8" font-weight="600" fill="#1A1A1A">VPC West</text></g><g><g filter="url(#cora-shadow-blur)"><rect x="36.5" y="297.98" width="79.176" height="22.896" rx="4" ry="4" fill="#2888CC"></rect></g><rect x="36" y="297.48" width="79.176" height="22.896" rx="4" ry="4" fill="#80CFFF" stroke="#3DAAF0" stroke-width="0.75"></rect><text x="75.588" y="312.032" text-anchor="middle" font-family="&#x27;Noto Sans&#x27;, sans-serif" font-size="8" font-weight="600" fill="#1A1A1A">Compute West</text></g><g><g filter="url(#cora-shadow-blur)"><rect x="57.906666666666666" y="343.1656" width="54.544" height="18.3168" fill="#289898"></rect><ellipse cx="85.17866666666666" cy="343.1656" rx="27.272" ry="2.2896" fill="#289898"></ellipse><ellipse cx="85.17866666666666" cy="361.4824" rx="27.272" ry="2.2896" fill="#289898"></ellipse></g><rect x="57.406666666666666" y="342.6656" width="54.544" height="18.3168" fill="#80E0E0" stroke="#40B8B8" stroke-width="0.75"></rect><ellipse cx="84.67866666666666" cy="342.6656" rx="27.272" ry="2.2896" fill="#80E0E0" stroke="#40B8B8" stroke-width="0.75"></ellipse><ellipse cx="84.67866666666666" cy="360.9824" rx="27.272" ry="2.2896" fill="#80E0E0" stroke="#40B8B8" stroke-width="0.75"></ellipse><text x="84.67866666666666" y="354.92799999999994" text-anchor="middle" font-family="&#x27;Noto Sans&#x27;, sans-serif" font-size="8" font-weight="600" fill="#1A1A1A">DB West</text></g></g><g id="edges"><path d="M 125.176 46.896 L 125.176 87.896" fill="none" stroke="#37474F" stroke-width="0.75" marker-end="url(#cora-marker-arrow)"></path><path d="M 103.29599999999999 46.896 L 103.29599999999999 58.896 L 64.088 58.896 L 64.088 225.584 L 75.588 225.584 L 75.588 254.584" fill="none" stroke="#37474F" stroke-width="0.75" marker-end="url(#cora-marker-arrow)"></path><path d="M 125.176 110.792 L 125.176 130.792" fill="none" stroke="#37474F" stroke-width="0.75" marker-end="url(#cora-marker-arrow)"></path><path d="M 125.176 153.688 L 125.176 173.688" fill="none" stroke="#37474F" stroke-width="0.75" marker-end="url(#cora-marker-arrow)"></path><path d="M 75.588 277.48 L 75.588 297.48" fill="none" stroke="#37474F" stroke-width="0.75" marker-end="url(#cora-marker-arrow)"></path><path d="M 75.588 320.376 L 75.588 340.376" fill="none" stroke="#37474F" stroke-width="0.75" marker-end="url(#cora-marker-arrow)"></path><path d="M 125.17599999999999 196.584 L 125.17599999999999 330.376 L 93.76933333333332 330.376 L 93.76933333333332 340.376" fill="none" stroke="#37474F" stroke-width="0.75" marker-end="url(#cora-marker-arrow)"></path></g><g id="edge-labels"><text x="125.176" y="67.55893649053891" text-anchor="middle" font-family="&#x27;Noto Sans&#x27;, sans-serif" font-size="6" font-weight="400" fill="#1A1A1A">route</text><text x="64.088" y="137.04893649053892" text-anchor="middle" font-family="&#x27;Noto Sans&#x27;, sans-serif" font-size="6" font-weight="400" fill="#1A1A1A">route</text><text x="125.17599999999999" y="284.5513333333333" text-anchor="middle" font-family="&#x27;Noto Sans&#x27;, sans-serif" font-size="6" font-weight="400" fill="#1A1A1A">replicate</text></g></svg>