<svg xmlns="http://www.w3.org/2000/svg" viewBox="-38.57 -53 1037.3836666666666 848.752"><defs><filter id="cora-shadow-blur" x="-50%" y="-50%" width="200%" height="200%"><feGaussianBlur stdDeviation="0"></feGaussianBlur></filter><marker id="cora-marker-arrow" markerWidth="8" markerHeight="8" refX="8" refY="4" orient="auto-start-reverse" markerUnits="userSpaceOnUse"><path d="M 0 0 L 8 4 L 0 8 z" fill="#334155"></path></marker><marker id="cora-marker-circle" markerWidth="8" markerHeight="8" refX="4" refY="4" orient="auto-start-reverse" markerUnits="userSpaceOnUse"><circle cx="4" cy="4" r="2.88" fill="none" stroke="#334155" stroke-width="1.5"></circle></marker><marker id="cora-marker-filled-circle" markerWidth="8" markerHeight="8" refX="4" refY="4" orient="auto-start-reverse" markerUnits="userSpaceOnUse"><circle cx="4" cy="4" r="2.88" fill="#334155"></circle></marker><marker id="cora-marker-diamond" markerWidth="8" markerHeight="8" refX="4" refY="4" orient="auto-start-reverse" markerUnits="userSpaceOnUse"><path d="M 4 0 L 8 4 L 4 8 L 0 4 Z" fill="none" stroke="#334155" stroke-width="1.5"></path></marker><marker id="cora-marker-filled-diamond" markerWidth="8" markerHeight="8" refX="4" refY="4" orient="auto-start-reverse" markerUnits="userSpaceOnUse"><path d="M 4 0 L 8 4 L 4 8 L 0 4 Z" fill="#334155"></path></marker><marker id="cora-marker-square" markerWidth="8" markerHeight="8" refX="4" refY="4" orient="auto-start-reverse" markerUnits="userSpaceOnUse"><rect x="1.12" y="1.12" width="5.76" height="5.76" fill="none" stroke="#334155" stroke-width="1.5"></rect></marker><marker id="cora-marker-filled-square" markerWidth="8" markerHeight="8" refX="4" refY="4" orient="auto-start-reverse" markerUnits="userSpaceOnUse"><rect x="1.12" y="1.12" width="5.76" height="5.76" fill="#334155"></rect></marker></defs><rect x="-38.57" y="-53" width="1037.3836666666666" height="848.752" fill="#f8fafc"></rect><g id="groups"><g><rect x="46.69066666666669" y="24" width="478.74" height="317.376" fill="none" stroke="#94a3b8" stroke-width="1" stroke-dasharray="4 4"></rect><text x="54.69066666666669" y="16" font-family="&#x27;Noto Sans&#x27;, sans-serif" font-size="12" font-weight="600" fill="#0f172a">Customer Experience</text></g><g><rect x="24" y="437.376" width="877.4986666666666" height="281.376" fill="none" stroke="#94a3b8" stroke-width="1" stroke-dasharray="4 4"></rect><text x="32" y="429.376" font-family="&#x27;Noto Sans&#x27;, sans-serif" font-size="12" font-weight="600" fill="#0f172a">Commerce Platform</text></g></g><g id="nodes"><g><rect x="354.4066666666667" y="36" width="101.944" height="32.344" rx="8" ry="8" fill="#ffffff" stroke="#cbd5e1" stroke-width="1"></rect><text x="405.3786666666667" y="56.827999999999996" text-anchor="middle" font-family="&#x27;Noto Sans&#x27;, sans-serif" font-size="12" font-weight="600" fill="#0f172a"><tspan x="405.3786666666667" dy="0">API Gateway</tspan></text></g><g><rect x="248.45533333333339" y="104.344" width="77.668" height="32.344" rx="8" ry="8" fill="#ffffff" stroke="#cbd5e1" stroke-width="1"></rect><text x="287.2893333333334" y="125.172" text-anchor="middle" font-family="&#x27;Noto Sans&#x27;, sans-serif" font-size="12" font-weight="600" fill="#0f172a"><tspan x="287.2893333333334" dy="0">Web BFF</tspan></text></g><g><rect x="376.46133333333336" y="104.344" width="91.816" height="32.344" rx="8" ry="8" fill="#ffffff" stroke="#cbd5e1" stroke-width="1"></rect><text x="422.3693333333334" y="125.172" text-anchor="middle" font-family="&#x27;Noto Sans&#x27;, sans-serif" font-size="12" font-weight="600" fill="#0f172a"><tspan x="422.3693333333334" dy="0">Mobile BFF</tspan></text></g><g><rect x="253.55600000000004" y="182.688" width="101.2" height="32.344" rx="8" ry="8" fill="#ffffff" stroke="#cbd5e1" stroke-width="1"></rect><text x="304.15600000000006" y="203.516" text-anchor="middle" font-family="&#x27;Noto Sans&#x27;, sans-serif" font-size="12" font-weight="600" fill="#0f172a"><tspan x="304.15600000000006" dy="0">Auth Service</tspan></text></g><g><rect x="268.03466666666674" y="261.032" width="105.976" height="32.344" rx="8" ry="8" fill="#ffffff" stroke="#cbd5e1" stroke-width="1"></rect><text x="321.02266666666674" y="281.86" text-anchor="middle" font-family="&#x27;Noto Sans&#x27;, sans-serif" font-size="12" font-weight="600" fill="#0f172a"><tspan x="321.02266666666674" dy="0">Users Service</tspan></text></g><g><rect x="378.75600000000003" y="182.688" width="117.832" height="32.344" rx="8" ry="8" fill="#ffffff" stroke="#cbd5e1" stroke-width="1"></rect><text x="437.672" y="203.516" text-anchor="middle" font-family="&#x27;Noto Sans&#x27;, sans-serif" font-size="12" font-weight="600" fill="#0f172a"><tspan x="437.672" dy="0">Catalog Service</tspan></text></g><g><rect x="401.1906666666667" y="261.032" width="112.24" height="32.344" rx="8" ry="8" fill="#ffffff" stroke="#cbd5e1" stroke-width="1"></rect><text x="457.3106666666667" y="281.86" text-anchor="middle" font-family="&#x27;Noto Sans&#x27;, sans-serif" font-size="12" font-weight="600" fill="#0f172a"><tspan x="457.3106666666667" dy="0">Search Service</tspan></text></g><g><rect x="131.848" y="182.688" width="97.708" height="32.344" rx="8" ry="8" fill="#ffffff" stroke="#cbd5e1" stroke-width="1"></rect><text x="180.702" y="203.516" text-anchor="middle" font-family="&#x27;Noto Sans&#x27;, sans-serif" font-size="12" font-weight="600" fill="#0f172a"><tspan x="180.702" dy="0">Cart Service</tspan></text></g><g><rect x="58.69066666666669" y="261.032" width="128.296" height="32.344" rx="8" ry="8" fill="#ffffff" stroke="#cbd5e1" stroke-width="1"></rect><text x="122.83866666666668" y="281.86" text-anchor="middle" font-family="&#x27;Noto Sans&#x27;, sans-serif" font-size="12" font-weight="600" fill="#0f172a"><tspan x="122.83866666666668" dy="0">Checkout Service</tspan></text></g><g><rect x="188.04666666666668" y="36" width="142.36" height="32.344" rx="8" ry="8" fill="#ffffff" stroke="#cbd5e1" stroke-width="1"></rect><text x="259.2266666666667" y="56.827999999999996" text-anchor="middle" font-family="&#x27;Noto Sans&#x27;, sans-serif" font-size="12" font-weight="600" fill="#0f172a"><tspan x="259.2266666666667" dy="0">Notification Service</tspan></text></g><g><rect x="263.448" y="517.72" width="113.02" height="32.344" rx="8" ry="8" fill="#ffffff" stroke="#cbd5e1" stroke-width="1"></rect><text x="319.95799999999997" y="538.548" text-anchor="middle" font-family="&#x27;Noto Sans&#x27;, sans-serif" font-size="12" font-weight="600" fill="#0f172a"><tspan x="319.95799999999997" dy="0">Orders Service</tspan></text></g><g><rect x="36" y="596.064" width="130.912" height="32.344" rx="8" ry="8" fill="#ffffff" stroke="#cbd5e1" stroke-width="1"></rect><text x="101.456" y="616.8919999999999" text-anchor="middle" font-family="&#x27;Noto Sans&#x27;, sans-serif" font-size="12" font-weight="600" fill="#0f172a"><tspan x="101.456" dy="0">Payments Service</tspan></text></g><g><rect x="190.91200000000003" y="596.064" width="130.348" height="32.344" rx="8" ry="8" fill="#ffffff" stroke="#cbd5e1" stroke-width="1"></rect><text x="256.086" y="616.8919999999999" text-anchor="middle" font-family="&#x27;Noto Sans&#x27;, sans-serif" font-size="12" font-weight="600" fill="#0f172a"><tspan x="256.086" dy="0">Inventory Service</tspan></text></g><g><rect x="342.26" y="674.4079999999999" width="113.524" height="32.344" rx="8" ry="8" fill="#ffffff" stroke="#cbd5e1" stroke-width="1"></rect><text x="399.022" y="695.2359999999999" text-anchor="middle" font-family="&#x27;Noto Sans&#x27;, sans-serif" font-size="12" font-weight="600" fill="#0f172a"><tspan x="399.022" dy="0">Pricing Service</tspan></text></g><g><rect x="546.7226666666667" y="596.064" width="136.168" height="32.344" rx="8" ry="8" fill="#ffffff" stroke="#cbd5e1" stroke-width="1"></rect><text x="614.8066666666666" y="616.8919999999999" text-anchor="middle" font-family="&#x27;Noto Sans&#x27;, sans-serif" font-size="12" font-weight="600" fill="#0f172a"><tspan x="614.8066666666666" dy="0">Fulfillment Service</tspan></text></g><g><rect x="501.6293333333333" y="674.4079999999999" width="125.872" height="32.344" rx="8" ry="8" fill="#ffffff" stroke="#cbd5e1" stroke-width="1"></rect><text x="564.5653333333333" y="695.2359999999999" text-anchor="middle" font-family="&#x27;Noto Sans&#x27;, sans-serif" font-size="12" font-weight="600" fill="#0f172a"><tspan x="564.5653333333333" dy="0">Analytics Service</tspan></text></g><g><rect x="706.8906666666667" y="596.064" width="182.608" height="32.344" rx="8" ry="8" fill="#ffffff" stroke="#cbd5e1" stroke-width="1"></rect><text x="798.1946666666666" y="616.8919999999999" text-anchor="middle" font-family="&#x27;Noto Sans&#x27;, sans-serif" font-size="12" font-weight="600" fill="#0f172a"><tspan x="798.1946666666666" dy="0">Recommendations Service</tspan></text></g><g><rect x="437.31466666666665" y="596.064" width="85.408" height="32.344" rx="8" ry="8" fill="#ffffff" stroke="#cbd5e1" stroke-width="1"></rect><text x="480.01866666666666" y="616.8919999999999" text-anchor="middle" font-family="&#x27;Noto Sans&#x27;, sans-serif" font-size="12" font-weight="600" fill="#0f172a"><tspan x="480.01866666666666" dy="0">Event Bus</tspan></text></g><g><rect x="113.33333333333337" y="449.376" width="111.028" height="32.344" rx="8" ry="8" fill="#ffffff" stroke="#cbd5e1" stroke-width="1"></rect><text x="168.84733333333338" y="470.204" text-anchor="middle" font-family="&#x27;Noto Sans&#x27;, sans-serif" font-size="12" font-weight="600" fill="#0f172a"><tspan x="168.84733333333338" dy="0">Config Service</tspan></text></g><g><rect x="653.308" y="449.376" width="104.452" height="32.344" rx="8" ry="8" fill="#ffffff" stroke="#cbd5e1" stroke-width="1"></rect><text x="705.534" y="470.204" text-anchor="middle" font-family="&#x27;Noto Sans&#x27;, sans-serif" font-size="12" font-weight="600" fill="#0f172a"><tspan x="705.534" dy="0">Audit Service</tspan></text></g></g><g id="edges"><path d="M 388.38800000000003 70.344 L 388.38800000000003 82.344 Q 388.38800000000003 86.344 384.38800000000003 86.344 L 287.2893333333334 86.344 L 287.2893333333334 94.50399999999999" fill="none" stroke="#334155" stroke-width="2"></path><path d="M 422.3693333333334 70.344 L 422.3693333333334 94.344" fill="none" stroke="#334155" stroke-width="2"></path><path d="M 287.2893333333334 138.688 L 287.2893333333334 172.688" fill="none" stroke="#334155" stroke-width="2"></path><path d="M 407.0666666666667 138.688 L 407.0666666666667 150.688 Q 407.0666666666667 154.688 403.0666666666667 154.688 L 325.0226666666667 154.688 Q 321.0226666666667 154.688 321.0226666666667 158.688 L 321.0226666666667 172.688" fill="none" stroke="#334155" stroke-width="2"></path><path d="M 306.70633333333336 138.688 L 306.70633333333336 160.688 Q 306.70633333333336 164.688 310.70633333333336 164.688 L 318.0226666666667 164.688 L 324.0226666666667 164.688 L 408.21400000000006 164.688 L 408.21400000000006 172.84799999999998" fill="none" stroke="#334155" stroke-width="2"></path><path d="M 437.6720000000001 138.688 L 437.6720000000001 172.688" fill="none" stroke="#334155" stroke-width="2"></path><path d="M 321.0226666666667 217.03199999999998 L 321.02266666666674 251.03199999999998" fill="none" stroke="#334155" stroke-width="2"></path><path d="M 457.3106666666667 217.03199999999998 L 457.3106666666667 251.03199999999998" fill="none" stroke="#334155" stroke-width="2"></path><path d="M 267.87233333333336 138.688 L 267.87233333333336 150.688 Q 267.87233333333336 154.688 263.87233333333336 154.688 L 200.98666666666668 154.688 Q 196.98666666666668 154.688 196.98666666666668 158.688 L 196.98666666666668 172.688" fill="none" stroke="#334155" stroke-width="2"></path><path d="M 164.41733333333337 217.03199999999998 L 164.41733333333337 229.03199999999998 Q 164.41733333333337 233.03199999999998 160.41733333333337 233.03199999999998 L 126.83866666666671 233.03199999999998 Q 122.83866666666671 233.03199999999998 122.83866666666671 237.03199999999998 L 122.83866666666671 251.03199999999998" fill="none" stroke="#334155" stroke-width="2"></path><path d="M 286.05199999999996 552.064 L 286.05199999999996 564.064 Q 286.05199999999996 568.064 282.05199999999996 568.064 L 231.3613333333334 568.064 L 237.3613333333334 568.064 L 138.18399999999997 568.064 Q 134.18399999999997 568.064 134.18399999999997 572.064 L 134.18399999999997 586.064" fill="none" stroke="#334155" stroke-width="2"></path><path d="M 308.65599999999995 552.064 L 308.65599999999995 574.064 Q 308.65599999999995 578.064 304.65599999999995 578.064 L 277.8106666666667 578.064 L 277.8106666666667 586.2239999999999" fill="none" stroke="#334155" stroke-width="2"></path><path d="M 353.864 552.064 L 353.864 564.064 Q 353.864 568.064 357.864 568.064 L 414.9426666666667 568.064 L 420.9426666666667 568.064 L 610.8066666666666 568.064 Q 614.8066666666666 568.064 614.8066666666666 572.064 L 614.8066666666666 586.064" fill="none" stroke="#334155" stroke-width="2"></path><path d="M 277.8106666666667 630.4079999999999 L 277.8106666666667 642.4079999999999 Q 277.8106666666667 646.4079999999999 281.8106666666667 646.4079999999999 L 328.26 646.4079999999999 L 334.26 646.4079999999999 L 376.10133333333334 646.4079999999999 Q 380.10133333333334 646.4079999999999 380.10133333333334 650.4079999999999 L 380.10133333333334 664.4079999999999" fill="none" stroke="#334155" stroke-width="2"></path><path d="M 592.112 630.4079999999999 L 592.112 642.4079999999999 Q 592.112 646.4079999999999 588.112 646.4079999999999 L 568.5653333333333 646.4079999999999 Q 564.5653333333333 646.4079999999999 564.5653333333333 650.4079999999999 L 564.5653333333333 664.4079999999999" fill="none" stroke="#334155" stroke-width="2"></path><path d="M 767.76 630.4079999999999 L 767.76 652.4079999999999 Q 767.76 656.4079999999999 763.76 656.4079999999999 L 634.5013333333334 656.4079999999999 L 640.5013333333334 656.4079999999999 L 596.0333333333333 656.4079999999999 L 596.0333333333333 664.5679999999999" fill="none" stroke="#334155" stroke-width="2"></path><path d="M 494.25333333333333 630.4079999999999 L 494.25333333333333 642.4079999999999 Q 494.25333333333333 646.4079999999999 498.25333333333333 646.4079999999999 L 529.0973333333334 646.4079999999999 Q 533.0973333333334 646.4079999999999 533.0973333333334 650.4079999999999 L 533.0973333333334 664.4079999999999" fill="none" stroke="#334155" stroke-width="2"></path><path d="M 187.3520000000001 483.72 L 187.3520000000001 495.72 Q 187.3520000000001 499.72 191.3520000000001 499.72 L 231.3613333333334 499.72 L 237.3613333333334 499.72 L 301.1213333333333 499.72 L 301.1213333333333 507.88000000000005" fill="none" stroke="#334155" stroke-width="2"></path><path d="M 150.34266666666667 483.72 L 150.34266666666667 495.72 Q 150.34266666666667 499.72 146.34266666666667 499.72 L 98.45600000000002 499.72 L 104.45600000000002 499.72 L 94.45600000000002 499.72 Q 90.45600000000002 499.72 90.45600000000002 503.72 L 90.45600000000002 564.064 Q 90.45600000000002 568.064 86.45600000000002 568.064 L 72.72799999999995 568.064 Q 68.72799999999995 568.064 68.72799999999995 572.064 L 68.72799999999995 586.064" fill="none" stroke="#334155" stroke-width="2"></path><path d="M 144.22133333333335 295.376 L 144.22133333333335 400.376 Q 144.22133333333335 404.376 148.22133333333335 404.376 L 213.04000000000002 404.376 M 272.32000000000005 404.376 L 334.79466666666667 404.376 Q 338.79466666666667 404.376 338.79466666666667 408.376 L 338.79466666666667 507.72" fill="none" stroke="#334155" stroke-width="2"></path><path d="M 101.45600000000002 295.376 L 101.45600000000002 434.90999999999997 M 101.45600000000002 454.53 L 101.45600000000002 586.064" fill="none" stroke="#334155" stroke-width="2"></path><path d="M 196.98666666666668 217.03199999999998 L 196.98666666666668 307.376 Q 196.98666666666668 311.376 192.98666666666668 311.376 L 138.22133333333335 311.376 Q 134.22133333333335 311.376 134.22133333333335 315.376 L 134.22133333333335 410.376 Q 134.22133333333335 414.376 138.22133333333335 414.376 M 172.1506666666667 414.376 L 230.3613333333334 414.376 Q 234.3613333333334 414.376 234.3613333333334 418.376 L 234.3613333333334 586.064" fill="none" stroke="#334155" stroke-width="2"></path><path d="M 418.0333333333334 217.03199999999998 L 418.0333333333334 229.03199999999998 Q 418.0333333333334 233.03199999999998 414.0333333333334 233.03199999999998 L 250.03466666666674 233.03199999999998 Q 246.03466666666674 233.03199999999998 246.03466666666674 237.03199999999998 L 246.03466666666674 390.376 Q 246.03466666666674 394.376 250.03466666666674 394.376 L 270.0483333333333 394.376 M 322.61833333333334 394.376 L 413.9426666666667 394.376 Q 417.9426666666667 394.376 417.9426666666667 398.376 L 417.9426666666667 664.4079999999999" fill="none" stroke="#334155" stroke-width="2"></path><path d="M 457.3106666666667 295.376 L 457.3106666666667 360.376 Q 457.3106666666667 364.376 461.3106666666667 364.376 L 693.2890000000001 364.376 M 753.339 364.376 L 824.6293333333333 364.376 Q 828.6293333333333 364.376 828.6293333333333 368.376 L 828.6293333333333 586.064" fill="none" stroke="#334155" stroke-width="2"></path><path d="M 287.2893333333334 217.03199999999998 L 287.2893333333334 239.03199999999998 Q 287.2893333333334 243.03199999999998 283.2893333333334 243.03199999999998 L 261.03466666666674 243.03199999999998 Q 257.03466666666674 243.03199999999998 257.03466666666674 247.03199999999998 L 257.03466666666674 380.376 Q 257.03466666666674 384.376 261.03466666666674 384.376 L 382.5450000000001 384.376 M 445.42500000000007 384.376 L 701.534 384.376 Q 705.534 384.376 705.534 388.376 L 705.534 439.376" fill="none" stroke="#334155" stroke-width="2"></path><path d="M 321.02266666666674 295.376 L 321.02266666666674 370.376 Q 321.02266666666674 374.376 325.02266666666674 374.376 L 583.8453333333333 374.376 M 645.6253333333333 374.376 L 763.76 374.376 Q 767.76 374.376 767.76 378.376 L 767.76 586.064" fill="none" stroke="#334155" stroke-width="2"></path><path d="M 331.26 552.064 L 331.26 767.752 Q 331.26 771.752 335.26 771.752 L 937.4986666666666 771.752 Q 941.4986666666666 771.752 941.4986666666666 767.752 L 941.4986666666666 396.7753333333333 M 941.4986666666666 416.3953333333333 L 941.4986666666666 -25 Q 941.4986666666666 -29 937.4986666666666 -29 L 248.9906666666667 -29 Q 244.9906666666667 -29 244.9906666666667 -25 L 244.9906666666667 26" fill="none" stroke="#334155" stroke-width="2"></path><path d="M 101.45600000000002 630.4079999999999 L 101.45600000000002 747.752 Q 101.45600000000002 751.752 97.45600000000002 751.752 L 8 751.752 Q 4 751.752 4 747.752 L 4 323.2066666666666 M 4 342.8266666666666 L 4 -25 Q 4 -29 8 -29 L 212.51866666666666 -29 Q 216.51866666666666 -29 216.51866666666666 -25 L 216.51866666666666 26" fill="none" stroke="#334155" stroke-width="2"></path><path d="M 234.3613333333334 630.4079999999999 L 234.3613333333334 642.4079999999999 Q 234.3613333333334 646.4079999999999 230.3613333333334 646.4079999999999 L 98.45600000000002 646.4079999999999 L 104.45600000000002 646.4079999999999 L 94.45600000000002 646.4079999999999 Q 90.45600000000002 646.4079999999999 90.45600000000002 650.4079999999999 L 90.45600000000002 737.752 Q 90.45600000000002 741.752 86.45600000000002 741.752 L 18 741.752 Q 14 741.752 14 737.752 L 14 362.36600000000004 M 14 381.98600000000005 L 14 5 Q 14 1 18 1 L 160.41733333333332 1 Q 164.41733333333332 1 164.41733333333332 5 L 164.41733333333332 172.688" fill="none" stroke="#334155" stroke-width="2"></path><path d="M 828.6293333333333 630.4079999999999 L 828.6293333333333 737.752 Q 828.6293333333333 741.752 832.6293333333333 741.752 L 907.4986666666666 741.752 Q 911.4986666666666 741.752 911.4986666666666 737.752 L 911.4986666666666 146.64433333333335 M 911.4986666666666 166.26433333333335 L 911.4986666666666 5 Q 911.4986666666666 1 907.4986666666666 1 L 482.2773333333334 1 Q 478.2773333333334 1 478.2773333333334 5 L 478.2773333333334 150.688 Q 478.2773333333334 154.688 474.2773333333334 154.688 L 471.13000000000005 154.688 Q 467.13000000000005 154.688 467.13000000000005 158.688 L 467.13000000000005 172.688" fill="none" stroke="#334155" stroke-width="2"></path><path d="M 465.784 630.4079999999999 L 465.784 757.752 Q 465.784 761.752 469.784 761.752 L 927.4986666666666 761.752 Q 931.4986666666666 761.752 931.4986666666666 757.752 L 931.4986666666666 304.57733333333323 M 931.4986666666666 324.19733333333323 L 931.4986666666666 -15 Q 931.4986666666666 -19 927.4986666666666 -19 L 277.4626666666667 -19 Q 273.4626666666667 -19 273.4626666666667 -15 L 273.4626666666667 26" fill="none" stroke="#334155" stroke-width="2"></path><path d="M 637.5013333333334 630.4079999999999 L 637.5013333333334 747.752 Q 637.5013333333334 751.752 641.5013333333334 751.752 L 917.4986666666666 751.752 Q 921.4986666666666 751.752 921.4986666666666 747.752 L 921.4986666666666 232.9546666666667 M 921.4986666666666 252.5746666666667 L 921.4986666666666 -5 Q 921.4986666666666 -9 917.4986666666666 -9 L 305.93466666666666 -9 Q 301.93466666666666 -9 301.93466666666666 -5 L 301.93466666666666 26" fill="none" stroke="#334155" stroke-width="2"></path><path d="M 388.38800000000003 70.344 L 388.38800000000003 78.344 Q 388.38800000000003 86.344 380.38800000000003 86.344 L 295.2893333333334 86.344 Q 287.2893333333334 86.344 287.2893333333334 94.344 L 287.2893333333334 102.344" fill="none" stroke="transparent" stroke-width="0.001" marker-end="url(#cora-marker-arrow)"></path><path d="M 422.3693333333334 70.344 L 422.3693333333334 102.344" fill="none" stroke="transparent" stroke-width="0.001" marker-end="url(#cora-marker-arrow)"></path><path d="M 287.2893333333334 138.688 L 287.2893333333334 180.688" fill="none" stroke="transparent" stroke-width="0.001" marker-end="url(#cora-marker-arrow)"></path><path d="M 407.0666666666667 138.688 L 407.0666666666667 146.688 Q 407.0666666666667 154.688 399.0666666666667 154.688 L 329.0226666666667 154.688 Q 321.0226666666667 154.688 321.0226666666667 162.688 L 321.0226666666667 180.688" fill="none" stroke="transparent" stroke-width="0.001" marker-end="url(#cora-marker-arrow)"></path><path d="M 306.70633333333336 138.688 L 306.70633333333336 156.688 Q 306.70633333333336 164.688 314.70633333333336 164.688 L 400.21400000000006 164.688 Q 408.21400000000006 164.688 408.21400000000006 172.688 L 408.21400000000006 180.688" fill="none" stroke="transparent" stroke-width="0.001" marker-end="url(#cora-marker-arrow)"></path><path d="M 437.6720000000001 138.688 L 437.6720000000001 180.688" fill="none" stroke="transparent" stroke-width="0.001" marker-end="url(#cora-marker-arrow)"></path><path d="M 321.0226666666667 217.03199999999998 L 321.02266666666674 259.032" fill="none" stroke="transparent" stroke-width="0.001" marker-end="url(#cora-marker-arrow)"></path><path d="M 457.3106666666667 217.03199999999998 L 457.3106666666667 259.032" fill="none" stroke="transparent" stroke-width="0.001" marker-end="url(#cora-marker-arrow)"></path><path d="M 267.87233333333336 138.688 L 267.87233333333336 146.688 Q 267.87233333333336 154.688 259.87233333333336 154.688 L 204.98666666666668 154.688 Q 196.98666666666668 154.688 196.98666666666668 162.688 L 196.98666666666668 180.688" fill="none" stroke="transparent" stroke-width="0.001" marker-end="url(#cora-marker-arrow)"></path><path d="M 164.41733333333337 217.03199999999998 L 164.41733333333337 225.03199999999998 Q 164.41733333333337 233.03199999999998 156.41733333333337 233.03199999999998 L 130.8386666666667 233.03199999999998 Q 122.83866666666671 233.03199999999998 122.83866666666671 241.03199999999998 L 122.83866666666671 259.032" fill="none" stroke="transparent" stroke-width="0.001" marker-end="url(#cora-marker-arrow)"></path><path d="M 286.05199999999996 552.064 L 286.05199999999996 560.064 Q 286.05199999999996 568.064 278.05199999999996 568.064 L 142.18399999999997 568.064 Q 134.18399999999997 568.064 134.18399999999997 576.064 L 134.18399999999997 594.064" fill="none" stroke="transparent" stroke-width="0.001" marker-end="url(#cora-marker-arrow)"></path><path d="M 308.65599999999995 552.064 L 308.65599999999995 570.064 Q 308.65599999999995 578.064 300.65599999999995 578.064 L 285.8106666666667 578.064 Q 277.8106666666667 578.064 277.8106666666667 586.064 L 277.8106666666667 594.064" fill="none" stroke="transparent" stroke-width="0.001" marker-end="url(#cora-marker-arrow)"></path><path d="M 353.864 552.064 L 353.864 560.064 Q 353.864 568.064 361.864 568.064 L 606.8066666666666 568.064 Q 614.8066666666666 568.064 614.8066666666666 576.064 L 614.8066666666666 594.064" fill="none" stroke="transparent" stroke-width="0.001" marker-end="url(#cora-marker-arrow)"></path><path d="M 277.8106666666667 630.4079999999999 L 277.8106666666667 638.4079999999999 Q 277.8106666666667 646.4079999999999 285.8106666666667 646.4079999999999 L 372.10133333333334 646.4079999999999 Q 380.10133333333334 646.4079999999999 380.10133333333334 654.4079999999999 L 380.10133333333334 672.4079999999999" fill="none" stroke="transparent" stroke-width="0.001" marker-end="url(#cora-marker-arrow)"></path><path d="M 592.112 630.4079999999999 L 592.112 638.4079999999999 Q 592.112 646.4079999999999 584.112 646.4079999999999 L 572.5653333333333 646.4079999999999 Q 564.5653333333333 646.4079999999999 564.5653333333333 654.4079999999999 L 564.5653333333333 672.4079999999999" fill="none" stroke="transparent" stroke-width="0.001" marker-end="url(#cora-marker-arrow)"></path><path d="M 767.76 630.4079999999999 L 767.76 648.4079999999999 Q 767.76 656.4079999999999 759.76 656.4079999999999 L 604.0333333333333 656.4079999999999 Q 596.0333333333333 656.4079999999999 596.0333333333333 664.4079999999999 L 596.0333333333333 672.4079999999999" fill="none" stroke="transparent" stroke-width="0.001" marker-end="url(#cora-marker-arrow)"></path><path d="M 494.25333333333333 630.4079999999999 L 494.25333333333333 638.4079999999999 Q 494.25333333333333 646.4079999999999 502.25333333333333 646.4079999999999 L 525.0973333333334 646.4079999999999 Q 533.0973333333334 646.4079999999999 533.0973333333334 654.4079999999999 L 533.0973333333334 672.4079999999999" fill="none" stroke="transparent" stroke-width="0.001" marker-end="url(#cora-marker-arrow)"></path><path d="M 187.3520000000001 483.72 L 187.3520000000001 491.72 Q 187.3520000000001 499.72 195.3520000000001 499.72 L 293.1213333333333 499.72 Q 301.1213333333333 499.72 301.1213333333333 507.72 L 301.1213333333333 515.72" fill="none" stroke="transparent" stroke-width="0.001" marker-end="url(#cora-marker-arrow)"></path><path d="M 150.34266666666667 483.72 L 150.34266666666667 491.72 Q 150.34266666666667 499.72 142.34266666666667 499.72 L 98.45600000000002 499.72 Q 90.45600000000002 499.72 90.45600000000002 507.72 L 90.45600000000002 560.064 Q 90.45600000000002 568.064 82.45600000000002 568.064 L 76.72799999999995 568.064 Q 68.72799999999995 568.064 68.72799999999995 576.064 L 68.72799999999995 594.064" fill="none" stroke="transparent" stroke-width="0.001" marker-end="url(#cora-marker-arrow)"></path><path d="M 144.22133333333335 295.376 L 144.22133333333335 396.376 Q 144.22133333333335 404.376 152.22133333333335 404.376 L 330.79466666666667 404.376 Q 338.79466666666667 404.376 338.79466666666667 412.376 L 338.79466666666667 515.72" fill="none" stroke="transparent" stroke-width="0.001" marker-end="url(#cora-marker-arrow)"></path><path d="M 101.45600000000002 295.376 L 101.45600000000002 594.064" fill="none" stroke="transparent" stroke-width="0.001" marker-end="url(#cora-marker-arrow)"></path><path d="M 196.98666666666668 217.03199999999998 L 196.98666666666668 303.376 Q 196.98666666666668 311.376 188.98666666666668 311.376 L 142.22133333333335 311.376 Q 134.22133333333335 311.376 134.22133333333335 319.376 L 134.22133333333335 406.376 Q 134.22133333333335 414.376 142.22133333333335 414.376 L 226.3613333333334 414.376 Q 234.3613333333334 414.376 234.3613333333334 422.376 L 234.3613333333334 594.064" fill="none" stroke="transparent" stroke-width="0.001" marker-end="url(#cora-marker-arrow)"></path><path d="M 418.0333333333334 217.03199999999998 L 418.0333333333334 225.03199999999998 Q 418.0333333333334 233.03199999999998 410.0333333333334 233.03199999999998 L 254.03466666666674 233.03199999999998 Q 246.03466666666674 233.03199999999998 246.03466666666674 241.03199999999998 L 246.03466666666674 386.376 Q 246.03466666666674 394.376 254.03466666666674 394.376 L 409.9426666666667 394.376 Q 417.9426666666667 394.376 417.9426666666667 402.376 L 417.9426666666667 672.4079999999999" fill="none" stroke="transparent" stroke-width="0.001" marker-end="url(#cora-marker-arrow)"></path><path d="M 457.3106666666667 295.376 L 457.3106666666667 356.376 Q 457.3106666666667 364.376 465.3106666666667 364.376 L 820.6293333333333 364.376 Q 828.6293333333333 364.376 828.6293333333333 372.376 L 828.6293333333333 594.064" fill="none" stroke="transparent" stroke-width="0.001" marker-end="url(#cora-marker-arrow)"></path><path d="M 287.2893333333334 217.03199999999998 L 287.2893333333334 235.03199999999998 Q 287.2893333333334 243.03199999999998 279.2893333333334 243.03199999999998 L 265.03466666666674 243.03199999999998 Q 257.03466666666674 243.03199999999998 257.03466666666674 251.03199999999998 L 257.03466666666674 376.376 Q 257.03466666666674 384.376 265.03466666666674 384.376 L 697.534 384.376 Q 705.534 384.376 705.534 392.376 L 705.534 447.376" fill="none" stroke="transparent" stroke-width="0.001" marker-end="url(#cora-marker-arrow)"></path><path d="M 321.02266666666674 295.376 L 321.02266666666674 366.376 Q 321.02266666666674 374.376 329.02266666666674 374.376 L 759.76 374.376 Q 767.76 374.376 767.76 382.376 L 767.76 594.064" fill="none" stroke="transparent" stroke-width="0.001" marker-end="url(#cora-marker-arrow)"></path><path d="M 331.26 552.064 L 331.26 763.752 Q 331.26 771.752 339.26 771.752 L 933.4986666666666 771.752 Q 941.4986666666666 771.752 941.4986666666666 763.752 L 941.4986666666666 -21 Q 941.4986666666666 -29 933.4986666666666 -29 L 252.9906666666667 -29 Q 244.9906666666667 -29 244.9906666666667 -21 L 244.9906666666667 34" fill="none" stroke="transparent" stroke-width="0.001" marker-end="url(#cora-marker-arrow)"></path><path d="M 101.45600000000002 630.4079999999999 L 101.45600000000002 743.752 Q 101.45600000000002 751.752 93.45600000000002 751.752 L 12 751.752 Q 4 751.752 4 743.752 L 4 -21 Q 4 -29 12 -29 L 208.51866666666666 -29 Q 216.51866666666666 -29 216.51866666666666 -21 L 216.51866666666666 34" fill="none" stroke="transparent" stroke-width="0.001" marker-end="url(#cora-marker-arrow)"></path><path d="M 234.3613333333334 630.4079999999999 L 234.3613333333334 638.4079999999999 Q 234.3613333333334 646.4079999999999 226.3613333333334 646.4079999999999 L 98.45600000000002 646.4079999999999 Q 90.45600000000002 646.4079999999999 90.45600000000002 654.4079999999999 L 90.45600000000002 733.752 Q 90.45600000000002 741.752 82.45600000000002 741.752 L 22 741.752 Q 14 741.752 14 733.752 L 14 9 Q 14 1 22 1 L 156.41733333333332 1 Q 164.41733333333332 1 164.41733333333332 9 L 164.41733333333332 180.688" fill="none" stroke="transparent" stroke-width="0.001" marker-end="url(#cora-marker-arrow)"></path><path d="M 828.6293333333333 630.4079999999999 L 828.6293333333333 733.752 Q 828.6293333333333 741.752 836.6293333333333 741.752 L 903.4986666666666 741.752 Q 911.4986666666666 741.752 911.4986666666666 733.752 L 911.4986666666666 9 Q 911.4986666666666 1 903.4986666666666 1 L 486.2773333333334 1 Q 478.2773333333334 1 478.2773333333334 9 L 478.2773333333334 149.11433333333332 Q 478.2773333333334 154.688 472.7036666666667 154.688 L 472.7036666666667 154.688 Q 467.13000000000005 154.688 467.13000000000005 160.26166666666666 L 467.13000000000005 180.688" fill="none" stroke="transparent" stroke-width="0.001" marker-end="url(#cora-marker-arrow)"></path><path d="M 465.784 630.4079999999999 L 465.784 753.752 Q 465.784 761.752 473.784 761.752 L 923.4986666666666 761.752 Q 931.4986666666666 761.752 931.4986666666666 753.752 L 931.4986666666666 -11 Q 931.4986666666666 -19 923.4986666666666 -19 L 281.4626666666667 -19 Q 273.4626666666667 -19 273.4626666666667 -11 L 273.4626666666667 34" fill="none" stroke="transparent" stroke-width="0.001" marker-end="url(#cora-marker-arrow)"></path><path d="M 637.5013333333334 630.4079999999999 L 637.5013333333334 743.752 Q 637.5013333333334 751.752 645.5013333333334 751.752 L 913.4986666666666 751.752 Q 921.4986666666666 751.752 921.4986666666666 743.752 L 921.4986666666666 -1 Q 921.4986666666666 -9 913.4986666666666 -9 L 309.93466666666666 -9 Q 301.93466666666666 -9 301.93466666666666 -1 L 301.93466666666666 34" fill="none" stroke="transparent" stroke-width="0.001" marker-end="url(#cora-marker-arrow)"></path></g><g id="edge-bridge-masks"><path d="M 318.0226666666667 164.688 L 324.0226666666667 164.688" fill="none" stroke="#f8fafc" stroke-width="5"></path><path d="M 231.3613333333334 568.064 L 237.3613333333334 568.064" fill="none" stroke="#f8fafc" stroke-width="5"></path><path d="M 414.9426666666667 568.064 L 420.9426666666667 568.064" fill="none" stroke="#f8fafc" stroke-width="5"></path><path d="M 328.26 646.4079999999999 L 334.26 646.4079999999999" fill="none" stroke="#f8fafc" stroke-width="5"></path><path d="M 634.5013333333334 656.4079999999999 L 640.5013333333334 656.4079999999999" fill="none" stroke="#f8fafc" stroke-width="5"></path><path d="M 231.3613333333334 499.72 L 237.3613333333334 499.72" fill="none" stroke="#f8fafc" stroke-width="5"></path><path d="M 98.45600000000002 499.72 L 104.45600000000002 499.72" fill="none" stroke="#f8fafc" stroke-width="5"></path><path d="M 98.45600000000002 646.4079999999999 L 104.45600000000002 646.4079999999999" fill="none" stroke="#f8fafc" stroke-width="5"></path></g><g id="edge-bridges"><path d="M 318.0226666666667 164.688 L 324.0226666666667 164.688" fill="none" stroke="#334155" stroke-width="2"></path><path d="M 231.3613333333334 568.064 L 237.3613333333334 568.064" fill="none" stroke="#334155" stroke-width="2"></path><path d="M 414.9426666666667 568.064 L 420.9426666666667 568.064" fill="none" stroke="#334155" stroke-width="2"></path><path d="M 328.26 646.4079999999999 L 334.26 646.4079999999999" fill="none" stroke="#334155" stroke-width="2"></path><path d="M 634.5013333333334 656.4079999999999 L 640.5013333333334 656.4079999999999" fill="none" stroke="#334155" stroke-width="2"></path><path d="M 231.3613333333334 499.72 L 237.3613333333334 499.72" fill="none" stroke="#334155" stroke-width="2"></path><path d="M 98.45600000000002 499.72 L 104.45600000000002 499.72" fill="none" stroke="#334155" stroke-width="2"></path><path d="M 98.45600000000002 646.4079999999999 L 104.45600000000002 646.4079999999999" fill="none" stroke="#334155" stroke-width="2"></path></g><g id="edge-labels"><g><rect x="213.04000000000002" y="395.066" width="59.28" height="16.62" rx="8.31" ry="8.31" fill="#f8fafc"></rect><text x="242.68000000000004" y="407.256" text-anchor="middle" font-family="&#x27;Noto Sans&#x27;, sans-serif" font-size="10" font-weight="400" fill="#475569">place order</text></g><g><rect x="76.11600000000001" y="436.40999999999997" width="50.68" height="16.62" rx="8.31" ry="8.31" fill="#f8fafc"></rect><text x="101.45600000000002" y="448.59999999999997" text-anchor="middle" font-family="&#x27;Noto Sans&#x27;, sans-serif" font-size="10" font-weight="400" fill="#475569">authorize</text></g><g><rect x="110.06066666666668" y="405.066" width="68.03999999999999" height="16.62" rx="8.31" ry="8.31" fill="#f8fafc"></rect><text x="144.08066666666667" y="417.256" text-anchor="middle" font-family="&#x27;Noto Sans&#x27;, sans-serif" font-size="10" font-weight="400" fill="#475569">reserve stock</text></g><g><rect x="270.0483333333333" y="385.066" width="52.57" height="16.62" rx="8.31" ry="8.31" fill="#f8fafc"></rect><text x="296.3333333333333" y="397.256" text-anchor="middle" font-family="&#x27;Noto Sans&#x27;, sans-serif" font-size="10" font-weight="400" fill="#475569">live prices</text></g><g><rect x="693.2890000000001" y="355.066" width="60.05" height="16.62" rx="8.31" ry="8.31" fill="#f8fafc"></rect><text x="723.3140000000001" y="367.256" text-anchor="middle" font-family="&#x27;Noto Sans&#x27;, sans-serif" font-size="10" font-weight="400" fill="#475569">personalize</text></g><g><rect x="382.5450000000001" y="375.066" width="62.88" height="16.62" rx="8.31" ry="8.31" fill="#f8fafc"></rect><text x="413.98500000000007" y="387.256" text-anchor="middle" font-family="&#x27;Noto Sans&#x27;, sans-serif" font-size="10" font-weight="400" fill="#475569">login events</text></g><g><rect x="583.8453333333333" y="365.066" width="61.78" height="16.62" rx="8.31" ry="8.31" fill="#f8fafc"></rect><text x="614.7353333333333" y="377.256" text-anchor="middle" font-family="&#x27;Noto Sans&#x27;, sans-serif" font-size="10" font-weight="400" fill="#475569">preferences</text></g><g><rect x="905.1836666666666" y="398.2753333333333" width="72.63" height="16.62" rx="8.31" ry="8.31" fill="#f8fafc"></rect><text x="941.4986666666666" y="410.4653333333333" text-anchor="middle" font-family="&#x27;Noto Sans&#x27;, sans-serif" font-size="10" font-weight="400" fill="#475569">order updates</text></g><g><rect x="-17.57" y="324.7066666666666" width="43.14" height="16.62" rx="8.31" ry="8.31" fill="#f8fafc"></rect><text x="4" y="336.8966666666666" text-anchor="middle" font-family="&#x27;Noto Sans&#x27;, sans-serif" font-size="10" font-weight="400" fill="#475569">receipts</text></g><g><rect x="-13.030000000000001" y="363.86600000000004" width="54.06" height="16.62" rx="8.31" ry="8.31" fill="#f8fafc"></rect><text x="14" y="376.05600000000004" text-anchor="middle" font-family="&#x27;Noto Sans&#x27;, sans-serif" font-size="10" font-weight="400" fill="#475569">stock sync</text></g><g><rect x="874.1136666666666" y="148.14433333333335" width="74.77" height="16.62" rx="8.31" ry="8.31" fill="#f8fafc"></rect><text x="911.4986666666666" y="160.33433333333335" text-anchor="middle" font-family="&#x27;Noto Sans&#x27;, sans-serif" font-size="10" font-weight="400" fill="#475569">featured items</text></g><g><rect x="900.7786666666666" y="306.07733333333323" width="61.44" height="16.62" rx="8.31" ry="8.31" fill="#f8fafc"></rect><text x="931.4986666666666" y="318.2673333333332" text-anchor="middle" font-family="&#x27;Noto Sans&#x27;, sans-serif" font-size="10" font-weight="400" fill="#475569">async alerts</text></g><g><rect x="877.7536666666666" y="234.4546666666667" width="87.49" height="16.62" rx="8.31" ry="8.31" fill="#f8fafc"></rect><text x="921.4986666666666" y="246.6446666666667" text-anchor="middle" font-family="&#x27;Noto Sans&#x27;, sans-serif" font-size="10" font-weight="400" fill="#475569">shipping updates</text></g></g></svg>